<?xml version="1.0" encoding="utf-8"?>
<!-- Generator: Adobe Illustrator 16.0.3, SVG Export Plug-In . SVG Version: 6.00 Build 0)  -->
<!DOCTYPE svg PUBLIC "-//W3C//DTD SVG 1.1//EN" "http://www.w3.org/Graphics/SVG/1.1/DTD/svg11.dtd" [
	<!ENTITY st0 "fill:#1BB1BF;">
	<!ENTITY st1 "stroke:#000000;stroke-width:0.5;stroke-miterlimit:10;">
	<!ENTITY st2 "fill:#BAE7EB;">
	<!ENTITY st3 "fill:#FEBF12;">
	<!ENTITY st4 "fill:#FFFFFF;">
	<!ENTITY st5 "fill:none;">
	<!ENTITY st6 "fill:#678842;">
	<!ENTITY st7 "fill:none;stroke:#000000;stroke-width:4;stroke-miterlimit:10;stroke-dasharray:4,6;">
	<!ENTITY st8 "fill:none;stroke:#000000;stroke-width:3;">
	<!ENTITY st9 "fill:#FFFFFF;stroke:#000000;stroke-width:4;stroke-miterlimit:10;">
	<!ENTITY st10 "stroke:#000000;stroke-miterlimit:10;">
	<!ENTITY st11 "fill:none;stroke:#1BB0BE;stroke-width:4;stroke-miterlimit:10;">
	<!ENTITY st12 "fill:#A2B63B;">
	<!ENTITY st13 "fill:#FFFFFF;stroke:#000000;stroke-width:3;stroke-miterlimit:10;">
]>
<svg version="1.1" id="Layer_1" xmlns="http://www.w3.org/2000/svg" xmlns:xlink="http://www.w3.org/1999/xlink" x="0px" y="0px"
	 width="865.201px" height="528.26px" viewBox="207.163 136.502 865.201 528.26"
	 style="enable-background:new 207.163 136.502 865.201 528.26;" xml:space="preserve">
<g>
	<g>
		<g>
			<g>
				<polygon points="247.208,281.127 244.561,278.482 251.155,271.883 244.561,265.285 247.208,262.64 256.445,271.883 				"/>
			</g>
			<g>
				<rect x="224.414" y="270.013" width="28.709" height="3.742"/>
			</g>
		</g>
		<g>
			<g>
				<rect x="239.11" y="232.618" width="18.132" height="3.742"/>
			</g>
			<g>
				<rect x="229.614" y="232.618" width="6.043" height="3.742"/>
			</g>
		</g>
		<g>
			<g>
				<rect x="216.658" y="245.715" width="18.132" height="3.742"/>
			</g>
			<g>
				<rect x="207.163" y="245.715" width="6.043" height="3.742"/>
			</g>
		</g>
	</g>
	<g>
		<g>
			<g>
				<path style="&st4;" d="M315.253,203.736l-23.504,21.115v22.792c0.111,0.007,10.402,0.604,10.402-7.534l-0.022-10.609
					l17.183-10.813h23.009l5.6,9.518c0,0.049,0.102,0.227,0.102,0.227l-0.034,14.548c0.123,4.345,4.959,7.765,9.307,7.642
					c0,0,0.986-0.096,1.093-0.105v-18.342l0.07,0.025l-0.003-13.512h0.758h6.627h10.438v-25.291h-19.875
					C355.936,193.396,315.778,201.643,315.253,203.736z"/>
				<path d="M346.118,242.975l0.033-14.088l-4.9-8.328h-21.399l-15.849,9.974l0.02,9.577c0,6.943-6.065,9.417-11.74,9.417
					c-0.399,0-0.638-0.015-0.656-0.016l-1.748-0.116v-25.377l23.793-21.376c0.699-1.18,3.664-2.548,21.761-6.685
					c8.154-1.863,20.305-4.432,20.97-4.432h21.746v29.033h-17.821l0.003,11.639l-0.069,2.615l-0.003,17.42l-1.709,0.148
					c-0.112,0.009-1.073,0.102-1.073,0.102l-0.41,0.014C352.014,252.496,346.276,248.609,346.118,242.975z M356.583,216.817h17.823
					v-21.55h-17.871c-3.328,0.539-35.572,7.379-39.704,9.565l-23.211,20.853v20.042c2.688-0.229,6.66-1.302,6.66-5.614
					l-0.023-11.646l18.515-11.65h24.619l6.143,10.438l0.362,0.68l-0.036,14.991c0.088,3.099,3.534,5.54,6.659,5.803v-16.556
					l0.071-2.587L356.583,216.817z"/>
			</g>
		</g>
		<path style="&st3;" d="M308.529,271.193l-13.429-5.59l14.909-35.835l35.83,14.912l-5.784,13.913
			c-0.067,0.066-0.129,0.122-0.201,0.174c-0.007,0.006-0.016,0.012-0.028,0.019c-0.066,0.05-0.139,0.098-0.21,0.136
			c-0.006,0.004-0.012,0.006-0.017,0.008c-0.137,0.076-0.281,0.127-0.429,0.162c-0.028,0.007-0.051,0.016-0.074,0.021
			c-0.051,0.01-0.102,0.014-0.155,0.02c-0.057,0.006-0.113,0.016-0.169,0.016c-0.047,0.003-0.089,0.002-0.134-0.004
			c-0.068-0.003-0.139-0.01-0.208-0.021c-0.037-0.007-0.071-0.009-0.109-0.019c-0.103-0.022-0.212-0.053-0.317-0.096
			c-0.553-0.23-0.928-0.694-1.082-1.229c-0.493-1.835-1.801-3.433-3.694-4.222c-3.243-1.35-6.969,0.188-8.319,3.432
			c-1.349,3.243,0.188,6.971,3.431,8.32c1.893,0.786,3.947,0.59,5.598-0.355c0.488-0.267,1.084-0.33,1.636-0.102
			c0.103,0.045,0.198,0.1,0.288,0.158c0.034,0.021,0.063,0.043,0.092,0.065c0.056,0.042,0.109,0.087,0.162,0.13
			c0.034,0.033,0.067,0.063,0.095,0.097c0.039,0.042,0.076,0.085,0.11,0.13c0.029,0.041,0.064,0.082,0.095,0.124
			c0.015,0.021,0.021,0.044,0.035,0.067c0.082,0.129,0.142,0.267,0.186,0.418c0.002,0.007,0.006,0.014,0.007,0.018
			c0.024,0.08,0.041,0.162,0.054,0.244c0.002,0.012,0.003,0.025,0.005,0.037c0.014,0.084,0.017,0.17,0.019,0.256l-5.792,13.916
			l-13.435-5.59c-0.912-0.27-1.902,0.175-2.275,1.074c-0.229,0.553-0.17,1.144,0.095,1.633c0.946,1.652,1.146,3.707,0.358,5.602
			c-1.35,3.244-5.076,4.779-8.319,3.428c-3.247-1.348-4.784-5.074-3.433-8.317c0.789-1.896,2.386-3.197,4.223-3.694
			c0.531-0.154,0.997-0.531,1.227-1.084C309.75,272.665,309.365,271.652,308.529,271.193z"/>
	</g>
	<g>
		<path style="&st12;" d="M604.828,299.681l37.419-0.029l-0.193-13.888c0.041-54.678-44.409-99.195-99.087-99.236l-173.065-0.102
			l-0.028,37.42l173.066,0.101c34.045,0.026,61.721,27.743,61.695,61.788L604.828,299.681z"/>
	</g>
	<line style="&st7;" x1="370" y1="205" x2="544" y2="205"/>
</g>
<g>
	<g>
		<g>
			<rect x="734.515" y="271.333" style="&st6;" width="38.896" height="28.333"/>
		</g>
	</g>
</g>
<rect x="364" y="300" style="&st9;" width="618" height="228"/>
<g>
	<path style="&st0;" d="M489.784,290.972c0,21.189-17.175,38.364-38.362,38.364c-21.191,0-38.364-17.175-38.364-38.364
		c0-21.192,17.173-38.364,38.364-38.364C472.609,252.607,489.784,269.78,489.784,290.972z"/>
	<g>
		<polygon points="450.854,295.577 431.915,276.406 435.655,272.708 450.854,288.093 473.938,264.728 477.679,268.424 		"/>
	</g>
	<g>
		<circle style="&st4;" cx="451.42" cy="290.969" r="8.342"/>
		<path d="M451.422,301.941c-6.051,0-10.973-4.921-10.973-10.972c0-6.049,4.922-10.97,10.973-10.97c6.049,0,10.97,4.921,10.97,10.97
			C462.392,297.021,457.471,301.941,451.422,301.941z M451.422,285.26c-3.15,0-5.713,2.561-5.713,5.709
			c0,3.148,2.563,5.712,5.713,5.712c3.149,0,5.71-2.563,5.71-5.712C457.132,287.82,454.571,285.26,451.422,285.26z"/>
	</g>
	<g>
		<g>
			<rect x="447.426" y="251.878" width="5.26" height="6.388"/>
		</g>
		<g>
			<rect x="411.732" y="289.169" width="6.388" height="5.26"/>
		</g>
		<g>
			<rect x="449.023" y="323.734" width="5.26" height="6.388"/>
		</g>
		<g>
			<rect x="483.589" y="287.571" width="6.388" height="5.26"/>
		</g>
	</g>
</g>
<g>
	<g>
		<path style="&st6;" d="M479.216,370.626c0,1.652-0.283,3.209-0.85,4.578c-0.567,1.369-1.369,2.549-2.454,3.54
			s-2.501,1.747-4.153,2.313c-1.651,0.566-3.587,0.803-5.805,0.803h-4.2v7.361c0.566,0.095,1.085,0.189,1.416,0.236
			c0.33,0.047,0.566,0.142,0.708,0.142s0.236,0.048,0.283,0.048c0.803,0.188,1.18,0.66,1.18,1.463v2.784h-3.587h-6.324h-3.587
			v-2.784c0-0.803,0.377-1.274,1.181-1.463c0.047,0,0.141-0.048,0.282-0.048c0.143-0.047,0.378-0.094,0.708-0.142
			c0.331-0.047,0.851-0.142,1.416-0.236v-24.777c-0.565-0.095-1.085-0.188-1.416-0.236c-0.33-0.047-0.565-0.142-0.708-0.142
			c-0.142-0.048-0.235-0.048-0.282-0.048c-0.804-0.188-1.181-0.66-1.181-1.463v-2.783h3.587h10.524c2.266,0,4.295,0.282,5.946,0.802
			c1.652,0.519,3.021,1.32,4.106,2.265s1.888,2.077,2.407,3.398C478.933,367.559,479.216,369.021,479.216,370.626z M472.845,370.626
			c0-0.896-0.142-1.699-0.425-2.454s-0.708-1.369-1.273-1.888c-0.566-0.52-1.274-0.896-2.124-1.181
			c-0.851-0.283-1.889-0.425-3.068-0.425h-4.2v12.225h4.2c1.18,0,2.218-0.143,3.068-0.425c0.85-0.283,1.558-0.661,2.124-1.228
			c0.565-0.519,0.99-1.18,1.273-1.981C472.703,372.514,472.845,371.57,472.845,370.626z"/>
		<path style="&st6;" d="M511.406,391.109v2.784h-0.661h-2.926h-2.785c-0.566,0-1.038-0.094-1.416-0.33
			c-0.377-0.236-0.661-0.52-0.944-0.944l-7.173-10.949c-0.283-0.425-0.566-0.661-0.897-0.85c-0.33-0.188-0.802-0.283-1.416-0.283
			h-2.406v8.684c0.565,0.095,1.085,0.189,1.416,0.236c0.33,0.047,0.565,0.142,0.708,0.142c0.142,0,0.235,0.048,0.282,0.048
			c0.804,0.188,1.181,0.66,1.181,1.463v2.784h-3.587h-6.324h-3.587v-2.784c0-0.803,0.377-1.274,1.18-1.463
			c0.047,0,0.142-0.048,0.283-0.048c0.142-0.047,0.378-0.094,0.708-0.142c0.331-0.047,0.85-0.142,1.416-0.236v-24.777
			c-0.566-0.095-1.085-0.188-1.416-0.236c-0.33-0.047-0.566-0.142-0.708-0.142s-0.236-0.048-0.283-0.048
			c-0.803-0.188-1.18-0.66-1.18-1.463v-2.783h3.587h10.053c2.313,0,4.342,0.235,5.994,0.707c1.652,0.473,3.021,1.181,4.059,2.03
			c1.038,0.85,1.889,1.936,2.359,3.115c0.521,1.227,0.755,2.501,0.755,3.964c0,1.133-0.188,2.218-0.519,3.256
			c-0.331,1.039-0.851,1.936-1.463,2.785c-0.613,0.85-1.416,1.559-2.36,2.171c-0.944,0.614-2.029,1.133-3.209,1.51
			c0.802,0.473,1.51,1.134,2.077,1.982l5.38,7.929c0.565,0.095,1.085,0.189,1.463,0.236c0.377,0.047,0.613,0.142,0.802,0.142
			c0.189,0,0.331,0.047,0.377,0.047C511.028,389.835,511.406,390.307,511.406,391.109z M499.749,374.308
			c0.566-0.52,0.991-1.18,1.274-1.888c0.282-0.708,0.425-1.51,0.425-2.359c0-1.746-0.566-3.067-1.699-4.012
			c-1.133-0.943-2.879-1.369-5.239-1.369h-3.729v11.327h3.634c1.18,0,2.218-0.188,3.115-0.472
			C498.427,375.251,499.182,374.827,499.749,374.308z"/>
		<path style="&st6;" d="M545.106,383.794c-0.85,2.124-1.982,3.964-3.492,5.521c-1.511,1.558-3.352,2.784-5.476,3.634
			s-4.437,1.32-7.031,1.32c-2.596,0-4.956-0.472-7.079-1.32c-2.124-0.851-3.965-2.077-5.476-3.634
			c-1.51-1.558-2.689-3.398-3.54-5.521c-0.85-2.124-1.227-4.484-1.227-6.985s0.377-4.813,1.227-6.938
			c0.851-2.125,2.029-3.964,3.54-5.522c1.511-1.557,3.352-2.784,5.476-3.634s4.482-1.322,7.079-1.322
			c2.596,0,4.907,0.426,7.031,1.322s3.965,2.077,5.476,3.634c1.51,1.559,2.643,3.398,3.492,5.522s1.273,4.437,1.273,6.938
			C546.381,379.31,545.956,381.67,545.106,383.794z M539.113,371.806c-0.473-1.51-1.181-2.736-2.124-3.775
			c-0.944-1.038-2.077-1.84-3.398-2.407c-1.321-0.566-2.832-0.802-4.482-0.802c-1.651,0-3.209,0.235-4.531,0.802
			s-2.454,1.369-3.398,2.407c-0.943,1.039-1.651,2.266-2.171,3.775c-0.52,1.511-0.755,3.115-0.755,5.002
			c0,1.889,0.236,3.54,0.755,5.051c0.52,1.51,1.228,2.736,2.171,3.774c0.944,1.039,2.077,1.841,3.398,2.407s2.879,0.802,4.531,0.802
			c1.651,0,3.161-0.235,4.482-0.802c1.322-0.566,2.454-1.369,3.398-2.407c0.943-1.038,1.651-2.265,2.124-3.774
			c0.472-1.511,0.755-3.162,0.755-5.051C539.868,374.921,539.585,373.316,539.113,371.806z"/>
		<path style="&st6;" d="M573.333,369.682c-0.094-0.425-0.236-1.698-0.424-3.774c-2.597-0.755-4.72-1.085-6.513-1.085
			c-1.604,0-3.068,0.235-4.438,0.802s-2.501,1.369-3.445,2.407c-0.943,1.039-1.698,2.266-2.265,3.775
			c-0.566,1.511-0.85,3.209-0.85,5.051c0,1.935,0.282,3.587,0.85,5.097s1.227,2.737,2.171,3.775s2.029,1.793,3.304,2.359
			c1.275,0.567,2.597,0.802,4.06,0.802c0.85,0,1.651-0.047,2.359-0.142c0.708-0.094,1.369-0.236,1.936-0.424
			c0.565-0.189,1.133-0.472,1.652-0.803c0.519-0.33,1.038-0.756,1.558-1.228c0.142-0.142,0.33-0.236,0.519-0.33
			c0.189-0.095,0.377-0.095,0.566-0.095c0.33,0,0.661,0.095,0.896,0.378l2.501,2.737c-1.369,1.698-3.067,3.021-5.097,3.917
			s-4.483,1.369-7.315,1.369c-2.549,0-4.767-0.473-6.796-1.321c-2.028-0.85-3.774-2.029-5.19-3.587
			c-1.416-1.559-2.549-3.398-3.305-5.522c-0.755-2.124-1.133-4.436-1.133-6.984s0.426-4.956,1.274-7.079
			c0.85-2.124,2.029-3.917,3.587-5.476c1.557-1.558,3.351-2.785,5.521-3.634c2.124-0.85,4.531-1.274,7.126-1.274
			c2.832,0,6.419,0.803,10.714,2.454v8.685h-2.737C573.805,370.532,573.474,370.249,573.333,369.682z"/>
		<path style="&st6;" d="M614.49,359.771v2.783c0,0.803-0.378,1.274-1.181,1.463c-0.047,0-0.142,0.048-0.282,0.048
			c-0.142,0-0.377,0.095-0.708,0.142c-0.33,0.047-0.85,0.142-1.416,0.236v15.764c0,2.029-0.331,3.917-0.991,5.616
			c-0.661,1.699-1.559,3.209-2.785,4.482c-1.227,1.228-2.737,2.219-4.483,2.927c-1.745,0.708-3.729,1.037-5.898,1.037
			s-4.153-0.329-5.899-1.037s-3.209-1.699-4.437-2.927c-1.228-1.273-2.171-2.784-2.832-4.482c-0.661-1.699-0.944-3.587-0.944-5.616
			v-15.764c-0.565-0.095-1.085-0.188-1.416-0.236c-0.331-0.047-0.565-0.142-0.708-0.142c-0.142,0-0.235-0.048-0.283-0.048
			c-0.802-0.188-1.18-0.66-1.18-1.463v-2.783h3.587h6.324h3.775v2.783c0,0.803-0.377,1.274-1.181,1.463
			c-0.047,0-0.188,0.048-0.331,0.048c-0.142,0-0.425,0.095-0.802,0.142s-0.896,0.142-1.463,0.236v15.716
			c0,1.321,0.142,2.501,0.519,3.54c0.33,1.039,0.896,1.981,1.559,2.736c0.661,0.756,1.463,1.274,2.406,1.699
			c0.944,0.425,2.077,0.613,3.305,0.613c1.227,0,2.359-0.188,3.304-0.613s1.793-0.943,2.454-1.699
			c0.661-0.755,1.133-1.651,1.51-2.689c0.331-1.039,0.566-2.218,0.566-3.54v-15.764c-0.566-0.095-1.085-0.188-1.463-0.236
			c-0.378-0.047-0.661-0.142-0.804-0.142c-0.142,0-0.282-0.048-0.329-0.048c-0.803-0.188-1.181-0.66-1.181-1.463v-2.784h3.776h6.324
			h3.588V359.771z"/>
		<path style="&st6;" d="M646.68,391.109v2.784h-0.66h-2.926h-2.785c-0.565,0-1.037-0.094-1.416-0.33
			c-0.377-0.236-0.66-0.52-0.943-0.944l-7.173-10.949c-0.283-0.425-0.566-0.661-0.897-0.85s-0.802-0.283-1.416-0.283h-2.407v8.684
			c0.566,0.095,1.085,0.189,1.416,0.236c0.33,0.047,0.566,0.142,0.708,0.142c0.143,0,0.236,0.048,0.283,0.048
			c0.803,0.188,1.181,0.66,1.181,1.463v2.784h-3.587h-6.324h-3.587v-2.784c0-0.803,0.377-1.274,1.18-1.463
			c0.047,0,0.141-0.048,0.283-0.048c0.142-0.047,0.378-0.094,0.708-0.142c0.331-0.047,0.85-0.142,1.416-0.236v-24.777
			c-0.566-0.095-1.085-0.188-1.416-0.236c-0.33-0.047-0.566-0.142-0.708-0.142c-0.143,0-0.236-0.048-0.283-0.048
			c-0.803-0.188-1.18-0.66-1.18-1.463v-2.783h3.587h10.053c2.313,0,4.342,0.235,5.994,0.707c1.652,0.473,3.021,1.181,4.059,2.03
			s1.889,1.936,2.359,3.115c0.52,1.227,0.755,2.501,0.755,3.964c0,1.133-0.188,2.218-0.519,3.256
			c-0.331,1.039-0.851,1.936-1.463,2.785c-0.613,0.85-1.416,1.559-2.36,2.171c-0.944,0.614-2.029,1.133-3.209,1.51
			c0.802,0.473,1.51,1.134,2.077,1.982l5.38,7.929c0.565,0.095,1.086,0.189,1.463,0.236s0.613,0.142,0.803,0.142
			c0.188,0,0.33,0.047,0.377,0.047C646.303,389.835,646.68,390.307,646.68,391.109z M635.023,374.308
			c0.565-0.52,0.99-1.18,1.273-1.888s0.425-1.51,0.425-2.359c0-1.746-0.565-3.067-1.698-4.012c-1.134-0.943-2.88-1.369-5.239-1.369
			h-3.729v11.327h3.635c1.18,0,2.218-0.188,3.114-0.472C633.701,375.251,634.457,374.827,635.023,374.308z"/>
		<path style="&st6;" d="M674.765,359.771v3.303v1.747v3.917h-0.234h-0.566h-1.936c-0.613,0-0.943-0.33-1.086-0.896
			c-0.047-0.378-0.188-1.369-0.33-3.021h-10.996v9.438h11.563v4.908h-11.563v9.628h10.996c0.142-1.652,0.283-2.643,0.33-3.021
			c0.143-0.566,0.473-0.896,1.086-0.896h1.936h0.566h0.234v3.917v1.793v3.304h-21.521h-3.588v-2.784
			c0-0.803,0.378-1.274,1.181-1.464c0.047,0,0.143-0.047,0.282-0.047c0.143,0,0.379-0.094,0.709-0.142
			c0.33-0.047,0.85-0.142,1.416-0.236v-24.777c-0.566-0.095-1.086-0.188-1.416-0.236c-0.33-0.047-0.566-0.142-0.709-0.142
			c-0.141,0-0.235-0.048-0.282-0.048c-0.803-0.188-1.181-0.661-1.181-1.463v-2.784h3.588h21.521V359.771z"/>
		<path style="&st6;" d="M720.594,364.066c-0.143,0-0.378,0.095-0.708,0.142c-0.331,0.047-0.803,0.142-1.369,0.236v24.777
			c0.566,0.095,1.038,0.189,1.369,0.236c0.33,0.047,0.565,0.142,0.708,0.142c0.142,0,0.236,0.047,0.283,0.047
			c0.802,0.189,1.18,0.661,1.18,1.464v2.784h-3.54H712.9h-4.248v-2.784c0-0.803,0.379-1.274,1.181-1.464
			c0.095,0,1.133-0.142,3.067-0.425v-17.368c0-0.425,0.047-0.85,0.047-1.321c0-0.473,0.048-0.991,0.095-1.511l-10.288,19.351
			c-0.236,0.425-0.565,0.802-0.943,1.039c-0.379,0.235-0.803,0.377-1.321,0.377h-0.851c-0.52,0-0.942-0.142-1.32-0.377
			c-0.378-0.236-0.708-0.614-0.944-1.039l-10.43-19.397c0.047,0.52,0.047,1.038,0.094,1.511c0.047,0.472,0.047,0.943,0.047,1.368
			v17.368c1.982,0.283,2.976,0.425,3.068,0.425c0.803,0.189,1.18,0.661,1.18,1.464v2.784h-4.248h-5.567h-3.588v-2.784
			c0-0.803,0.379-1.274,1.182-1.464c0.047,0,0.141,0,0.282-0.047s0.378-0.094,0.708-0.142c0.33-0.047,0.85-0.142,1.416-0.236
			v-24.777c-0.566-0.095-1.086-0.188-1.416-0.236c-0.33-0.047-0.566-0.142-0.708-0.142c-0.143-0.048-0.235-0.048-0.282-0.048
			c-0.803-0.188-1.182-0.66-1.182-1.463v-2.784h3.588h4.767c0.283,0,0.566,0.048,0.755,0.048c0.189,0,0.426,0.047,0.566,0.095
			c0.188,0.047,0.283,0.188,0.426,0.33c0.141,0.142,0.282,0.331,0.424,0.565l10.194,18.926c0.283,0.519,0.472,1.039,0.708,1.558
			c0.235,0.519,0.473,1.085,0.708,1.652c0.234-0.566,0.425-1.085,0.661-1.652c0.234-0.566,0.472-1.085,0.755-1.605l10.1-18.878
			c0.143-0.235,0.235-0.425,0.378-0.565c0.142-0.143,0.283-0.283,0.473-0.33c0.188-0.047,0.378-0.095,0.565-0.095
			c0.188,0,0.425-0.048,0.708-0.048h4.813h3.54v2.784c0,0.803-0.379,1.274-1.181,1.463
			C720.83,364.019,720.734,364.066,720.594,364.066z"/>
		<path style="&st6;" d="M750.236,359.771v3.303v1.747v3.917H750h-0.566h-1.935c-0.613,0-0.944-0.33-1.085-0.896
			c-0.048-0.378-0.189-1.369-0.331-3.021h-10.996v9.438h11.563v4.908h-11.563v9.628h10.996c0.142-1.652,0.283-2.643,0.331-3.021
			c0.141-0.566,0.472-0.896,1.085-0.896h1.935H750h0.236v3.917v1.793v3.304h-21.521h-3.586v-2.784c0-0.803,0.377-1.274,1.18-1.464
			c0.048,0,0.143-0.047,0.283-0.047c0.142,0,0.377-0.094,0.707-0.142c0.331-0.047,0.851-0.142,1.416-0.236v-24.777
			c-0.565-0.095-1.085-0.188-1.416-0.236c-0.33-0.047-0.565-0.142-0.707-0.142s-0.235-0.048-0.283-0.048
			c-0.803-0.188-1.18-0.661-1.18-1.463v-2.784h3.586h21.521V359.771z"/>
		<path style="&st6;" d="M789.316,359.771v2.783c0,0.803-0.377,1.274-1.181,1.463c-0.047,0-0.142,0.048-0.282,0.048
			c-0.142,0-0.378,0.095-0.709,0.142c-0.33,0.047-0.802,0.142-1.367,0.236v29.449h-3.306c-0.519,0-0.896-0.094-1.227-0.235
			c-0.331-0.143-0.66-0.425-0.99-0.851l-17.841-22.7c0.048,0.519,0.095,0.99,0.095,1.463c0,0.472,0.047,0.943,0.047,1.369v16.281
			c1.982,0.283,2.975,0.425,3.068,0.425c0.802,0.189,1.18,0.661,1.18,1.464v2.784h-4.248h-5.567H753.4v-2.784
			c0-0.803,0.378-1.274,1.181-1.464c0.047,0,0.142,0,0.282-0.047c0.143-0.047,0.379-0.094,0.709-0.142
			c0.33-0.047,0.85-0.142,1.416-0.236v-24.777c-0.566-0.095-1.086-0.188-1.416-0.236c-0.33-0.047-0.566-0.142-0.709-0.142
			c-0.142,0-0.235-0.048-0.282-0.048c-0.803-0.188-1.181-0.66-1.181-1.463v-2.784h3.588h3.303c0.283,0,0.52,0.048,0.709,0.048
			c0.188,0,0.377,0.047,0.519,0.142c0.143,0.047,0.283,0.142,0.426,0.283c0.142,0.141,0.282,0.331,0.472,0.565l17.935,22.796
			c-0.047-0.566-0.094-1.086-0.142-1.604c-0.048-0.52-0.048-1.039-0.048-1.51v-16.047c-1.981-0.283-2.974-0.425-3.066-0.425
			c-0.803-0.188-1.181-0.66-1.181-1.463v-2.783h4.247h5.617H789.316z"/>
		<path style="&st6;" d="M820.327,359.771v8.069h-0.188h-0.565h-1.937c-0.612,0-0.989-0.331-1.133-0.896
			c-0.047-0.283-0.141-0.896-0.236-1.936h-6.938v24.211c0.566,0.095,1.039,0.189,1.369,0.236s0.566,0.142,0.708,0.142
			s0.235,0.047,0.283,0.047c0.802,0.189,1.228,0.661,1.228,1.464v2.784h-3.588h-6.371h-3.539v-2.784c0-0.803,0.377-1.274,1.18-1.464
			c0.048,0,0.143-0.047,0.283-0.047c0.142,0,0.377-0.094,0.707-0.142c0.331-0.047,0.803-0.142,1.369-0.236v-24.258h-6.938
			c-0.094,1.038-0.189,1.699-0.236,1.982c-0.141,0.565-0.472,0.896-1.085,0.896h-1.982h-0.565h-0.188v-8.069h0.707h0.048h26.854
			H820.327z"/>
	</g>
	<g>
		<g>
			<path style="&st10;" d="M481.892,406.072v8.01h-1.315c-0.769,0-1.152-0.439-1.207-1.317c0-0.272-0.109-1.755-0.219-4.388h-18.047
				v16.292h14.481v2.358h-14.481v15.634c0.657,0,1.262,0.055,1.81,0.055c0.549,0,0.933,0.056,1.207,0.056h0.548
				c0.713,0.056,1.042,0.385,1.042,0.987v1.098h-4.608h-2.798h-4.663v-1.098c0-0.604,0.385-0.933,1.098-0.987h0.549
				c0.273,0,0.658-0.056,1.207-0.056s1.152-0.055,1.81-0.055v-34.449c-0.657,0-1.262-0.055-1.81-0.055s-0.934-0.056-1.207-0.056
				h-0.549c-0.713-0.055-1.098-0.384-1.098-0.986v-1.043h4.663h21.889h1.37H481.892L481.892,406.072z"/>
			<path style="&st10;" d="M522.1,406.072v1.043c0,0.604-0.384,0.933-1.097,0.986h-0.494c-0.273,0-0.713,0.056-1.262,0.056
				c-0.548,0-1.097,0.055-1.755,0.055v21.833c0,2.139-0.384,4.113-1.042,5.979c-0.658,1.865-1.646,3.511-2.907,4.883
				c-1.262,1.371-2.854,2.468-4.663,3.235c-1.81,0.769-3.84,1.151-6.089,1.151s-4.333-0.384-6.145-1.151
				c-1.811-0.769-3.4-1.864-4.662-3.235c-1.263-1.372-2.25-3.019-2.908-4.883c-0.658-1.865-0.987-3.841-0.987-5.979v-21.833
				c-0.658,0-1.262-0.055-1.81-0.055c-0.549,0-0.934-0.056-1.207-0.056h-0.548c-0.714-0.055-1.042-0.384-1.042-0.986v-1.043h4.607
				h2.798h5.321v1.043c0,0.604-0.384,0.933-1.097,0.986h-0.658c-0.384,0-0.933,0.056-1.591,0.056s-1.316,0.055-1.976,0.055v21.833
				c0,1.811,0.274,3.511,0.823,5.046c0.548,1.536,1.262,2.908,2.304,4.061c0.987,1.151,2.249,2.085,3.73,2.742
				c1.48,0.658,3.182,0.987,5.046,0.987c1.865,0,3.511-0.329,4.992-0.987c1.48-0.657,2.688-1.535,3.729-2.688
				c1.042-1.151,1.811-2.523,2.359-4.114c0.548-1.591,0.823-3.235,0.823-5.046v-21.833c-0.658,0-1.316-0.055-1.976-0.055
				c-0.657,0-1.207-0.056-1.591-0.056h-0.658c-0.713-0.055-1.097-0.384-1.097-0.986v-1.043h5.321h2.797L522.1,406.072L522.1,406.072
				z"/>
			<path style="&st10;" d="M563.955,406.072v1.043c0,0.604-0.384,0.933-1.097,0.986h-0.494c-0.274,0-0.713,0.056-1.263,0.056
				c-0.548,0-1.097,0.055-1.755,0.055v36.645h-1.372c-0.438,0-0.713-0.165-0.986-0.55l-25.233-33.681
				c0.055,0.548,0.055,1.097,0.055,1.591v30.444c0.658,0,1.262,0.055,1.811,0.055c0.548,0,1.042,0.055,1.315,0.055h0.55
				c0.713,0.057,1.097,0.386,1.097,0.988v1.097h-4.772h-2.413h-4.663v-1.097c0-0.604,0.384-0.933,1.097-0.988h0.548
				c0.274,0,0.659-0.055,1.207-0.055c0.549,0,1.152-0.055,1.81-0.055v-34.449c-0.657,0-1.261-0.055-1.81-0.055
				c-0.548,0-0.933-0.056-1.207-0.056h-0.548c-0.713-0.055-1.097-0.384-1.097-0.986v-1.099h4.663h1.371
				c0.274,0,0.439,0.056,0.604,0.11s0.274,0.219,0.438,0.438l25.125,33.626c-0.056-0.549-0.056-1.098-0.056-1.592v-30.39
				c-0.658,0-1.316-0.055-1.865-0.055s-0.986-0.056-1.262-0.056h-0.548c-0.713-0.055-1.097-0.384-1.097-0.986v-1.043h4.771h2.468
				h4.607V406.072z"/>
			<path style="&st10;" d="M603.286,425.438c0,3.018-0.494,5.649-1.372,8.063c-0.877,2.414-2.139,4.443-3.785,6.145
				c-1.646,1.7-3.565,3.018-5.814,3.896s-4.827,1.316-7.57,1.316h-13.44h-4.663v-1.098c0-0.604,0.385-0.933,1.098-0.987h0.548
				c0.273,0,0.659-0.056,1.207-0.056c0.549,0,1.151-0.055,1.81-0.055v-34.449c-0.658,0-1.261-0.055-1.81-0.055
				c-0.548,0-0.934-0.056-1.207-0.056h-0.548c-0.713-0.055-1.098-0.384-1.098-0.986v-1.043h4.663h13.44
				c2.743,0,5.321,0.438,7.57,1.316c2.249,0.877,4.169,2.193,5.814,3.896c1.646,1.7,2.907,3.675,3.785,6.089
				C602.792,419.786,603.286,422.475,603.286,425.438z M600.379,425.438c0-2.688-0.384-5.103-1.152-7.241
				c-0.768-2.14-1.755-3.896-3.125-5.375c-1.372-1.481-3.018-2.578-4.938-3.348c-1.92-0.768-4.06-1.15-6.418-1.15h-10.643v34.284
				h10.643c2.357,0,4.498-0.385,6.418-1.152s3.565-1.864,4.938-3.346c1.37-1.481,2.358-3.236,3.125-5.376
				C599.995,430.593,600.379,428.18,600.379,425.438z"/>
			<path style="&st10;" d="M641.959,443.594v1.263h-1.81h-1.098h-1.042h-0.384h-5.156v-1.263c0-0.713,0.438-1.042,1.262-1.097
				c0.055,0,0.165-0.056,0.328-0.056c0.164,0,0.439-0.056,0.823-0.056s0.823,0,1.371-0.055l-3.84-9.49l-0.274-0.713h-18.541
				l-0.273,0.713l-3.84,9.49c0.549,0.055,1.042,0.055,1.426,0.055s0.604,0.056,0.768,0.056s0.274,0.056,0.329,0.056
				c0.823,0.055,1.262,0.384,1.262,1.097v1.263h-5.155h-0.384h-0.987h-1.152h-1.755v-1.263c0-0.658,0.329-1.042,1.042-1.097
				l1.755-0.165l14.866-36.314h2.797l14.812,36.314l1.81,0.165C641.631,442.552,641.959,442.936,641.959,443.594z M614.477,430.045
				h16.841l-7.681-18.926c-0.109-0.329-0.273-0.658-0.384-1.042s-0.273-0.769-0.384-1.207c-0.109,0.438-0.274,0.823-0.384,1.207
				c-0.11,0.384-0.274,0.768-0.384,1.097L614.477,430.045z"/>
			<path style="&st10;" d="M691.439,408.103c-0.274,0-0.714,0.056-1.263,0.056s-1.098,0.055-1.756,0.055v34.449
				c0.658,0,1.207,0.055,1.756,0.055s0.987,0.055,1.263,0.055h0.493c0.714,0.057,1.098,0.386,1.098,0.988v1.098h-4.608h-2.469
				h-4.771v-1.098c0-0.604,0.385-0.933,1.098-0.988h0.549c0.273,0,0.713-0.055,1.262-0.055c0.548,0,1.206-0.055,1.864-0.055v-30.884
				c0-0.493,0-0.987,0.056-1.535l-15.25,27.153c-0.273,0.492-0.604,0.713-1.097,0.713h-0.438c-0.438,0-0.822-0.221-1.098-0.713
				l-15.688-27.153c0.055,0.548,0.055,1.042,0.055,1.535v30.884c0.658,0,1.316,0.055,1.865,0.055s0.985,0.055,1.262,0.055h0.549
				c0.713,0.057,1.097,0.386,1.097,0.988v1.098h-4.771h-2.414h-4.662v-1.098c0-0.604,0.384-0.933,1.098-0.988h0.549
				c0.273,0,0.658-0.055,1.206-0.055c0.549,0,1.151-0.055,1.811-0.055v-34.449c-0.658,0-1.262-0.055-1.811-0.055
				c-0.548,0-0.933-0.056-1.206-0.056h-0.549c-0.714-0.055-1.098-0.384-1.098-0.986v-1.043h4.662h1.92c0.274,0,0.439,0,0.604,0.056
				c0.164,0.055,0.273,0.219,0.438,0.438l15.688,26.988c0.274,0.493,0.494,1.042,0.714,1.646c0.108-0.274,0.22-0.604,0.329-0.878
				c0.108-0.274,0.219-0.549,0.384-0.823l15.25-26.934c0.165-0.221,0.274-0.385,0.438-0.438c0.165-0.056,0.33-0.056,0.604-0.056
				h1.975h4.608v1.043c0,0.604-0.384,0.933-1.097,0.987L691.439,408.103L691.439,408.103z"/>
			<path style="&st10;" d="M724.846,406.072v2.305v5.705h-1.371c-0.768,0-1.098-0.439-1.151-1.317c0-0.493-0.109-1.975-0.219-4.388
				h-17.72v15.688h15.47v2.249h-15.47v16.183h17.72c0-0.494,0.055-1.043,0.108-1.865c0.055-0.823,0.055-1.372,0.055-1.756
				s0.056-0.604,0.056-0.713c0.055-0.878,0.385-1.371,1.151-1.371h1.371v5.705v2.357h-23.259h-4.606v-1.097
				c0-0.604,0.328-0.933,1.042-0.988h0.549c0.272,0,0.658-0.055,1.207-0.055c0.548,0,1.15-0.055,1.81-0.055v-34.449
				c-0.658,0-1.262-0.055-1.81-0.055c-0.55,0-0.935-0.056-1.207-0.056h-0.549c-0.714-0.055-1.099-0.384-1.099-0.986v-1.043h4.663
				L724.846,406.072L724.846,406.072z"/>
			<path style="&st10;" d="M768.895,406.072v1.043c0,0.604-0.383,0.933-1.097,0.986h-0.493c-0.274,0-0.713,0.056-1.262,0.056
				s-1.098,0.055-1.756,0.055v36.645h-1.371c-0.439,0-0.713-0.165-0.988-0.55l-25.231-33.681c0.055,0.548,0.055,1.097,0.055,1.591
				v30.444c0.658,0,1.262,0.055,1.812,0.055c0.548,0,1.041,0.055,1.315,0.055h0.549c0.713,0.057,1.097,0.386,1.097,0.988v1.097
				h-4.771h-2.414h-4.662v-1.097c0-0.604,0.385-0.933,1.098-0.988h0.549c0.273,0,0.658-0.055,1.206-0.055
				c0.549,0,1.151-0.055,1.811-0.055v-34.449c-0.658,0-1.262-0.055-1.811-0.055c-0.548,0-0.933-0.056-1.206-0.056h-0.549
				c-0.713-0.055-1.098-0.384-1.098-0.986v-1.099h4.662h1.371c0.275,0,0.439,0.056,0.604,0.11s0.273,0.219,0.438,0.438
				l25.123,33.626c-0.055-0.549-0.055-1.098-0.055-1.592v-30.39c-0.658,0-1.316-0.055-1.865-0.055c-0.548,0-0.986-0.056-1.262-0.056
				h-0.548c-0.715-0.055-1.098-0.384-1.098-0.986v-1.043h4.771h2.469h4.606V406.072z"/>
			<path style="&st10;" d="M801.424,406.072v8.01h-1.315c-0.769,0-1.152-0.439-1.207-1.317c0-0.108-0.056-1.534-0.22-4.333h-11.301
				v34.229c0.658,0,1.262,0.055,1.812,0.055c0.549,0,0.932,0.056,1.206,0.056h0.55c0.713,0.056,1.096,0.385,1.096,0.987v1.098
				h-4.662h-2.797h-4.608v-1.098c0-0.604,0.385-0.933,1.098-0.987h0.494c0.272,0,0.713-0.056,1.262-0.056s1.098-0.055,1.756-0.055
				v-34.229h-11.354c-0.109,2.523-0.221,3.949-0.221,4.333c-0.055,0.878-0.384,1.317-1.15,1.317h-1.372v-8.01h0.384h0.823h28.579
				h0.769H801.424z"/>
			<path style="&st10;" d="M838.67,443.594v1.263h-1.81h-1.098h-1.043h-0.384h-5.156v-1.263c0-0.713,0.438-1.042,1.262-1.097
				c0.056,0,0.164-0.056,0.33-0.056c0.164,0,0.438-0.056,0.821-0.056c0.386,0,0.823,0,1.371-0.055l-3.84-9.49l-0.273-0.713H810.31
				l-0.273,0.713l-3.841,9.49c0.549,0.055,1.043,0.055,1.427,0.055s0.604,0.056,0.769,0.056c0.164,0,0.273,0.056,0.328,0.056
				c0.823,0.055,1.262,0.384,1.262,1.097v1.263h-5.155h-0.384h-0.987h-1.152h-1.755v-1.263c0-0.658,0.329-1.042,1.042-1.097
				l1.756-0.165l14.865-36.314h2.798l14.813,36.314l1.81,0.165C838.342,442.552,838.67,442.936,838.67,443.594z M811.188,430.045
				h16.842l-7.681-18.926c-0.109-0.329-0.273-0.658-0.384-1.042c-0.109-0.384-0.273-0.769-0.385-1.207
				c-0.109,0.438-0.273,0.823-0.383,1.207c-0.11,0.384-0.275,0.768-0.385,1.097L811.188,430.045z"/>
			<path style="&st10;" d="M867.359,437.614h1.098v4.005v2.194v1.042h-0.494h-0.493h-20.681h-4.662v-1.098
				c0-0.604,0.384-0.933,1.098-0.988h0.549c0.273,0,0.658-0.055,1.205-0.055c0.55,0,1.152-0.055,1.812-0.055v-34.449
				c-0.658,0-1.262-0.055-1.812-0.055c-0.547,0-0.932-0.056-1.205-0.056h-0.549c-0.714-0.055-1.098-0.384-1.098-0.986v-1.043h4.662
				h2.798h4.608v1.043c0,0.604-0.385,0.933-1.099,0.986h-0.493c-0.273,0-0.714,0.056-1.263,0.056c-0.548,0-1.097,0.055-1.755,0.055
				v34.229h16.018c0.057-0.769,0.11-1.427,0.165-1.921c0.056-0.492,0.056-0.877,0.109-1.097s0.055-0.438,0.055-0.494
				c0.056-0.877,0.386-1.315,1.152-1.315L867.359,437.614L867.359,437.614z"/>
			<path style="&st10;" d="M895.939,433.5c0,1.646-0.275,3.182-0.823,4.608c-0.549,1.426-1.427,2.688-2.47,3.729
				c-1.041,1.042-2.357,1.92-3.895,2.522c-1.536,0.604-3.292,0.933-5.267,0.933c-3.62,0-7.076-0.713-10.423-2.139v-0.714v-0.714
				v-7.239h1.316c0.768,0,1.152,0.438,1.207,1.315c0,0.056,0,0.385,0.055,0.987c0.056,0.603,0.056,1.316,0.109,2.194
				c0.055,0.877,0.055,1.699,0.109,2.468c2.085,0.987,4.662,1.48,7.734,1.48c1.536,0,2.907-0.165,4.114-0.657
				c1.207-0.438,2.248-1.099,3.072-1.92c0.821-0.823,1.426-1.757,1.864-2.854c0.438-1.097,0.657-2.304,0.657-3.564
				c0-1.371-0.273-2.523-0.823-3.401c-0.548-0.878-1.262-1.591-2.192-2.194c-0.933-0.604-1.976-1.15-3.127-1.536
				c-1.207-0.384-2.359-0.768-3.565-1.15c-1.207-0.384-2.469-0.823-3.62-1.316c-1.151-0.494-2.14-1.043-3.071-1.811
				c-0.933-0.769-1.701-1.646-2.249-2.743c-0.55-1.098-0.823-2.522-0.823-4.169c0-1.316,0.22-2.578,0.713-3.784
				c0.494-1.207,1.262-2.25,2.195-3.182c0.932-0.934,2.084-1.646,3.51-2.194c1.427-0.549,3.018-0.823,4.828-0.823
				c3.236,0,6.527,0.77,9.981,2.249v7.954h-1.315c-0.769,0-1.098-0.493-1.151-1.371c0-0.273-0.11-2.03-0.273-5.156
				c-2.194-0.933-4.607-1.372-7.24-1.372c-1.427,0-2.634,0.221-3.73,0.604c-1.098,0.384-1.975,0.933-2.688,1.646
				c-0.714,0.715-1.263,1.481-1.646,2.414c-0.384,0.934-0.604,1.865-0.604,2.854c0,1.315,0.33,2.413,0.878,3.291
				c0.549,0.878,1.262,1.591,2.193,2.193c0.933,0.604,1.976,1.098,3.128,1.536c1.151,0.385,2.357,0.822,3.564,1.207
				c1.206,0.385,2.468,0.822,3.62,1.316c1.152,0.493,2.141,1.097,3.072,1.81c0.933,0.714,1.7,1.701,2.249,2.743
				C895.664,430.593,895.939,431.909,895.939,433.5z"/>
		</g>
	</g>
</g>
<g>
	<g>
		<rect x="299.695" y="340.073" width="41.229" height="4"/>
	</g>
	<g>
		<rect x="299.695" y="349.983" width="41.229" height="4"/>
	</g>
	<g>
		<polygon points="286.892,351.946 281.741,347.184 284.458,344.246 286.449,346.089 292.888,338.017 296.015,340.511 		"/>
	</g>
	<g>
		<rect x="299.695" y="364.335" width="41.229" height="4"/>
	</g>
	<g>
		<rect x="299.695" y="374.246" width="41.229" height="4"/>
	</g>
	<g>
		<polygon points="286.892,376.209 281.742,371.447 284.457,368.51 286.449,370.352 292.888,362.279 296.015,364.773 		"/>
	</g>
</g>
<g>
	<g>
		<path style="&st1;" d="M479.146,543.699H306.848c-7.632,0-13.841-6.209-13.841-13.842c0-7.634,6.209-13.843,13.841-13.843h57.371
			v4.126h-57.371c-5.356,0-9.714,4.358-9.714,9.717c0,5.357,4.357,9.716,9.714,9.716h172.298V543.699L479.146,543.699z"/>
	</g>
	<line style="&st5;" x1="477.907" y1="618.521" x2="468.009" y2="618.521"/>
	<path style="&st4;" d="M416.753,599.445v-16.197c0-2.471,2-4.473,4.471-4.473l0,0c2.471,0,4.476,2.002,4.476,4.473v16.197"/>
	<path style="&st4;" d="M425.854,599.445v-25.91c0-2.471,2-4.473,4.472-4.473l0,0c2.47,0,4.475,2.002,4.475,4.473v25.91"/>
	<path style="&st4;" d="M434.952,599.445v-30.492c0-2.469,2.004-4.473,4.475-4.473l0,0c2.472,0,4.474,2.004,4.474,4.473v30.492"/>
	<path style="&st4;" d="M444.056,599.445v-22.752c0-2.472,2-4.474,4.472-4.474l0,0c2.471,0,4.475,2.002,4.475,4.474v22.752"/>
	<g>
		<path style="&st1;" d="M539.175,565.533h-6.28v-4.125h6.28c4.882,0,8.854-3.974,8.854-8.855c0-4.881-3.973-8.854-8.854-8.854
			h-61.896v-4.126h61.896c7.158,0,12.98,5.823,12.98,12.979C552.155,559.711,546.333,565.533,539.175,565.533z"/>
	</g>
	<g>
		<path style="&st4;" d="M529.188,606.938c0,1.162-0.942,2.104-2.104,2.104H413.304c-1.157,0-2.103-0.942-2.103-2.104v-54.682
			c0-1.162,0.943-2.103,2.103-2.103h113.779c1.161,0,2.104,0.939,2.104,2.103V606.938z"/>
		<path style="&st4;" d="M527.083,609.543H413.304c-1.435,0-2.603-1.168-2.603-2.604v-54.683c0-1.435,1.168-2.603,2.603-2.603
			h113.779c1.436,0,2.604,1.168,2.604,2.603v54.683C529.688,608.375,528.519,609.543,527.083,609.543z M413.304,550.654
			c-0.884,0-1.603,0.719-1.603,1.603v54.683c0,0.884,0.719,1.604,1.603,1.604h113.779c0.884,0,1.604-0.721,1.604-1.604v-54.683
			c0-0.884-0.721-1.603-1.604-1.603H413.304z"/>
	</g>
	<g>
		<path d="M408.819,547.895c-2.555,0-4.632,1.957-4.632,4.362v54.683c0,2.405,2.077,4.363,4.632,4.363h120.784
			c2.555,0,4.634-1.958,4.634-4.363v-54.683c0-2.405-2.079-4.362-4.634-4.362H408.819z M529.438,606.782h-120.45v-54.368h120.45
			V606.782z M409.783,606.032h118.858v-52.868H409.783V606.032z"/>
	</g>
	<polygon style="&st4;" points="409,607 529,607 529,553.009 409,552.414 	"/>
	<g>
		<g>
			<g>
				<line style="&st5;" x1="419.021" y1="560.842" x2="428.042" y2="560.842"/>
				<rect x="419.021" y="558.207" style="&st0;" width="9.021" height="5.27"/>
			</g>
			<g>
				<line style="&st5;" x1="432.072" y1="560.842" x2="441.091" y2="560.842"/>
				<rect x="432.072" y="558.207" style="&st0;" width="9.019" height="5.27"/>
			</g>
			<g>
				<line style="&st5;" x1="445.119" y1="560.842" x2="454.141" y2="560.842"/>
				<rect x="445.119" y="558.207" style="&st0;" width="9.021" height="5.27"/>
			</g>
			<g>
				<line style="&st5;" x1="458.168" y1="560.842" x2="467.189" y2="560.842"/>
				<rect x="458.168" y="558.207" style="&st0;" width="9.021" height="5.27"/>
			</g>
			<g>
				<line style="&st5;" x1="471.22" y1="560.842" x2="480.239" y2="560.842"/>
				<rect x="471.22" y="558.207" style="&st0;" width="9.021" height="5.27"/>
			</g>
			<g>
				<line style="&st5;" x1="484.27" y1="560.842" x2="493.288" y2="560.842"/>
				<rect x="484.27" y="558.207" style="&st0;" width="9.02" height="5.27"/>
			</g>
			<g>
				<line style="&st5;" x1="497.315" y1="560.842" x2="506.335" y2="560.842"/>
				<rect x="497.315" y="558.207" style="&st0;" width="9.02" height="5.27"/>
			</g>
			<g>
				<line style="&st5;" x1="510.367" y1="560.842" x2="519.385" y2="560.842"/>
				<rect x="510.367" y="558.207" style="&st0;" width="9.018" height="5.27"/>
			</g>
		</g>
		<g>
			<g>
				<line style="&st5;" x1="419.021" y1="572.913" x2="428.042" y2="572.913"/>
				<rect x="419.021" y="570.277" style="&st0;" width="9.021" height="5.271"/>
			</g>
			<g>
				<line style="&st5;" x1="432.072" y1="572.913" x2="441.091" y2="572.913"/>
				<rect x="432.072" y="570.277" style="&st0;" width="9.019" height="5.271"/>
			</g>
			<g>
				<line style="&st5;" x1="445.119" y1="572.913" x2="454.141" y2="572.913"/>
				<rect x="445.119" y="570.277" style="&st0;" width="9.021" height="5.271"/>
			</g>
			<g>
				<line style="&st5;" x1="458.168" y1="572.913" x2="467.189" y2="572.913"/>
				<rect x="458.168" y="570.277" style="&st0;" width="9.021" height="5.271"/>
			</g>
			<g>
				<line style="&st5;" x1="471.22" y1="572.913" x2="480.239" y2="572.913"/>
				<rect x="471.22" y="570.277" style="&st0;" width="9.021" height="5.271"/>
			</g>
			<g>
				<line style="&st5;" x1="484.27" y1="572.913" x2="493.288" y2="572.913"/>
				<rect x="484.27" y="570.277" style="&st0;" width="9.02" height="5.271"/>
			</g>
			<g>
				<line style="&st5;" x1="497.315" y1="572.913" x2="506.335" y2="572.913"/>
				<rect x="497.315" y="570.277" style="&st0;" width="9.02" height="5.271"/>
			</g>
			<g>
				<line style="&st5;" x1="510.367" y1="572.913" x2="519.385" y2="572.913"/>
				<rect x="510.367" y="570.277" style="&st0;" width="9.018" height="5.271"/>
			</g>
		</g>
		<g>
			<g>
				<line style="&st5;" x1="419.021" y1="584.98" x2="428.042" y2="584.98"/>
				<rect x="419.021" y="582.346" style="&st0;" width="9.021" height="5.271"/>
			</g>
			<g>
				<line style="&st5;" x1="432.072" y1="584.98" x2="441.091" y2="584.98"/>
				<rect x="432.072" y="582.346" style="&st0;" width="9.019" height="5.271"/>
			</g>
			<g>
				<line style="&st5;" x1="445.119" y1="584.98" x2="454.141" y2="584.98"/>
				<rect x="445.119" y="582.346" style="&st0;" width="9.021" height="5.271"/>
			</g>
			<g>
				<line style="&st5;" x1="458.168" y1="584.98" x2="467.189" y2="584.98"/>
				<rect x="458.168" y="582.346" style="&st0;" width="9.021" height="5.271"/>
			</g>
			<g>
				<line style="&st5;" x1="471.22" y1="584.98" x2="480.239" y2="584.98"/>
				<rect x="471.22" y="582.346" style="&st0;" width="9.021" height="5.271"/>
			</g>
			<g>
				<line style="&st5;" x1="484.27" y1="584.98" x2="493.288" y2="584.98"/>
				<rect x="484.27" y="582.346" style="&st0;" width="9.02" height="5.271"/>
			</g>
			<g>
				<line style="&st5;" x1="497.315" y1="584.98" x2="506.335" y2="584.98"/>
				<rect x="497.315" y="582.346" style="&st0;" width="9.02" height="5.271"/>
			</g>
			<g>
				<line style="&st5;" x1="510.367" y1="584.98" x2="519.385" y2="584.98"/>
				<rect x="510.367" y="582.346" style="&st0;" width="9.018" height="5.271"/>
			</g>
		</g>
		<g>
			<g>
				<line style="&st5;" x1="419.021" y1="597.047" x2="428.042" y2="597.047"/>
				<rect x="419.021" y="594.412" style="&st0;" width="9.021" height="5.27"/>
			</g>
			<g>
				<line style="&st5;" x1="432.072" y1="597.047" x2="441.091" y2="597.047"/>
				<rect x="432.072" y="594.412" style="&st0;" width="9.019" height="5.27"/>
			</g>
			<g>
				<line style="&st5;" x1="445.119" y1="597.047" x2="493.408" y2="597.047"/>
				<rect x="445.119" y="594.412" style="&st0;" width="48.289" height="5.27"/>
			</g>
			<g>
				<line style="&st5;" x1="497.315" y1="597.047" x2="506.335" y2="597.047"/>
				<rect x="497.315" y="594.412" style="&st0;" width="9.02" height="5.27"/>
			</g>
			<g>
				<line style="&st5;" x1="510.367" y1="597.047" x2="519.385" y2="597.047"/>
				<rect x="510.367" y="594.412" style="&st0;" width="9.018" height="5.27"/>
			</g>
		</g>
	</g>
	<g>
		<path style="&st4;" d="M526.452,601.068c0-2.468-2-4.466-4.463-4.466c-2.465,0-4.465,0.884-4.465,3.347v-1.113
			c0-2.467-1.996-4.465-4.462-4.465c-2.463,0-4.461,1.998-4.461,4.465v-2.232c0-2.465-2-4.463-4.463-4.463
			c-2.467,0-4.461,1.998-4.461,4.463v2.509c0-6.039-0.041-25.707-0.041-25.707c0-2.545-2.069-4.615-4.619-4.615
			c-2.551,0-4.614,2.07-4.614,4.615l-0.025,45.104l-0.092-2.197v-9.223c0-3.766-3.047-6.813-6.818-6.813h-2.27
			c-0.101,0,0.094,0.008,0,0.016v8.531c0.012,0-0.02,0.004,0,0.008v11.32l12.922,15.034c1.492,1.418,3.348,2.447,5.41,2.951v9.146
			h22.317v-11.188c2.929-2.188,4.826-5.67,4.826-9.602v-20.828L526.452,601.068z"/>
		<path d="M523.849,649.283H497.53v-9.67c-1.775-0.656-3.41-1.668-4.787-2.978l-0.142-0.146l-13.403-15.599l0.084-22.616h4.186
			c1.82,0,3.515,0.555,4.92,1.502l0.017-26.373c0-3.648,2.967-6.615,6.615-6.615c3.647,0,6.618,2.967,6.618,6.615l0,0
			c0,0,0.021,9.424,0.031,17.229c0.762-0.315,1.596-0.492,2.471-0.492c2.363,0,4.437,1.275,5.563,3.177
			c0.979-0.601,2.131-0.945,3.361-0.945c2.252,0,4.239,1.158,5.396,2.912c0.919-0.426,2.083-0.68,3.529-0.68
			c3.563,0,6.463,2.899,6.463,6.465l0.221,4.502l0.002,20.924c0,4.104-1.747,7.896-4.826,10.559V649.283L523.849,649.283z
			 M501.53,645.283h18.317v-10.189l0.804-0.602c2.557-1.91,4.022-4.824,4.022-7.998v-20.828l-0.221-4.5
			c-0.002-1.457-1.107-2.563-2.465-2.563c-2.465,0-2.465,0.907-2.465,1.346h-4v-1.113c0-1.359-1.104-2.465-2.462-2.465
			c-1.356,0-2.461,1.104-2.461,2.465h-4v-2.231c0-1.357-1.104-2.464-2.463-2.464c-1.357,0-2.461,1.105-2.461,2.464l-0.004,2.493
			l-3.996,0.015v-0.006c0-6.07-0.041-25.697-0.041-25.697c0-1.445-1.176-2.619-2.619-2.619c-1.442,0-2.614,1.174-2.614,2.615
			l-0.025,45.106l-3.999,0.082l-0.091-2.197l-0.002-9.307c0-2.654-2.162-4.813-4.818-4.813h-0.27v6.401v1.58v9.152l12.369,14.393
			c1.246,1.16,2.778,1.986,4.438,2.392l1.525,0.37L501.53,645.283L501.53,645.283z"/>
		<rect x="489.815" y="642.631" style="&st3;" width="45.422" height="18.369"/>
	</g>
	<g>
		<path style="&st4;" d="M413.753,581.563v44.933c0,3.932,1.896,7.414,4.822,9.602v11.188h10.674h11.645v-9.146
			c2.063-0.504,3.921-1.533,5.412-2.951l12.922-15.034v-11.32c0.019-0.004-0.012-0.008,0-0.008v-8.531
			c-0.094-0.008,0.1-0.016,0-0.016h-2.27c-3.771,0-6.82,3.049-6.82,6.813v9.224l-0.092,2.196l-0.022-18.557l-0.021-23.26l-3.78-3.78
			h-5.165l-1.749-7.38l-6.066-1.053l-2.125,6.02l-5.875-1.125L423.364,575l-0.511,5.963l-4.631-2.188L413.753,581.563z"/>
		<path d="M442.895,649.283h-26.318v-12.232c-3.078-2.66-4.822-6.453-4.822-10.557v-27.209h4v27.209c0,3.174,1.465,6.09,4.021,8
			l0.803,0.6v10.189h18.317v-8.719l1.525-0.371c1.659-0.404,3.191-1.23,4.439-2.392l12.369-14.393v-9.15v-1.58v-6.403h-0.271
			c-2.658,0-4.82,2.159-4.82,4.813v9.224l-0.094,2.28l-3.998-0.082l-0.022-19.225l4-0.004l0.002,0.504
			c1.407-0.955,3.106-1.512,4.934-1.512h4.155l0.114,22.616l-13.546,15.744c-1.379,1.31-3.012,2.32-4.788,2.978V649.283z"/>
		<path d="M424.698,599.445h-4v-16.197c0-1.363-1.111-2.473-2.476-2.473c-1.363,0-2.471,1.108-2.471,2.473v16.197h-4v-16.197
			c0-3.57,2.902-6.473,6.471-6.473c3.57,0,6.476,2.901,6.476,6.473V599.445z"/>
		<path d="M433.8,599.445h-4v-25.91c0-1.363-1.11-2.473-2.475-2.473s-2.472,1.108-2.472,2.473v25.91h-4v-25.91
			c0-3.57,2.902-6.473,6.472-6.473s6.475,2.901,6.475,6.473V599.445z"/>
		<path d="M442.899,599.445h-4v-30.492c0-1.363-1.109-2.473-2.474-2.473c-1.363,0-2.475,1.108-2.475,2.473v30.492h-4v-30.492
			c0-3.568,2.904-6.473,6.475-6.473c3.568,0,6.474,2.903,6.474,6.473V599.445z"/>
		<path d="M452.001,599.445h-4v-22.752c0-1.363-1.111-2.474-2.475-2.474c-1.364,0-2.472,1.109-2.472,2.474v22.752h-4v-22.752
			c0-3.568,2.902-6.474,6.472-6.474c3.568,0,6.475,2.904,6.475,6.474V599.445z"/>
		<rect x="405.188" y="642.631" style="&st3;" width="45.422" height="18.369"/>
	</g>
</g>
<g>
	<polygon style="&st2;" points="659,533 659,514 640.042,514 	"/>
	<g>
		<g>
			<polygon style="&st9;" points="584.913,596.912 660.731,596.912 660.731,541.217 660.731,513.297 640.725,493.287 
				584.913,493.287 584.913,513.958 584.913,541.217 			"/>
			<g>
				<polygon points="640.042,514.087 660.731,514.087 640.042,493.287 				"/>
			</g>
		</g>
	</g>
	<line style="&st11;" x1="593.579" y1="517.654" x2="627.76" y2="517.654"/>
	<line style="&st11;" x1="593.142" y1="532.798" x2="649.994" y2="532.798"/>
	<line style="&st11;" x1="593.142" y1="540.367" x2="649.994" y2="540.367"/>
	<line style="&st11;" x1="593.142" y1="547.939" x2="649.994" y2="547.939"/>
	<line style="&st11;" x1="593.142" y1="555.652" x2="649.643" y2="555.652"/>
	<line style="&st11;" x1="633.3" y1="567.166" x2="649.643" y2="567.166"/>
</g>
<g>
	<g>
		<g>
			<path style="&st4;" d="M676.407,592.891v3.267c0,0.403,0.331,0.727,0.741,0.727h5.27c0.413,0,0.745-0.322,0.745-0.727v-3.267"/>
			<path d="M674.588,596.156v-3.267h3.639v2.175h3.117v-2.175h3.64v3.267c0,1.403-1.15,2.545-2.564,2.545h-5.271
				C675.736,598.701,674.588,597.561,674.588,596.156z"/>
		</g>
		<g>
			<polygon points="674.588,516.049 674.588,514.238 679.779,502.785 684.973,514.238 684.973,516.049 681.334,516.049 
				681.334,515.025 679.779,511.596 678.227,515.023 678.227,516.049 			"/>
		</g>
		<rect x="674.519" y="514.844" style="&st6;" width="10.532" height="67.986"/>
		<rect x="674.517" y="585.42" style="&st3;" width="10.532" height="7.48"/>
		<g>
			<rect x="674.517" y="582.174" width="10.534" height="3.639"/>
		</g>
	</g>
</g>
<g>
	<g>
		<path style="&st4;" d="M841.069,589.827l0.002-10.372l-9.22-0.768c-0.646-3.395-1.895-6.572-3.637-9.421l6.158-7.275l-7.334-7.335
			l-7.061,5.975c-2.767-1.881-5.886-3.278-9.232-4.084l-0.793-9.504h-10.371l-0.768,9.219c-3.396,0.646-6.574,1.896-9.42,3.638
			l-7.275-6.158l-7.336,7.333l5.975,7.062c-1.881,2.766-3.279,5.883-4.084,9.231l-9.504,0.793l-0.002,10.371l9.221,0.769
			c0.646,3.395,1.894,6.572,3.638,9.418l-6.158,7.278l7.334,7.334l7.059-5.974c2.767,1.881,5.884,3.278,9.232,4.083l0.793,9.505
			h10.373l0.768-9.221c3.394-0.646,6.572-1.894,9.418-3.636l7.277,6.158l7.336-7.334l-5.975-7.06
			c1.881-2.768,3.278-5.886,4.084-9.233L841.069,589.827z"/>
		<path d="M810.499,622.943h-14.053l-0.828-9.936c-2.531-0.736-4.941-1.8-7.195-3.171l-7.334,6.207l-9.938-9.937l6.438-7.608
			c-1.266-2.31-2.217-4.765-2.84-7.331l-9.58-0.799l0.002-14.051l9.935-0.829c0.737-2.532,1.801-4.942,3.172-7.193l-6.209-7.337
			l9.938-9.936l7.605,6.438c2.311-1.266,4.768-2.218,7.332-2.841l0.797-9.578h14.053l0.83,9.934c2.533,0.74,4.943,1.804,7.193,3.173
			l7.336-6.208l9.936,9.938l-6.438,7.605c1.266,2.312,2.219,4.769,2.842,7.333l9.578,0.797l-0.002,14.053l-9.933,0.828
			c-0.738,2.531-1.801,4.94-3.172,7.193l6.209,7.336l-9.939,9.938l-7.606-6.438c-2.312,1.266-4.766,2.217-7.33,2.84L810.499,622.943
			z M800.126,618.943h6.693l0.739-8.9l1.494-0.284c3.109-0.592,6.053-1.728,8.748-3.377l1.232-0.754l6.977,5.902l4.732-4.731
			l-5.769-6.813l0.854-1.258c1.777-2.615,3.055-5.502,3.793-8.576l0.338-1.405l9.109-0.759l0.002-6.691l-8.9-0.741l-0.283-1.493
			c-0.594-3.11-1.729-6.055-3.379-8.75l-0.754-1.231l5.902-6.977l-4.73-4.73l-6.814,5.768l-1.258-0.854
			c-2.61-1.775-5.496-3.053-8.573-3.793l-1.406-0.338l-0.76-9.11h-6.691l-0.74,8.899l-1.493,0.283
			c-3.113,0.594-6.058,1.729-8.748,3.378l-1.232,0.755l-6.977-5.902l-4.732,4.729l5.768,6.816l-0.854,1.257
			c-1.777,2.613-3.053,5.497-3.793,8.574l-0.338,1.405l-9.109,0.76l-0.002,6.69l8.902,0.741l0.282,1.493
			c0.593,3.113,1.729,6.057,3.377,8.747l0.757,1.233l-5.904,6.977l4.731,4.73l6.814-5.767l1.256,0.855
			c2.615,1.777,5.5,3.054,8.574,3.792l1.406,0.337L800.126,618.943z"/>
	</g>
	<circle style="&st12;" cx="804.121" cy="583.993" r="18.476"/>
	<g>
		<g>
			<path d="M806.069,587.081l-6.253-2.437c-2.569-1.636-3.11-3.46-3.11-4.701v-2.631c0-3.233,2.631-5.865,5.862-5.865h3.105
				c3.232,0,5.861,2.632,5.861,5.865v1.229h-4v-1.229c0-1.028-0.834-1.865-1.861-1.865h-3.105c-1.026,0-1.862,0.837-1.862,1.865
				v2.631c0,0.229,0.293,0.679,1.1,1.224l5.693,2.178L806.069,587.081z"/>
		</g>
		<g>
			<path d="M805.675,596.99h-3.104c-3.232,0-5.863-2.63-5.863-5.862v-1.231h4v1.231c0,1.027,0.836,1.862,1.863,1.862h3.104
				c1.027,0,1.861-0.835,1.861-1.862v-2.634c0-0.208-0.314-0.712-1.168-1.287l-5.424-2.089l1.438-3.732l5.976,2.344
				c2.629,1.67,3.18,3.514,3.18,4.766v2.634C811.536,594.36,808.907,596.99,805.675,596.99z"/>
		</g>
		<g>
			<line style="&st5;" x1="804.355" y1="568.156" x2="804.355" y2="573.93"/>
			<rect x="802.355" y="568.156" width="4" height="5.772"/>
		</g>
		<g>
			<line style="&st5;" x1="804.355" y1="594.058" x2="804.355" y2="599.831"/>
			<rect x="802.355" y="594.058" width="4" height="5.773"/>
		</g>
	</g>
</g>
<path style="&st3;" d="M873.482,611.197c-0.276-0.855-0.643-1.67-1.079-2.439l3.575-4.229l-4.7-4.701l-4.371,3.699
	c-0.787-0.4-1.619-0.726-2.488-0.961l-0.459-5.521h-6.649l-0.476,5.705c-0.854,0.279-1.67,0.643-2.438,1.082l-4.229-3.578
	l-4.699,4.703l3.697,4.371c-0.4,0.787-0.725,1.619-0.961,2.487l-5.521,0.462v6.646l5.705,0.477c0.281,0.854,0.646,1.671,1.084,2.438
	l-3.578,4.229l4.701,4.701l4.371-3.701c0.787,0.4,1.619,0.726,2.49,0.962l0.459,5.521h6.646l0.477-5.707
	c0.854-0.279,1.67-0.643,2.439-1.082l4.229,3.578l4.701-4.701l-3.699-4.371c0.4-0.789,0.723-1.621,0.961-2.487l5.52-0.461
	l-0.002-6.648L873.482,611.197z M867.294,615.299c0,3.51-2.846,6.357-6.354,6.357c-3.513,0-6.357-2.849-6.357-6.357
	s2.846-6.354,6.357-6.354C864.448,608.943,867.294,611.789,867.294,615.299z"/>
<g>
	<path d="M825.625,664.762c-4.268,0-7.738-3.473-7.738-7.739s3.473-7.738,7.738-7.738c4.268,0,7.739,3.473,7.739,7.738
		C833.364,661.289,829.893,664.762,825.625,664.762z M825.625,653.283c-2.063,0-3.738,1.678-3.738,3.738
		c0,2.063,1.678,3.739,3.738,3.739s3.739-1.678,3.739-3.739C829.364,654.961,827.688,653.283,825.625,653.283z"/>
</g>
<g>
	<g>
		<g>
			<rect x="845.989" y="310.609" style="&st4;" width="105.056" height="71.573"/>
			<path d="M952.99,384.128H844.044v-75.463H952.99V384.128z M847.936,380.238h101.166v-67.685H847.936V380.238z"/>
		</g>
		<rect x="853.36" y="317.982" style="&st2;" width="90.311" height="56.83"/>
		<rect x="892.064" y="312.613" style="&st12;" width="12.899" height="67.567"/>
		<g>
			<g>
				<path d="M889.689,348.773h-28.184c-10.521,0-17.322-7.914-17.322-20.162v-12.617h3.891v12.617
					c0,7.867,3.527,16.271,13.433,16.271h28.185v3.891H889.689z"/>
			</g>
			<g>
				<path d="M935.526,348.773h-27.405v-3.891h27.405c6.493,0,13.433-4.308,13.433-16.395v-12.616h3.89v12.616
					C952.849,340.622,945.887,348.773,935.526,348.773z"/>
			</g>
		</g>
		<g>
			<polygon points="924.263,309.258 920.372,309.258 920.372,298.877 876.656,298.877 876.656,309.258 872.768,309.258 
				872.768,294.986 924.263,294.986 			"/>
		</g>
		<g>
			<path style="&st4;" d="M884.879,261.222v4.349c-2.6,1.947-4.287,5.037-4.287,8.528v18.505l0.199,4.087
				c0,2.189,1.776,3.964,3.965,3.964c2.191,0,3.965-0.785,3.965-2.973v0.99c0,2.189,1.774,3.965,3.965,3.965
				c2.189,0,3.966-1.775,3.966-3.965v1.982c0,2.189,1.773,3.963,3.964,3.963c2.189,0,3.964-1.773,3.964-3.963v-2.23
				c0,1.869,1.874,3.816,4.138,3.816c2.268,0,4.099-1.843,4.099-4.102l0.024-16.944l0.08,1.952v8.191
				c0,3.347,2.709,6.055,6.06,6.055h2.016c0.088,0-0.082-0.008,0-0.014V289.8c-0.012,0,0.016-0.002,0-0.006v-10.059l-11.478-13.357
				c-1.327-1.255-2.978-2.175-4.813-2.621v-2.535"/>
			<path d="M900.614,306.563c-2.103,0-3.949-1.102-4.998-2.76c-0.865,0.496-1.866,0.779-2.933,0.779
				c-2.008,0-3.783-1.007-4.853-2.541c-0.816,0.351-1.832,0.558-3.076,0.558c-3.259,0-5.909-2.651-5.909-5.908l-0.197-3.993
				l-0.002-18.599c0-3.664,1.551-7.058,4.287-9.453v-6.424h3.891v8.323l-0.779,0.584c-2.229,1.667-3.508,4.208-3.508,6.97v18.505
				l0.196,3.992c0.003,1.207,0.907,2.113,2.021,2.113c2.021,0,2.021-0.695,2.021-1.027h3.889v0.99c0,1.113,0.905,2.02,2.021,2.02
				c1.112,0,2.021-0.906,2.021-2.02h3.89v1.982c0,1.113,0.906,2.019,2.021,2.019s2.019-0.905,2.019-2.019v-2.23h3.891
				c0,0.735,0.941,1.871,2.192,1.871c1.188,0,2.154-0.967,2.154-2.156l0.024-16.948l3.886-0.076l0.082,1.952l0.002,8.271
				c0,2.266,1.844,4.11,4.112,4.11h0.07v-5.493l-0.22-1.557l0.22-0.063v-7.881l-10.939-12.729c-1.091-1.011-2.426-1.73-3.863-2.08
				l-1.483-0.363v-7.062h3.89v4.107c1.556,0.591,2.986,1.487,4.203,2.636l0.138,0.146l11.946,13.902l0.053,12.233l-0.053,0.015
				v4.402l0.112,0.014l-0.112,2.201v1.314l-0.08,0.006l-0.007,0.137l-3.872,0.002c-1.547,0-2.992-0.441-4.22-1.204v0.007
				c0,3.332-2.711,6.044-6.043,6.044c-1.031,0-2.021-0.271-2.894-0.742C904.825,305.297,902.864,306.563,900.614,306.563z"/>
		</g>
		<g>
			<g>
				<g>
					<g>
						<rect x="901.511" y="310.931" width="3.892" height="24.411"/>
					</g>
					<g>
						<rect x="891.633" y="310.931" width="3.891" height="24.411"/>
					</g>
				</g>
				<g>
					<g>
						<rect x="901.511" y="358.131" width="3.892" height="23.184"/>
					</g>
					<g>
						<rect x="891.633" y="358.131" width="3.891" height="23.184"/>
					</g>
				</g>
				<g>
					<path d="M904.433,360.631h-11.834c-2.171,0-3.938-1.767-3.938-3.938v-18.758c0-2.171,1.767-3.938,3.938-3.938h11.834
						c2.171,0,3.937,1.767,3.937,3.938v18.758C908.368,358.864,906.604,360.631,904.433,360.631z M892.599,337.889l-0.047,18.806
						l11.881,0.047c0.027,0,0.046-0.021,0.046-0.047v-18.757L892.599,337.889z"/>
				</g>
				<g>
					<rect x="896.572" y="350.781" width="3.89" height="6.666"/>
				</g>
			</g>
		</g>
	</g>
	<g>
		<g>
			<g>
				<path style="&st6;" d="M773.411,297.667h-38.896v-70.282c0-50.113,40.733-90.883,90.802-90.883
					c50.103,0,90.863,40.77,90.863,90.883v32.637h-38.896v-32.637c0-28.665-23.314-51.986-51.968-51.986
					c-28.621,0-51.904,23.321-51.904,51.986L773.411,297.667L773.411,297.667z"/>
			</g>
		</g>
	</g>
</g>
<g>
	<g>
		<polygon points="838.872,217.258 829.078,207.467 831.906,204.639 838.872,211.602 868.781,181.691 882.002,194.908 
			915.104,161.805 917.931,164.633 882.002,200.564 868.781,187.348 		"/>
	</g>
	<g>
		<polygon points="920.455,181.848 916.455,181.848 916.455,164.619 899.225,164.619 899.225,160.619 920.455,160.619 		"/>
	</g>
</g>
<g>
	<g>
		<path style="&st6;" d="M828.99,464.248c-0.116,0-0.312,0.078-0.584,0.117c-0.273,0.038-0.664,0.116-1.131,0.193v20.477
			c0.467,0.078,0.856,0.156,1.131,0.195c0.273,0.038,0.468,0.116,0.584,0.116c0.117,0,0.195,0.039,0.233,0.039
			c0.664,0.156,0.977,0.546,0.977,1.209v2.302h-2.925h-4.643h-3.511v-2.302c0-0.663,0.313-1.053,0.976-1.209
			c0.078,0,0.938-0.117,2.535-0.352v-14.354c0-0.351,0.039-0.701,0.039-1.092c0-0.39,0.039-0.819,0.077-1.248l-8.502,15.991
			c-0.195,0.351-0.468,0.662-0.779,0.857c-0.313,0.194-0.664,0.313-1.092,0.313h-0.703c-0.429,0-0.778-0.117-1.092-0.313
			c-0.313-0.196-0.585-0.508-0.779-0.857l-8.618-16.03c0.038,0.43,0.038,0.858,0.076,1.248c0.039,0.391,0.039,0.78,0.039,1.131
			v14.354c1.639,0.233,2.457,0.352,2.535,0.352c0.663,0.156,0.977,0.546,0.977,1.209v2.302H801.3h-4.603h-2.963v-2.302
			c0-0.663,0.311-1.053,0.975-1.209c0.039,0,0.117,0,0.234-0.039c0.115-0.039,0.312-0.078,0.584-0.116
			c0.272-0.039,0.703-0.117,1.17-0.195V464.56c-0.467-0.077-0.896-0.155-1.17-0.193c-0.272-0.039-0.469-0.117-0.584-0.117
			c-0.117-0.039-0.195-0.039-0.234-0.039c-0.664-0.156-0.975-0.547-0.975-1.209v-2.302h2.963h3.938c0.234,0,0.47,0.039,0.624,0.039
			c0.156,0,0.352,0.039,0.469,0.078c0.155,0.039,0.233,0.155,0.352,0.271c0.117,0.117,0.234,0.273,0.352,0.469l8.424,15.641
			c0.234,0.429,0.391,0.857,0.586,1.286c0.193,0.43,0.39,0.896,0.585,1.364c0.194-0.468,0.352-0.896,0.546-1.364
			c0.193-0.468,0.39-0.896,0.624-1.325l8.346-15.602c0.117-0.194,0.195-0.352,0.313-0.469c0.117-0.116,0.233-0.232,0.391-0.271
			s0.313-0.078,0.468-0.078s0.352-0.039,0.585-0.039h3.979h2.925V463c0,0.662-0.313,1.053-0.977,1.209
			C829.186,464.209,829.107,464.248,828.99,464.248z"/>
		<path style="&st6;" d="M848.724,464.403c-0.429,0.429-1.131,0.663-2.146,0.663h-7.8l-1.016,5.89
			c1.287-0.273,2.457-0.39,3.511-0.39c1.481,0,2.77,0.232,3.899,0.661c1.132,0.431,2.068,1.054,2.849,1.835
			c0.779,0.778,1.364,1.676,1.756,2.729c0.389,1.054,0.545,2.185,0.545,3.394c0,1.481-0.233,2.848-0.779,4.096
			c-0.547,1.248-1.248,2.302-2.184,3.159c-0.938,0.856-2.029,1.561-3.316,2.026c-1.287,0.469-2.651,0.742-4.172,0.742
			c-0.898,0-1.756-0.078-2.535-0.273c-0.781-0.194-1.521-0.43-2.224-0.74c-0.703-0.312-1.365-0.663-1.95-1.054
			c-0.585-0.39-1.092-0.818-1.561-1.248l1.481-2.066c0.313-0.429,0.741-0.663,1.248-0.663c0.313,0,0.663,0.117,0.975,0.312
			c0.313,0.195,0.703,0.47,1.132,0.703c0.43,0.233,0.976,0.469,1.561,0.662c0.586,0.195,1.287,0.313,2.105,0.313
			c0.897,0,1.678-0.117,2.341-0.392c0.663-0.271,1.247-0.7,1.716-1.209c0.469-0.506,0.779-1.131,1.014-1.832
			c0.234-0.703,0.313-1.521,0.313-2.341c0-1.521-0.43-2.729-1.326-3.588c-0.896-0.858-2.224-1.287-3.939-1.287
			c-1.364,0-2.729,0.233-4.094,0.741l-3.004-0.858l2.34-13.688h13.924v2.066C849.387,463.468,849.152,463.975,848.724,464.403z"/>
		<path style="&st6;" d="M871.734,481.213c-0.547,1.795-1.248,3.315-2.186,4.485c-0.937,1.17-2.066,2.066-3.314,2.651
			s-2.613,0.858-4.097,0.858c-1.48,0-2.846-0.273-4.094-0.858s-2.302-1.481-3.238-2.651c-0.936-1.17-1.677-2.69-2.184-4.485
			c-0.507-1.794-0.779-3.979-0.779-6.436s0.272-4.603,0.779-6.396s1.248-3.314,2.184-4.484c0.938-1.171,1.99-2.066,3.238-2.652
			c1.248-0.585,2.612-0.857,4.094-0.857c1.482,0,2.849,0.272,4.097,0.857c1.248,0.586,2.379,1.481,3.314,2.652
			c0.937,1.17,1.639,2.69,2.186,4.484c0.545,1.794,0.778,3.938,0.778,6.396S872.279,479.419,871.734,481.213z M867.093,469.708
			c-0.312-1.326-0.702-2.419-1.21-3.198c-0.506-0.779-1.053-1.326-1.715-1.639c-0.664-0.313-1.326-0.468-2.029-0.468
			c-0.701,0-1.363,0.155-1.987,0.468s-1.209,0.857-1.718,1.639c-0.506,0.779-0.856,1.872-1.17,3.198
			c-0.312,1.325-0.467,3.042-0.467,5.069c0,2.028,0.155,3.744,0.467,5.069c0.313,1.326,0.664,2.418,1.17,3.199
			c0.509,0.779,1.094,1.364,1.718,1.676c0.624,0.313,1.286,0.509,1.987,0.509c0.703,0,1.365-0.195,2.029-0.509
			c0.662-0.312,1.209-0.856,1.715-1.637c0.508-0.781,0.898-1.912,1.21-3.238c0.313-1.325,0.429-3.041,0.429-5.069
			C867.521,472.75,867.404,471.033,867.093,469.708z"/>
		<path style="&st6;" d="M893.964,481.213c-0.546,1.795-1.248,3.315-2.185,4.485s-2.066,2.066-3.314,2.651s-2.613,0.858-4.096,0.858
			c-1.483,0-2.848-0.273-4.096-0.858c-1.247-0.585-2.302-1.481-3.236-2.651c-0.936-1.17-1.678-2.69-2.184-4.485
			c-0.509-1.794-0.781-3.979-0.781-6.436s0.272-4.603,0.781-6.396c0.506-1.794,1.247-3.314,2.184-4.484
			c0.936-1.171,1.989-2.066,3.236-2.652c1.248-0.585,2.612-0.857,4.096-0.857c1.482,0,2.848,0.272,4.096,0.857
			c1.248,0.586,2.379,1.481,3.314,2.652c0.937,1.17,1.639,2.69,2.185,4.484s0.78,3.938,0.78,6.396S894.51,479.419,893.964,481.213z
			 M889.322,469.708c-0.313-1.326-0.701-2.419-1.209-3.198s-1.053-1.326-1.717-1.639c-0.662-0.313-1.325-0.468-2.027-0.468
			c-0.701,0-1.365,0.155-1.988,0.468c-0.625,0.313-1.209,0.857-1.717,1.639c-0.507,0.779-0.857,1.872-1.17,3.198
			c-0.313,1.325-0.468,3.042-0.468,5.069c0,2.028,0.155,3.744,0.468,5.069c0.313,1.326,0.663,2.418,1.17,3.199
			c0.508,0.779,1.092,1.364,1.717,1.676c0.623,0.313,1.287,0.509,1.988,0.509c0.702,0,1.365-0.195,2.027-0.509
			c0.664-0.312,1.209-0.856,1.717-1.637c0.508-0.781,0.896-1.912,1.209-3.238c0.313-1.325,0.43-3.041,0.43-5.069
			C889.752,472.75,889.635,471.033,889.322,469.708z"/>
	</g>
</g>
<g>
	<g>
		<g>
			<path style="&st3;" d="M1050.844,450.35h-20.522c-0.144-1.939-0.576-4.465-1.802-6.089c-7.571-9.752-8.057-19.041-8.057-19.697
				c0-11.106,8.997-20.104,20.104-20.104c11.104,0,20.101,8.996,20.101,20.104c0,0.656-0.471,9.939-8.053,19.697
				C1051.395,445.885,1050.975,448.409,1050.844,450.35z"/>
			<g>
				<path style="&st4;" d="M1053.813,424.487h3.048c-0.002-8.943-7.312-16.22-16.294-16.22v3.05
					C1047.868,411.317,1053.811,417.226,1053.813,424.487z"/>
			</g>
			<g>
				<g>
					
						<rect x="1037.53" y="440.005" transform="matrix(0.1774 -0.9841 0.9841 0.1774 426.481 1392.6088)" width="17.479" height="2.375"/>
				</g>
				<g>
					
						<rect x="1033.681" y="432.548" transform="matrix(0.9841 -0.1775 0.1775 0.9841 -61.8888 190.6651)" width="2.372" height="17.481"/>
				</g>
			</g>
			<g>
				<polygon points="1035.266,435.993 1036.319,435.993 1038.183,435.069 1040.043,435.992 1041.099,435.992 1042.957,435.069 
					1044.814,435.992 1045.871,435.992 1048.258,434.807 1047.201,432.682 1045.343,433.605 1043.484,432.682 1042.428,432.682 
					1040.57,433.605 1038.71,432.682 1037.656,432.681 1035.791,433.605 1033.929,432.681 1032.873,434.807 				"/>
			</g>
			<g>
				<g>
					<rect x="1027.494" y="449.063" width="26.141" height="3.048"/>
				</g>
				<g>
					<rect x="1027.494" y="454.142" width="26.141" height="3.048"/>
				</g>
				<g>
					<rect x="1027.494" y="459.221" width="26.141" height="3.048"/>
				</g>
				<g>
					<rect x="1031.049" y="464.298" width="19.031" height="3.048"/>
				</g>
				<g>
					<rect x="1049.078" y="450.857" width="3.047" height="9.648"/>
				</g>
			</g>
		</g>
		<g>
			<path style="&st4;" d="M1033.41,489.731c0.17-5.381,4.367-12.039,10.611-14.413"/>
			<path d="M1034.934,489.779c0.147-4.665,3.789-10.815,9.631-13.036l-1.084-2.85c-7.028,2.673-11.413,10.126-11.593,15.788
				L1034.934,489.779z"/>
		</g>
		<g>
			<polyline style="&st4;" points="1057.214,479.048 1059.033,480.746 1041.736,496.395 			"/>
			<polygon points="1042.76,497.524 1061.285,480.763 1058.253,477.934 1056.174,480.161 1056.781,480.729 1040.715,495.265 			"/>
		</g>
		<g>
			<path style="&st4;" d="M1018.917,498.347l-0.039-32.494l5.794-13.002l12.896,0.193c0.003,0.092,0.014,0.18,0.01,0.271
				l-0.031,2.144c-0.057,3.563-2.99,6.396-6.547,6.339l-1.406-0.046l-1.996,5.985c4.051,2.986,6.785,8.686,6.785,15.23
				c0,5.029-1.614,9.557-4.196,12.739"/>
			<path d="M1031.366,496.667c2.927-3.606,4.54-8.471,4.54-13.698c0-6.337-2.478-12.258-6.528-15.757l1.299-3.899l0.274,0.009
				c0.042,0.001,0.087,0.001,0.13,0.001c4.357,0,7.917-3.488,7.987-7.838l0.031-2.146c0.002-0.078-0.002-0.179-0.008-0.28
				l-0.035-1.465l-1.468-0.072l-13.897-0.209l-6.34,14.219l0.041,32.838l3.049-0.005l-0.04-32.188l5.253-11.788l10.379,0.156
				l-0.012,0.894c-0.043,2.683-2.242,4.838-4.918,4.838c-0.027,0-0.053,0-0.08,0l-2.52-0.082l-2.705,8.112l0.893,0.658
				c3.804,2.808,6.167,8.172,6.167,14.005c0,4.464-1.406,8.757-3.858,11.778L1031.366,496.667z"/>
		</g>
		<g>
			<g>
				<path style="&st4;" d="M1056.27,476.556c0.742,1.912-0.204,4.062-2.109,4.81l-2.721,1.059c-1.907,0.744-4.061-0.202-4.807-2.113
					l0,0c-0.744-1.905,0.202-4.061,2.109-4.805l2.721-1.061C1053.374,473.702,1055.523,474.648,1056.27,476.556L1056.27,476.556z"/>
				<path d="M1045.213,480.863c-0.508-1.303-0.477-2.725,0.086-4.004c0.563-1.282,1.589-2.268,2.892-2.774l2.722-1.061
					c0.608-0.236,1.247-0.357,1.896-0.357c2.173,0,4.089,1.309,4.882,3.337c1.045,2.686-0.29,5.728-2.979,6.78l-2.72,1.058
					c-0.608,0.237-1.248,0.358-1.898,0.358l0,0C1047.92,484.2,1046.005,482.892,1045.213,480.863z M1052.016,475.864l-2.721,1.061
					c-0.543,0.211-0.972,0.623-1.207,1.158c-0.234,0.537-0.248,1.131-0.036,1.674c0.425,1.086,1.733,1.677,2.834,1.245l2.718-1.058
					c1.123-0.439,1.685-1.713,1.248-2.834c-0.332-0.849-1.134-1.396-2.043-1.396
					C1052.538,475.715,1052.271,475.765,1052.016,475.864z"/>
			</g>
			<g>
				<path style="&st4;" d="M1051.04,467.644c1.36,1.533,1.22,3.881-0.309,5.243l-2.183,1.938c-1.527,1.36-3.876,1.223-5.238-0.31
					l0,0c-1.361-1.528-1.226-3.881,0.308-5.239l2.181-1.938C1047.332,465.975,1049.678,466.113,1051.04,467.644L1051.04,467.644z"/>
				<path d="M1042.172,475.527c-0.93-1.044-1.396-2.392-1.313-3.788c0.082-1.396,0.703-2.676,1.746-3.603l2.183-1.94
					c0.959-0.853,2.194-1.322,3.477-1.322c1.494,0,2.921,0.641,3.916,1.758c1.912,2.157,1.72,5.474-0.438,7.396l-2.178,1.934
					c-0.959,0.854-2.193,1.324-3.478,1.324l0,0C1044.594,477.284,1043.166,476.644,1042.172,475.527z M1046.811,468.474l-2.182,1.94
					c-0.436,0.387-0.693,0.922-0.729,1.505c-0.035,0.584,0.16,1.146,0.548,1.582c0.415,0.468,1.015,0.735,1.64,0.735l0,0
					c0.535,0,1.049-0.195,1.451-0.555l2.178-1.934c0.902-0.804,0.984-2.191,0.187-3.093c-0.414-0.466-1.015-0.733-1.64-0.733
					C1047.729,467.923,1047.211,468.118,1046.811,468.474z"/>
			</g>
			<g>
				<path style="&st4;" d="M1060.613,477.636c-0.002,2.05-1.664,3.711-3.713,3.713l-2.918-0.002
					c-2.049,0.002-3.709-1.661-3.713-3.711l0,0c0-2.049,1.663-3.713,3.713-3.713h2.918
					C1058.951,473.924,1060.611,475.586,1060.613,477.636L1060.613,477.636z"/>
				<path d="M1053.979,482.87c-2.882,0-5.229-2.348-5.231-5.234c0-2.888,2.35-5.234,5.235-5.234h2.918
					c2.884,0,5.232,2.348,5.236,5.236c-0.004,2.884-2.352,5.231-5.232,5.234h-0.005L1053.979,482.87z M1053.982,475.447
					c-1.207,0-2.188,0.98-2.188,2.187c0.001,1.207,0.98,2.189,2.19,2.189l2.916,0.002c1.205-0.002,2.188-0.984,2.188-2.188
					c-0.002-1.207-0.983-2.188-2.188-2.189H1053.982L1053.982,475.447z"/>
			</g>
			<g>
				<path style="&st4;" d="M1060.611,450.954c0,2.049-1.662,3.71-3.711,3.712l-2.918-0.002c-2.05,0.002-3.709-1.659-3.714-3.71l0,0
					c0-2.05,1.664-3.711,3.714-3.711h2.918C1058.951,447.243,1060.611,448.903,1060.611,450.954L1060.611,450.954z"/>
				<path d="M1053.979,456.188c-2.882,0-5.229-2.347-5.231-5.232c0-2.887,2.35-5.235,5.235-5.235h2.918
					c2.888,0.001,5.234,2.35,5.234,5.235c0,2.883-2.348,5.231-5.23,5.236h-0.004L1053.979,456.188z M1053.982,448.767
					c-1.207,0-2.188,0.98-2.188,2.187c0.001,1.207,0.98,2.188,2.19,2.188l2.916,0.001c1.205-0.001,2.188-0.982,2.188-2.188
					c0-1.206-0.982-2.188-2.188-2.188H1053.982L1053.982,448.767z"/>
			</g>
			<g>
				<path style="&st4;" d="M1062.209,469.134c0,2.045-1.661,3.707-3.714,3.709h-8.515c-2.048-0.002-3.712-1.664-3.713-3.709l0,0
					c0.001-2.053,1.664-3.715,3.713-3.715l8.515,0.002C1060.548,465.419,1062.209,467.081,1062.209,469.134L1062.209,469.134z"/>
				<path d="M1044.745,469.133c0.001-2.889,2.351-5.236,5.235-5.236l8.519,0.002c2.884,0,5.233,2.35,5.233,5.234
					c0.002,2.883-2.347,5.231-5.237,5.234h-8.516C1047.096,474.364,1044.746,472.017,1044.745,469.133z M1047.792,469.133
					c0.001,1.204,0.983,2.186,2.19,2.188h8.512c1.208-0.002,2.19-0.981,2.19-2.187c0-1.207-0.979-2.188-2.189-2.188l-8.515-0.001
					C1048.775,466.943,1047.793,467.926,1047.792,469.133z"/>
			</g>
			<g>
				<path style="&st4;" d="M1062.209,460.625c0,2.05-1.661,3.711-3.714,3.711h-6.895c-2.048,0-3.712-1.663-3.711-3.71l0,0
					c-0.001-2.049,1.662-3.711,3.711-3.711h6.895C1060.548,456.915,1062.209,458.577,1062.209,460.625L1062.209,460.625z"/>
				<path d="M1047.896,464.323c-0.987-0.99-1.53-2.304-1.529-3.696c-0.001-1.396,0.542-2.712,1.529-3.7
					c0.989-0.99,2.306-1.535,3.704-1.535h6.895c2.888,0,5.237,2.348,5.237,5.233s-2.351,5.234-5.237,5.234h-6.895
					C1050.202,465.859,1048.887,465.313,1047.896,464.323z M1051.602,458.438c-0.586,0-1.135,0.228-1.548,0.642
					s-0.64,0.962-0.64,1.548c0,0.582,0.227,1.13,0.64,1.543s0.964,0.642,1.548,0.642h6.895c1.207,0,2.189-0.979,2.189-2.187
					s-0.982-2.188-2.189-2.188H1051.602L1051.602,458.438z"/>
			</g>
		</g>
	</g>
	<path style="&st12;" d="M1013.749,498.343l-0.022,20.146c-0.021,27.573-22.467,49.994-50.033,49.973
		c-23.551-0.019-43.318-16.453-48.535-38.462h-38.014c5.659,42.743,42.289,75.849,86.521,75.882
		c48.2,0.036,87.444-39.155,87.48-87.364l0.021-20.146L1013.749,498.343z"/>
</g>
<rect x="1037.406" y="207.349" style="&st2;" width="34.958" height="34.959"/>
<path style="&st13;" d="M1020.423,259.294h-17.16c-1.5,0-2.727-1.226-2.727-2.728v-27.723c0-1.504,1.227-2.729,2.727-2.729h47.636
	c1.5,0,2.727,1.227,2.727,2.729v27.723c0,1.502-1.227,2.728-2.727,2.728h-19.051H1020.423z"/>
<line style="&st8;" x1="1004.674" y1="244.615" x2="1014.197" y2="244.615"/>
<line style="&st8;" x1="1004.674" y1="249.647" x2="1020.813" y2="249.647"/>
<line style="&st8;" x1="1016.6" y1="244.615" x2="1026.122" y2="244.615"/>
<line style="&st8;" x1="1028.525" y1="244.615" x2="1038.049" y2="244.615"/>
<line style="&st8;" x1="1040.451" y1="244.615" x2="1049.975" y2="244.615"/>
<rect x="1000.536" y="232.977" width="53.088" height="5.853"/>
<g>
	<polyline points="981.879,287.084 972.643,277.841 981.879,268.597 	"/>
	<polyline points="981.879,268.597 984.525,271.241 977.932,277.841 984.525,284.438 981.879,287.084 	"/>
	<g>
		<rect x="975.965" y="275.969" width="28.709" height="3.742"/>
	</g>
</g>
<g>
	<polyline points="1020.979,287.084 1030.214,296.327 1020.979,305.571 	"/>
	<polyline points="1020.979,305.571 1018.331,302.927 1024.925,296.327 1018.331,289.729 1020.979,287.084 	"/>
	<g>
		<rect x="998.183" y="294.457" width="28.709" height="3.742"/>
	</g>
</g>
</svg>
