<svg id="Layer_1" data-name="Layer 1" xmlns="http://www.w3.org/2000/svg" viewBox="0 0 865.2 528.26">
  <defs>
    <style>
      .cls-1, .cls-12, .cls-6 {
        fill: #fff;
      }

      .cls-2 {
        fill: #febf12;
      }

      .cls-3 {
        fill: #a2b63b;
      }

      .cls-11, .cls-13, .cls-4 {
        fill: none;
      }

      .cls-12, .cls-13, .cls-4, .cls-6, .cls-8, .cls-9 {
        stroke: #000;
      }

      .cls-11, .cls-12, .cls-4, .cls-6, .cls-8, .cls-9 {
        stroke-miterlimit: 10;
      }

      .cls-11, .cls-4, .cls-6 {
        stroke-width: 4px;
      }

      .cls-4 {
        stroke-dasharray: 4 6;
      }

      .cls-5 {
        fill: #678842;
      }

      .cls-7 {
        fill: #1bb1bf;
      }

      .cls-9 {
        stroke-width: 0.5px;
      }

      .cls-10 {
        fill: #bae7eb;
      }

      .cls-11 {
        stroke: #1bb0be;
      }

      .cls-12, .cls-13 {
        stroke-width: 3px;
      }
    </style>
  </defs>
  <title>banner_mobile_fr</title>
  <g>
    <g>
      <g>
        <polygon points="40.05 144.63 37.4 141.98 43.99 135.38 37.4 128.78 40.05 126.14 49.28 135.38 40.05 144.63"/>
        <rect x="17.25" y="133.51" width="28.71" height="3.74"/>
      </g>
      <g>
        <rect x="31.95" y="96.12" width="18.13" height="3.74"/>
        <rect x="22.45" y="96.12" width="6.04" height="3.74"/>
      </g>
      <g>
        <rect x="9.5" y="109.21" width="18.13" height="3.74"/>
        <rect y="109.21" width="6.04" height="3.74"/>
      </g>
    </g>
    <g>
      <g>
        <path class="cls-1" d="M108.09,67.23,84.59,88.35v22.79c.11,0,10.4.61,10.4-7.53L95,93l17.18-10.81h23l5.6,9.51a1,1,0,0,0,.1.23l0,14.55c.12,4.34,5,7.76,9.3,7.64l1.1-.11V95.67l.07,0V82.19h17.82V56.89H149.24C148.77,56.89,108.62,65.14,108.09,67.23Z"/>
        <path d="M139,106.47l0-14.09-4.9-8.32h-21.4L96.84,94l0,9.58c0,6.94-6.07,9.41-11.74,9.41h-.66l-1.74-.12V87.52l23.79-21.38c.7-1.18,3.66-2.55,21.76-6.69,8.15-1.86,20.31-4.43,21-4.43H171v29H153.16V95.7l-.07,2.61v17.42l-1.71.15-1.08.1h-.41C144.85,116,139.11,112.11,139,106.47Zm10.46-26.15h17.82V58.77H149.37c-3.33.53-35.57,7.37-39.7,9.56L86.46,89.18v20c2.69-.23,6.66-1.31,6.66-5.62l0-11.64,18.52-11.65h24.62l6.14,10.43.36.68,0,15c.08,3.1,3.53,5.54,6.65,5.81V95.67l.08-2.59Z"/>
      </g>
      <path class="cls-2" d="M101.37,134.69,87.94,129.1l14.91-35.83,35.83,14.91-5.79,13.91a1.71,1.71,0,0,1-.2.18h0l-.21.14h0a2.23,2.23,0,0,1-.43.16l-.08,0-.15,0-.17,0h-.13l-.21,0-.11,0-.32-.09a1.88,1.88,0,0,1-1.08-1.23,6.36,6.36,0,1,0-3,7.17,1.89,1.89,0,0,1,1.63-.1,2.69,2.69,0,0,1,.29.16l.09.07.16.12.1.1.11.13.09.13a.21.21,0,0,1,0,.06,2,2,0,0,1,.19.42v0a2.1,2.1,0,0,1,.06.24v0a1.1,1.1,0,0,1,0,.26L123.77,144l-13.44-5.59a1.88,1.88,0,0,0-2.27,1.08,1.9,1.9,0,0,0,.09,1.63,6.36,6.36,0,1,1-7.17-3,1.9,1.9,0,0,0,1.23-1.09A1.88,1.88,0,0,0,101.37,134.69Z"/>
    </g>
    <path class="cls-3" d="M397.67,163.18l37.41,0-.19-13.89A99.27,99.27,0,0,0,335.8,50l-173.06-.11,0,37.42,173.07.1a61.81,61.81,0,0,1,61.69,61.79Z"/>
    <line class="cls-4" x1="163.2" y1="68.5" x2="337.2" y2="68.5"/>
  </g>
  <rect class="cls-5" x="527.35" y="134.83" width="38.9" height="28.33"/>
  <rect class="cls-6" x="157.2" y="163.5" width="618" height="228"/>
  <g>
    <path class="cls-7" d="M282.62,154.47a38.36,38.36,0,1,1-38.36-38.36A38.35,38.35,0,0,1,282.62,154.47Z"/>
    <polygon points="243.69 159.07 224.75 139.9 228.49 136.21 243.69 151.59 266.77 128.22 270.52 131.92 243.69 159.07"/>
    <g>
      <path class="cls-1" d="M252.6,154.47a8.34,8.34,0,1,1-8.34-8.34A8.33,8.33,0,0,1,252.6,154.47Z"/>
      <path d="M244.26,165.44a11,11,0,1,1,11-11A11,11,0,0,1,244.26,165.44Zm0-16.68a5.71,5.71,0,1,0,5.71,5.71A5.71,5.71,0,0,0,244.26,148.76Z"/>
    </g>
    <g>
      <rect x="240.26" y="115.38" width="5.26" height="6.39"/>
      <rect x="204.57" y="152.67" width="6.39" height="5.26"/>
      <rect x="241.86" y="187.23" width="5.26" height="6.39"/>
      <rect x="276.43" y="151.07" width="6.39" height="5.26"/>
    </g>
  </g>
  <g>
    <g>
      <path class="cls-5" d="M221.74,267.25a8.91,8.91,0,0,1-.63,3.4,7.28,7.28,0,0,1-1.82,2.62,8.73,8.73,0,0,1-3.08,1.72,13.37,13.37,0,0,1-4.31.59h-3.11V281l1.05.18c.24,0,.42.1.52.1a.94.94,0,0,1,.21,0,1,1,0,0,1,.88,1.08v2.07h-10v-2.07a1,1,0,0,1,.87-1.08,1.3,1.3,0,0,1,.21,0,3.6,3.6,0,0,1,.53-.1l1-.18V262.66l-1-.17c-.25,0-.42-.11-.53-.11a.68.68,0,0,0-.21,0,1,1,0,0,1-.87-1.09V259.2H211.9a15.09,15.09,0,0,1,4.41.59,8.59,8.59,0,0,1,3.05,1.68,6.38,6.38,0,0,1,1.78,2.52A8.76,8.76,0,0,1,221.74,267.25Zm-4.73,0a5.08,5.08,0,0,0-.31-1.82,3.52,3.52,0,0,0-.95-1.4,4.34,4.34,0,0,0-1.57-.88,7.31,7.31,0,0,0-2.28-.31h-3.11v9.07h3.11a7.29,7.29,0,0,0,2.28-.32,3.87,3.87,0,0,0,1.57-.91,3.57,3.57,0,0,0,.95-1.47A5.76,5.76,0,0,0,217,267.25Z"/>
      <path class="cls-5" d="M245.61,282.44v2.07h-4.73a1.9,1.9,0,0,1-1-.25,2.13,2.13,0,0,1-.7-.7l-5.32-8.12a2,2,0,0,0-.66-.63,2.17,2.17,0,0,0-1.05-.21h-1.79V281l1.05.18c.25,0,.42.1.53.1a1.3,1.3,0,0,1,.21,0,1,1,0,0,1,.87,1.08v2.07H223v-2.07a1,1,0,0,1,.88-1.08.94.94,0,0,1,.21,0,3.41,3.41,0,0,1,.52-.1l1.05-.18V262.66c-.42-.07-.8-.14-1.05-.17s-.42-.11-.52-.11a1.22,1.22,0,0,1-.21,0,1,1,0,0,1-.88-1.09V259.2h10.12a16.45,16.45,0,0,1,4.44.52,8.33,8.33,0,0,1,3,1.51,5.85,5.85,0,0,1,1.75,2.31,7.24,7.24,0,0,1,.56,2.94,8.16,8.16,0,0,1-.38,2.42,7.39,7.39,0,0,1-1.09,2.06,6.3,6.3,0,0,1-1.75,1.61,9.67,9.67,0,0,1-2.38,1.12,4.68,4.68,0,0,1,1.54,1.47l4,5.88,1.09.18c.28,0,.45.1.59.1a1.57,1.57,0,0,1,.28,0A1,1,0,0,1,245.61,282.44ZM237,270a3.75,3.75,0,0,0,.95-1.4,4.73,4.73,0,0,0,.31-1.75,3.66,3.66,0,0,0-1.26-3,6,6,0,0,0-3.88-1h-2.77v8.4H233a7.68,7.68,0,0,0,2.31-.35A4.32,4.32,0,0,0,237,270Z"/>
      <path class="cls-5" d="M255.86,262.38c-.1,0-.28.08-.52.11s-.6.1-1,.17V281l1,.18c.24,0,.42.1.52.1a.94.94,0,0,1,.21,0,1,1,0,0,1,.88,1.08v2.07h-10v-2.07a1,1,0,0,1,.87-1.08,1.3,1.3,0,0,1,.21,0,3.6,3.6,0,0,1,.53-.1l1-.18V262.66l-1-.17c-.25,0-.42-.11-.53-.11a.68.68,0,0,0-.21,0,1,1,0,0,1-.87-1.09V259.2h10v2.06a1,1,0,0,1-.88,1.09A1.22,1.22,0,0,1,255.86,262.38Z"/>
      <path class="cls-5" d="M285,259.2v2.06a1,1,0,0,1-.87,1.09,1.69,1.69,0,0,1-.21,0c-.11,0-.28.08-.53.11s-.59.1-1,.17v21.85h-2.45a2.1,2.1,0,0,1-.91-.18,1.89,1.89,0,0,1-.74-.63L265,266.87a10.28,10.28,0,0,1,.07,1.08c0,.35,0,.7,0,1V281l2.27.32a1,1,0,0,1,.88,1.08v2.07h-9.94v-2.07a1,1,0,0,1,.87-1.08.52.52,0,0,0,.21,0,3.6,3.6,0,0,1,.53-.1L261,281V262.66l-1.05-.17c-.25,0-.42-.11-.53-.11a1.69,1.69,0,0,1-.21,0,1,1,0,0,1-.87-1.09V259.2h5.11c.21,0,.38,0,.52,0a.74.74,0,0,1,.39.11.71.71,0,0,1,.31.21,3.5,3.5,0,0,1,.35.42l13.3,16.91c0-.42-.07-.81-.1-1.19a10.86,10.86,0,0,1,0-1.12V262.66l-2.27-.31a1,1,0,0,1-.88-1.09V259.2H285Z"/>
      <path class="cls-5" d="M304.09,266.55c-.07-.32-.17-1.26-.31-2.8a17.54,17.54,0,0,0-4.83-.81,8.45,8.45,0,0,0-3.29.6,7,7,0,0,0-2.56,1.78,8.53,8.53,0,0,0-1.68,2.8,10.73,10.73,0,0,0-.63,3.75,10.55,10.55,0,0,0,.63,3.78,8.4,8.4,0,0,0,1.61,2.8,7.23,7.23,0,0,0,5.46,2.35,13.34,13.34,0,0,0,1.75-.11,7.9,7.9,0,0,0,1.44-.31,5.32,5.32,0,0,0,1.22-.6,8.38,8.38,0,0,0,1.16-.91,1.45,1.45,0,0,1,.38-.24.89.89,0,0,1,.42-.07.84.84,0,0,1,.67.28l1.85,2a9.84,9.84,0,0,1-3.78,2.9,13.27,13.27,0,0,1-5.42,1,12.79,12.79,0,0,1-5-1,10.72,10.72,0,0,1-3.85-2.66,12.07,12.07,0,0,1-2.45-4.1,15.3,15.3,0,0,1-.84-5.18,14.17,14.17,0,0,1,.94-5.25,12,12,0,0,1,6.76-6.76,14.18,14.18,0,0,1,5.28-.94,23,23,0,0,1,7.95,1.82v6.44h-2A.74.74,0,0,1,304.09,266.55Z"/>
      <path class="cls-5" d="M317.43,262.38c-.11,0-.28.08-.53.11s-.59.1-1,.17V281l1,.18c.25,0,.42.1.53.1a1.3,1.3,0,0,1,.21,0,1,1,0,0,1,.87,1.08v2.07h-10v-2.07a1,1,0,0,1,.88-1.08.94.94,0,0,1,.21,0,3.41,3.41,0,0,1,.52-.1l1.05-.18V262.66c-.42-.07-.8-.14-1.05-.17s-.42-.11-.52-.11a.75.75,0,0,0-.21,0,1,1,0,0,1-.88-1.09V259.2h10v2.06a1,1,0,0,1-.87,1.09A1.69,1.69,0,0,1,317.43,262.38Z"/>
      <path class="cls-5" d="M340.21,267.25a8.91,8.91,0,0,1-.63,3.4,7.16,7.16,0,0,1-1.82,2.62,8.56,8.56,0,0,1-3.08,1.72,13.31,13.31,0,0,1-4.3.59h-3.12V281l1.05.18c.25,0,.42.1.53.1a1.3,1.3,0,0,1,.21,0,1,1,0,0,1,.87,1.08v2.07h-10v-2.07a1,1,0,0,1,.87-1.08,1.3,1.3,0,0,1,.21,0,3.6,3.6,0,0,1,.53-.1l1.05-.18V262.66l-1.05-.17c-.25,0-.42-.11-.53-.11a.68.68,0,0,0-.21,0,1,1,0,0,1-.87-1.09V259.2h10.47a15.14,15.14,0,0,1,4.41.59,8.55,8.55,0,0,1,3,1.68,6.41,6.41,0,0,1,1.79,2.52A9,9,0,0,1,340.21,267.25Zm-4.72,0a5.08,5.08,0,0,0-.32-1.82,3.5,3.5,0,0,0-.94-1.4,4.39,4.39,0,0,0-1.58-.88,7.29,7.29,0,0,0-2.27-.31h-3.12v9.07h3.12a7.27,7.27,0,0,0,2.27-.32,3.91,3.91,0,0,0,1.58-.91,3.55,3.55,0,0,0,.94-1.47A5.75,5.75,0,0,0,335.49,267.25Z"/>
      <path class="cls-5" d="M360.06,259.2v6.65h-2a.77.77,0,0,1-.81-.67c0-.28-.14-1-.24-2.24h-8.16v7h8.58v3.64h-8.58v7.14H357c.1-1.23.21-2,.24-2.24a.78.78,0,0,1,.81-.67h2v6.69H341.43v-2.07a1,1,0,0,1,.88-1.08.94.94,0,0,1,.21,0c.1,0,.28-.07.52-.1l1-.18V262.66c-.42-.07-.8-.14-1-.17s-.42-.11-.52-.11a1.22,1.22,0,0,1-.21,0,1,1,0,0,1-.88-1.09V259.2h18.63Z"/>
      <path class="cls-5" d="M378,276.6a8.81,8.81,0,0,1-.59,3.18,7.07,7.07,0,0,1-1.72,2.63,8,8,0,0,1-2.76,1.75,10.25,10.25,0,0,1-3.72.63h-.52a22.94,22.94,0,0,1-7.25-1.33V277h2a.73.73,0,0,1,.8.63c.07.31.18,1.29.32,2.9a17.51,17.51,0,0,0,4.79.46,4.69,4.69,0,0,0,3.12-.95,3.4,3.4,0,0,0,1.08-2.73,2.73,2.73,0,0,0-.48-1.64,3.69,3.69,0,0,0-1.34-1.05,11,11,0,0,0-1.85-.74c-.7-.21-1.44-.38-2.14-.63a20.47,20.47,0,0,1-2.13-.84,7,7,0,0,1-1.89-1.29,5.34,5.34,0,0,1-1.3-2,7.85,7.85,0,0,1-.52-2.91,6.6,6.6,0,0,1,.56-2.7,6.68,6.68,0,0,1,1.61-2.34,8.19,8.19,0,0,1,2.59-1.61,9.19,9.19,0,0,1,3.53-.63,19.31,19.31,0,0,1,7.25,1.43v6.48h-2a.78.78,0,0,1-.81-.67c-.07-.31-.17-1.26-.31-2.83a10.93,10.93,0,0,0-4.1-.56,5.93,5.93,0,0,0-1.68.21,3.87,3.87,0,0,0-1.23.66,3.35,3.35,0,0,0-.77,1,3.24,3.24,0,0,0-.24,1.3,2.27,2.27,0,0,0,.52,1.46,3.91,3.91,0,0,0,1.3,1,11.81,11.81,0,0,0,1.89.77c.7.21,1.4.45,2.14.7s1.43.56,2.13.88a6.65,6.65,0,0,1,1.89,1.26,5.38,5.38,0,0,1,1.33,1.85A6.33,6.33,0,0,1,378,276.6Z"/>
      <path class="cls-5" d="M406.78,259.2v6.65h-2a.77.77,0,0,1-.81-.67c0-.28-.14-1-.24-2.24h-9v7.5h8.85v3.74h-8.85V281l1.05.18c.24,0,.42.1.52.1a.94.94,0,0,1,.21,0,1,1,0,0,1,.88,1.08v2.07H387.28v-2.07a1,1,0,0,1,.88-1.08.94.94,0,0,1,.21,0c.1,0,.28-.07.52-.1l1.05-.18V262.66c-.42-.07-.8-.14-1.05-.17s-.42-.11-.52-.11a.75.75,0,0,0-.21,0,1,1,0,0,1-.88-1.09V259.2h19.5Z"/>
      <path class="cls-5" d="M432.54,277a12.35,12.35,0,0,1-2.59,4.09,11.6,11.6,0,0,1-4.06,2.7,13.87,13.87,0,0,1-5.22,1,14.06,14.06,0,0,1-5.25-1,11.6,11.6,0,0,1-4.06-2.7,12.42,12.42,0,0,1-2.62-4.09,13.94,13.94,0,0,1-.91-5.18,13.74,13.74,0,0,1,.91-5.15,12.57,12.57,0,0,1,2.62-4.1,11.72,11.72,0,0,1,4.06-2.69,14.06,14.06,0,0,1,5.25-1,13.13,13.13,0,0,1,5.22,1,12.15,12.15,0,0,1,4.06,2.69,12.5,12.5,0,0,1,2.59,4.1,13.75,13.75,0,0,1,.94,5.15A14,14,0,0,1,432.54,277Zm-4.45-8.9a7.29,7.29,0,0,0-1.57-2.8,7.18,7.18,0,0,0-2.52-1.78,8.41,8.41,0,0,0-3.33-.6,8.6,8.6,0,0,0-3.36.6,7.18,7.18,0,0,0-2.52,1.78,7.92,7.92,0,0,0-1.61,2.8,12.7,12.7,0,0,0,0,7.46,7.92,7.92,0,0,0,1.61,2.8,7.2,7.2,0,0,0,2.52,1.79,8.6,8.6,0,0,0,3.36.59,8.41,8.41,0,0,0,3.33-.59,7.2,7.2,0,0,0,2.52-1.79,7.29,7.29,0,0,0,1.57-2.8,12.7,12.7,0,0,0,0-7.46Z"/>
      <path class="cls-5" d="M461.35,259.2v2.06a1,1,0,0,1-.88,1.09,1.43,1.43,0,0,1-.21,0c-.11,0-.28.08-.53.11s-.59.1-1,.17v21.85h-2.45a2.13,2.13,0,0,1-.91-.18,1.89,1.89,0,0,1-.74-.63l-13.23-16.83a10.28,10.28,0,0,1,.07,1.08c0,.35,0,.7,0,1V281l2.27.32a1,1,0,0,1,.88,1.08v2.07h-9.94v-2.07a1,1,0,0,1,.87-1.08.52.52,0,0,0,.21,0,3.6,3.6,0,0,1,.53-.1l1.05-.18V262.66l-1.05-.17c-.25,0-.42-.11-.53-.11a1.69,1.69,0,0,1-.21,0,1,1,0,0,1-.87-1.09V259.2h5.11c.21,0,.38,0,.52,0a.74.74,0,0,1,.39.11.71.71,0,0,1,.31.21,3.5,3.5,0,0,1,.35.42l13.3,16.91c0-.42-.07-.81-.1-1.19a10.86,10.86,0,0,1,0-1.12V262.66l-2.27-.31a1,1,0,0,1-.88-1.09V259.2h10Z"/>
      <path class="cls-5" d="M487.31,271.84a13.43,13.43,0,0,1-.94,5.11,12,12,0,0,1-2.59,4,11.92,11.92,0,0,1-4.06,2.59,13.86,13.86,0,0,1-5.22.95H462.57v-2.07a1,1,0,0,1,.87-1.08,1.3,1.3,0,0,1,.21,0c.11,0,.28-.07.53-.1l1.05-.18V262.66l-1.05-.17c-.25,0-.42-.11-.53-.11a1.69,1.69,0,0,1-.21,0,1,1,0,0,1-.87-1.09V259.2H474.5a13.86,13.86,0,0,1,5.22.94,11.29,11.29,0,0,1,6.65,6.58A13.49,13.49,0,0,1,487.31,271.84Zm-4.83,0a11.14,11.14,0,0,0-.56-3.72,8,8,0,0,0-1.57-2.8,7.1,7.1,0,0,0-2.52-1.75,8.41,8.41,0,0,0-3.33-.63H470v17.82h4.55a8.41,8.41,0,0,0,3.33-.63,7.1,7.1,0,0,0,2.52-1.75,7.7,7.7,0,0,0,1.57-2.8A11.22,11.22,0,0,0,482.48,271.84Z"/>
      <path class="cls-5" d="M514.69,282.72v1.79h-8.55v-1.79a1,1,0,0,1,.7-.91,6.94,6.94,0,0,0,.7-.28l-.14-.38-1.26-3.43H496.06l-1.29,3.6-.11.21c.39.18.63.25.7.28a1,1,0,0,1,.7.91v1.79h-8.54v-1.79a1,1,0,0,1,.7-.91l1.93-.8,8.54-21.81h4.83L512.1,281l1.92.8A.92.92,0,0,1,514.69,282.72Zm-17.4-8.33H505l-2.9-7.87c-.14-.39-.28-.81-.46-1.3s-.31-1.09-.49-1.68c-.17.59-.35,1.16-.49,1.68s-.31.94-.45,1.33Z"/>
      <path class="cls-5" d="M547.69,262.38c-.1,0-.28.08-.52.11s-.6.1-1,.17V281l1,.18c.24,0,.42.1.52.1a.94.94,0,0,1,.21,0,1,1,0,0,1,.88,1.08v2.07h-9.95v-2.07a1,1,0,0,1,.88-1.08L542,281V268.16c0-.32,0-.63,0-1s0-.73.07-1.12l-7.63,14.35a2.09,2.09,0,0,1-.7.77,1.76,1.76,0,0,1-1,.28h-.63a1.74,1.74,0,0,1-1-.28,2,2,0,0,1-.7-.77L522.73,266c0,.38,0,.76.07,1.11a9,9,0,0,1,0,1V281l2.27.32a1,1,0,0,1,.88,1.08v2.07h-9.94v-2.07a1,1,0,0,1,.87-1.08.52.52,0,0,0,.21,0,3.6,3.6,0,0,1,.53-.1l1.05-.18V262.66l-1.05-.17c-.25,0-.42-.11-.53-.11a.68.68,0,0,0-.21,0,1,1,0,0,1-.87-1.09V259.2h6.19c.21,0,.42,0,.56,0a1.67,1.67,0,0,1,.42.07.76.76,0,0,1,.32.25,1.9,1.9,0,0,1,.31.42l7.56,14c.21.38.35.77.53,1.15s.35.81.52,1.23c.18-.42.32-.81.49-1.23s.35-.8.56-1.19L541,260a2.34,2.34,0,0,1,.28-.42.81.81,0,0,1,.36-.25,1.84,1.84,0,0,1,.42-.07c.13,0,.31,0,.52,0h6.2v2.06a1,1,0,0,1-.88,1.09A1.22,1.22,0,0,1,547.69,262.38Z"/>
      <path class="cls-5" d="M568.79,259.2v6.65h-2a.76.76,0,0,1-.8-.67c0-.28-.14-1-.25-2.24h-8.15v7h8.57v3.64h-8.57v7.14h8.15c.11-1.23.21-2,.25-2.24a.77.77,0,0,1,.8-.67h2v6.69H550.17v-2.07a1,1,0,0,1,.88-1.08.94.94,0,0,1,.21,0c.1,0,.28-.07.52-.1l1.05-.18V262.66c-.42-.07-.8-.14-1.05-.17s-.42-.11-.52-.11a1.22,1.22,0,0,1-.21,0,1,1,0,0,1-.88-1.09V259.2h18.62Z"/>
      <path class="cls-5" d="M596.9,259.2v2.06a1,1,0,0,1-.88,1.09,1.22,1.22,0,0,1-.21,0c-.1,0-.28.08-.52.11s-.6.1-1,.17v21.85h-2.45a2.16,2.16,0,0,1-.91-.18,1.87,1.87,0,0,1-.73-.63L577,266.87c0,.38.07.73.07,1.08s0,.7,0,1V281l2.28.32a1,1,0,0,1,.87,1.08v2.07h-9.94v-2.07a1,1,0,0,1,.88-1.08.57.57,0,0,0,.21,0,3.41,3.41,0,0,1,.52-.1l1-.18V262.66c-.42-.07-.8-.14-1-.17s-.42-.11-.52-.11a1.22,1.22,0,0,1-.21,0,1,1,0,0,1-.88-1.09V259.2h5.11c.21,0,.39,0,.53,0a.68.68,0,0,1,.38.11.74.74,0,0,1,.32.21,4.8,4.8,0,0,1,.35.42l13.3,16.91c0-.42-.07-.81-.11-1.19s0-.77,0-1.12V262.66l-2.28-.31a1,1,0,0,1-.87-1.09V259.2h9.94Z"/>
      <path class="cls-5" d="M619,259.2v6h-2a.81.81,0,0,1-.84-.66c0-.21-.1-.67-.17-1.44h-5.15v18l1,.18c.24,0,.42.1.52.1a.94.94,0,0,1,.21,0,1,1,0,0,1,.91,1.08v2.07h-10v-2.07a1,1,0,0,1,.88-1.08.94.94,0,0,1,.21,0c.1,0,.28-.07.52-.1l1-.18v-18H601c-.07.77-.14,1.26-.17,1.47a.77.77,0,0,1-.81.66h-2v-6h21Z"/>
      <path class="cls-5" d="M644.74,282.72v1.79H636.2v-1.79a1,1,0,0,1,.7-.91,6.94,6.94,0,0,0,.7-.28l-.14-.38-1.26-3.43H626.12l-1.29,3.6-.11.21c.39.18.63.25.7.28a1,1,0,0,1,.7.91v1.79h-8.54v-1.79a1,1,0,0,1,.7-.91l1.93-.8,8.54-21.81h4.83L642.15,281l1.93.8A.93.93,0,0,1,644.74,282.72Zm-17.39-8.33H635l-2.9-7.87c-.14-.39-.28-.81-.46-1.3s-.31-1.09-.49-1.68c-.17.59-.35,1.16-.49,1.68s-.31.94-.45,1.33Z"/>
      <path class="cls-5" d="M670.75,259.2v2.06a1,1,0,0,1-.88,1.09,1.22,1.22,0,0,1-.21,0c-.1,0-.28.08-.52.11s-.63.1-1,.17v11.7a11.44,11.44,0,0,1-.74,4.16A9.05,9.05,0,0,1,662,284a12.81,12.81,0,0,1-8.75,0,9.34,9.34,0,0,1-5.39-5.5,11.43,11.43,0,0,1-.7-4.16v-11.7c-.42-.07-.8-.14-1-.17s-.42-.11-.52-.11a1.22,1.22,0,0,1-.21,0,1,1,0,0,1-.88-1.09V259.2h10.15v2.06a1,1,0,0,1-.87,1.09,2.43,2.43,0,0,1-.25,0c-.1,0-.31.08-.59.11s-.67.1-1.09.17v11.66a7.7,7.7,0,0,0,.39,2.63,5.71,5.71,0,0,0,1.15,2,5.1,5.1,0,0,0,1.79,1.26,6.89,6.89,0,0,0,4.9,0,5.21,5.21,0,0,0,1.82-1.26,6.18,6.18,0,0,0,1.12-2,8.72,8.72,0,0,0,.42-2.62v-11.7c-.42-.07-.81-.14-1.09-.17s-.49-.11-.59-.11a2.43,2.43,0,0,1-.25,0,1,1,0,0,1-.87-1.09V259.2h10.15Z"/>
      <path class="cls-5" d="M697.87,282.44v2.07H687.13v-2.07a1,1,0,0,1,.87-1.08l1-.21-4.3-7.14a1.34,1.34,0,0,1-.18.38,2.88,2.88,0,0,1-.17.35l-4,6.3c.35.07.88.18,1.47.32a1,1,0,0,1,.88,1.08v2.07H671.9v-2.07a1,1,0,0,1,.91-1.08c.18,0,1.05-.14,2.63-.32l6.19-9.55-5.81-8.83c-1.61-.17-2.52-.28-2.69-.31a1,1,0,0,1-.88-1.09V259.2h10.89v2.06a1,1,0,0,1-.88,1.09c-.56.11-.94.21-1.15.24l4,6.48c.07-.14.14-.32.21-.45a3.38,3.38,0,0,1,.24-.46l3.5-5.53c-.28-.07-.73-.14-1.33-.28a1,1,0,0,1-.87-1.09V259.2h10.67v2.06a1,1,0,0,1-.87,1.09c-.21,0-1.09.14-2.66.31l-5.81,8.62,6.16,9.76c1.57.18,2.45.28,2.66.32A1,1,0,0,1,697.87,282.44Z"/>
    </g>
    <g>
      <path class="cls-8" d="M228.56,309.52a16.45,16.45,0,0,1-1,5.7,12.21,12.21,0,0,1-2.67,4.34,11.44,11.44,0,0,1-4.11,2.75,14.76,14.76,0,0,1-5.35.93H202.67v-.78c0-.42.27-.66.78-.69h.39c.19,0,.46,0,.85,0s.81,0,1.28,0V297.35c-.47,0-.89,0-1.28,0s-.66,0-.85,0h-.39c-.51,0-.78-.27-.78-.7v-.73h12.79a14.76,14.76,0,0,1,5.35.93,11.44,11.44,0,0,1,4.11,2.75,12,12,0,0,1,2.67,4.3A16.62,16.62,0,0,1,228.56,309.52Zm-2.05,0a15.15,15.15,0,0,0-.81-5.12,10.94,10.94,0,0,0-2.21-3.8,9.47,9.47,0,0,0-3.49-2.36,12.19,12.19,0,0,0-4.54-.81h-7.52v24.22h7.52a12,12,0,0,0,4.54-.82,9.35,9.35,0,0,0,3.49-2.36,10.94,10.94,0,0,0,2.21-3.8A15.17,15.17,0,0,0,226.51,309.52Z"/>
      <path class="cls-8" d="M250.89,295.84v5.66h-1c-.54,0-.77-.31-.81-.93,0-.35-.08-1.4-.16-3.11H236.43v11.09h10.93v1.59H236.43v11.43H249c0-.35,0-.74.08-1.32s0-1,0-1.24,0-.42,0-.5c0-.62.27-1,.81-1h1v5.7H231.2v-.78c0-.42.23-.66.74-.69h.38c.2,0,.47,0,.86,0s.81,0,1.28,0V297.35c-.47,0-.9,0-1.28,0s-.66,0-.86,0h-.38c-.51,0-.78-.27-.78-.7v-.73h19.73Z"/>
      <path class="cls-8" d="M280.5,318.12h.78v5.12H262.67v-.78c0-.42.27-.66.78-.69h.39c.19,0,.46,0,.85,0s.81,0,1.28,0V297.35c-.47,0-.89,0-1.28,0s-.66,0-.85,0h-.39c-.51,0-.78-.27-.78-.7v-.73h8.53v.73c0,.43-.27.66-.77.7h-.35c-.2,0-.51,0-.89,0s-.78,0-1.25,0v24.18h11.32c0-.54.08-1,.12-1.35s0-.62.08-.78a1.9,1.9,0,0,0,0-.35c0-.62.28-.93.82-.93Z"/>
      <path class="cls-8" d="M281.94,296.07a6.43,6.43,0,0,1,.19,1.47,5.94,5.94,0,0,1-.74,2.91,11.26,11.26,0,0,1-1.93,2.56l-.55-.35a.39.39,0,0,1-.11-.27.35.35,0,0,1,.11-.27,10.75,10.75,0,0,0,1.24-2,4.67,4.67,0,0,0,.47-2,4.53,4.53,0,0,0-.7-2.32.47.47,0,0,1-.08-.31c0-.2.12-.31.31-.39l1.17-.46A6.45,6.45,0,0,1,281.94,296.07Z"/>
      <path class="cls-8" d="M308.76,322.35v.89h-6.71v-.89c0-.51.31-.74.89-.78a1.41,1.41,0,0,1,.24,0c.11,0,.31,0,.58,0s.58,0,1,0L302,314.75l-.19-.5h-13.1l-.19.5-2.72,6.71c.39,0,.74,0,1,0s.43,0,.54,0a1.41,1.41,0,0,1,.24,0c.58,0,.89.27.89.78v.89h-6.67v-.89a.7.7,0,0,1,.74-.78l1.24-.11,10.5-25.66h2l10.46,25.66,1.28.11A.71.71,0,0,1,308.76,322.35Zm-19.42-9.58h11.9l-5.43-13.37c-.08-.23-.19-.46-.27-.73s-.19-.55-.27-.86c-.08.31-.19.58-.27.86s-.2.54-.27.77Z"/>
      <path class="cls-8" d="M330.89,304a7.62,7.62,0,0,1-.66,3.29,7,7,0,0,1-1.94,2.6,9.34,9.34,0,0,1-3.06,1.7,13.13,13.13,0,0,1-4.07.62h-4.69v9.5c.47,0,.85,0,1.24,0s.7,0,.89,0H319c.51,0,.78.27.78.69v.78H311.2v-.78c0-.42.27-.66.78-.69h.38c.2,0,.47,0,.86,0s.81,0,1.28,0V297.35c-.47,0-.9,0-1.28,0s-.66,0-.86,0H312c-.51,0-.78-.27-.78-.7v-.73h10c3.22,0,5.66.69,7.29,2.09A7.58,7.58,0,0,1,330.89,304Zm-2,0a6.14,6.14,0,0,0-1.94-4.85,8.74,8.74,0,0,0-5.81-1.7h-4.69V310.6h4.69a9.58,9.58,0,0,0,3.26-.5,7.33,7.33,0,0,0,2.44-1.4,5.73,5.73,0,0,0,1.51-2.09A6.67,6.67,0,0,0,328.91,303.94Z"/>
      <path class="cls-8" d="M352.9,304a7.77,7.77,0,0,1-.65,3.29,7.14,7.14,0,0,1-1.94,2.6,9.34,9.34,0,0,1-3.06,1.7,13.17,13.17,0,0,1-4.07.62h-4.69v9.5c.46,0,.85,0,1.24,0s.69,0,.89,0H341c.5,0,.77.27.77.69v.78h-8.52v-.78c0-.42.27-.66.77-.69h.39c.19,0,.46,0,.85,0s.81,0,1.28,0V297.35c-.47,0-.89,0-1.28,0s-.66,0-.85,0H334c-.5,0-.77-.27-.77-.7v-.73h10c3.21,0,5.66.69,7.28,2.09A7.58,7.58,0,0,1,352.9,304Zm-2,0a6.14,6.14,0,0,0-1.94-4.85,8.77,8.77,0,0,0-5.81-1.7h-4.69V310.6h4.69a9.52,9.52,0,0,0,3.25-.5,7.33,7.33,0,0,0,2.44-1.4,5.75,5.75,0,0,0,1.52-2.09A6.84,6.84,0,0,0,350.93,303.94Z"/>
      <path class="cls-8" d="M378.1,322.46v.78h-2.72a1.22,1.22,0,0,1-.54-.12,1.25,1.25,0,0,1-.42-.39l-8.8-11.12a2.6,2.6,0,0,0-.7-.62,2.8,2.8,0,0,0-1.16-.15H360.5v10.85c.47,0,.85,0,1.24,0s.66,0,.85,0H363c.51,0,.78.27.78.69v.78h-8.53v-.78c0-.42.27-.66.78-.69h.38c.2,0,.47,0,.86,0s.81,0,1.28,0V297.35c-.47,0-.9,0-1.28,0s-.66,0-.86,0H356c-.51,0-.74-.27-.74-.7v-.73h9.92c3.18,0,5.54.62,7.09,1.82a6.4,6.4,0,0,1,2.33,5.35,7.51,7.51,0,0,1-.54,2.86,7,7,0,0,1-1.55,2.29,8.52,8.52,0,0,1-2.45,1.63,10.2,10.2,0,0,1-3.25.81,3.31,3.31,0,0,1,.85.78l8.22,10.35c.23,0,.46,0,.7,0h.77C377.87,321.8,378.1,322,378.1,322.46Zm-9.92-13.52a6.75,6.75,0,0,0,2.44-1.28,5.32,5.32,0,0,0,1.55-1.94,6,6,0,0,0,.5-2.56,5,5,0,0,0-1.9-4.34,9.41,9.41,0,0,0-5.58-1.43H360.5v12h4.42A12.15,12.15,0,0,0,368.18,308.94Z"/>
      <path class="cls-8" d="M404.3,315.29a12.73,12.73,0,0,1-2.67,4.42,11.73,11.73,0,0,1-4.11,2.83,14,14,0,0,1-5.35,1,13.56,13.56,0,0,1-5.27-1,11.79,11.79,0,0,1-4.15-2.83,12.73,12.73,0,0,1-2.67-4.42,17.56,17.56,0,0,1,0-11.51,12.82,12.82,0,0,1,2.67-4.42,11.74,11.74,0,0,1,4.15-2.86,13.56,13.56,0,0,1,5.27-1,14,14,0,0,1,5.35,1,11.68,11.68,0,0,1,4.11,2.86,12.82,12.82,0,0,1,2.67,4.42,17.56,17.56,0,0,1,0,11.51Zm-1.9-10.93a11.09,11.09,0,0,0-2.25-3.87,9.54,9.54,0,0,0-3.49-2.44,12.07,12.07,0,0,0-9,0,9.63,9.63,0,0,0-3.49,2.44,11.15,11.15,0,0,0-2.28,3.87,15.16,15.16,0,0,0-.78,5.16,15,15,0,0,0,.78,5.15,11.28,11.28,0,0,0,2.28,3.88,9.75,9.75,0,0,0,3.49,2.44,12.77,12.77,0,0,0,9,0,9.66,9.66,0,0,0,3.49-2.44,11.23,11.23,0,0,0,2.25-3.88,15.19,15.19,0,0,0,.78-5.15A15.41,15.41,0,0,0,402.4,304.36Z"/>
      <path class="cls-8" d="M432.94,295.84v.73c0,.43-.27.66-.77.7h-.23c-.12,0-.31,0-.51,0s-.46,0-.74,0L420,323.24h-1.75l-10.69-25.89c-.27,0-.55,0-.74,0s-.39,0-.5,0h-.27c-.51,0-.78-.27-.78-.7v-.73h7.36v.73c0,.43-.27.66-.77.7h-.31c-.16,0-.39,0-.74,0s-.77,0-1.2,0l8.95,21.74a13.19,13.19,0,0,1,.59,1.9,10.87,10.87,0,0,1,.58-1.9l8.87-21.74c-.42,0-.81,0-1.16,0s-.58,0-.74,0h-.35c-.5,0-.73-.27-.73-.7v-.73h7.32Z"/>
      <path class="cls-8" d="M442.28,297.27c-.19,0-.46,0-.85,0s-.81,0-1.28,0v24.34c.47,0,.89,0,1.28,0s.66,0,.85,0h.39c.51,0,.74.27.74.69v.78h-8.53v-.78c0-.42.27-.66.78-.69H436c.2,0,.47,0,.86,0s.81,0,1.28,0V297.35c-.47,0-.9,0-1.28,0s-.66,0-.86,0h-.38c-.51,0-.78-.27-.78-.7v-.77h8.53v.77c0,.43-.23.66-.74.7Z"/>
      <path class="cls-8" d="M462.59,315.22a8.93,8.93,0,0,1-.58,3.25,7.5,7.5,0,0,1-1.74,2.64,8.27,8.27,0,0,1-2.75,1.78,10.07,10.07,0,0,1-3.72.66,18.73,18.73,0,0,1-7.37-1.51v-6.13h.93c.54,0,.82.31.86.93,0,0,0,.27,0,.7s0,.93.08,1.55,0,1.2.08,1.74a12.66,12.66,0,0,0,5.46,1.05,7.61,7.61,0,0,0,2.91-.46,5.94,5.94,0,0,0,2.17-1.36,5.85,5.85,0,0,0,1.32-2,6.71,6.71,0,0,0,.46-2.51,4.5,4.5,0,0,0-.58-2.41,4.88,4.88,0,0,0-1.55-1.55,9.87,9.87,0,0,0-2.21-1.08l-2.52-.82c-.85-.27-1.74-.58-2.55-.93a8.23,8.23,0,0,1-2.17-1.28,5.82,5.82,0,0,1-1.59-1.93,6.66,6.66,0,0,1-.58-2.95,6.92,6.92,0,0,1,.5-2.67,6.82,6.82,0,0,1,1.55-2.25,7,7,0,0,1,2.48-1.55,9.34,9.34,0,0,1,3.41-.58,17.72,17.72,0,0,1,7.05,1.59v5.62H461c-.54,0-.77-.35-.81-1,0-.2-.08-1.44-.19-3.65a12.94,12.94,0,0,0-5.12-1,7.9,7.9,0,0,0-2.64.43,4.92,4.92,0,0,0-1.89,1.16,5.11,5.11,0,0,0-1.17,1.71,5.25,5.25,0,0,0-.42,2,4.31,4.31,0,0,0,.62,2.33,4.88,4.88,0,0,0,1.55,1.55,11.37,11.37,0,0,0,2.21,1.09c.81.27,1.66.58,2.52.85s1.74.58,2.55.93a9.48,9.48,0,0,1,2.17,1.28,5.82,5.82,0,0,1,1.59,1.93A6,6,0,0,1,462.59,315.22Z"/>
      <path class="cls-8" d="M472.52,297.27c-.2,0-.47,0-.86,0s-.81,0-1.27,0v24.34c.46,0,.89,0,1.27,0s.66,0,.86,0h.38c.51,0,.74.27.74.69v.78h-8.53v-.78c0-.42.28-.66.78-.69h.39c.19,0,.46,0,.85,0s.81,0,1.28,0V297.35c-.47,0-.89,0-1.28,0s-.66,0-.85,0h-.39c-.5,0-.78-.27-.78-.7v-.77h8.53v.77c0,.43-.23.66-.74.7Z"/>
      <path class="cls-8" d="M501.08,315.29a12.73,12.73,0,0,1-2.67,4.42,11.73,11.73,0,0,1-4.11,2.83,14,14,0,0,1-5.35,1,13.56,13.56,0,0,1-5.27-1,11.88,11.88,0,0,1-4.15-2.83,12.73,12.73,0,0,1-2.67-4.42,17.56,17.56,0,0,1,0-11.51,12.82,12.82,0,0,1,2.67-4.42,11.83,11.83,0,0,1,4.15-2.86,13.56,13.56,0,0,1,5.27-1,14,14,0,0,1,5.35,1,11.68,11.68,0,0,1,4.11,2.86,12.82,12.82,0,0,1,2.67,4.42,17.56,17.56,0,0,1,0,11.51Zm-1.9-10.93a11.23,11.23,0,0,0-2.24-3.87,9.63,9.63,0,0,0-3.49-2.44,12.1,12.1,0,0,0-9,0,9.51,9.51,0,0,0-3.48,2.44,11.16,11.16,0,0,0-2.29,3.87,15.41,15.41,0,0,0-.78,5.16,15.19,15.19,0,0,0,.78,5.15,11.3,11.3,0,0,0,2.29,3.88,9.63,9.63,0,0,0,3.48,2.44,12.79,12.79,0,0,0,9,0,9.75,9.75,0,0,0,3.49-2.44,11.37,11.37,0,0,0,2.24-3.88,15,15,0,0,0,.78-5.15A15.16,15.16,0,0,0,499.18,304.36Z"/>
      <path class="cls-8" d="M531.55,295.84v.73c0,.43-.27.66-.78.7h-.35c-.19,0-.5,0-.89,0s-.77,0-1.24,0v25.89h-1a.77.77,0,0,1-.69-.39l-17.83-23.8a11.05,11.05,0,0,1,0,1.13v21.51c.46,0,.89,0,1.27,0s.74,0,.93,0h.39c.51,0,.78.27.78.69v.78h-8.37v-.78c0-.42.27-.66.77-.69H505c.19,0,.46,0,.85,0s.82,0,1.28,0V297.35c-.46,0-.89,0-1.28,0s-.66,0-.85,0h-.39c-.5,0-.77-.27-.77-.7v-.77h4.26a1.22,1.22,0,0,1,.43.08c.11,0,.19.15.31.31l17.75,23.75a10.76,10.76,0,0,1,0-1.12V297.35c-.47,0-.93,0-1.32,0s-.7,0-.89,0H524c-.5,0-.77-.27-.77-.7v-.73h8.37Z"/>
      <path class="cls-8" d="M561.16,295.84v.73c0,.43-.27.66-.78.7H560c-.19,0-.5,0-.89,0s-.77,0-1.24,0v25.89h-1a.77.77,0,0,1-.69-.39l-17.83-23.8a11.05,11.05,0,0,1,0,1.13v21.51c.46,0,.89,0,1.28,0s.73,0,.93,0H541c.51,0,.78.27.78.69v.78h-8.37v-.78c0-.42.27-.66.77-.69h.39c.19,0,.46,0,.85,0s.82,0,1.28,0V297.35c-.46,0-.89,0-1.28,0s-.66,0-.85,0h-.39c-.5,0-.77-.27-.77-.7v-.77h4.26a1.22,1.22,0,0,1,.43.08c.11,0,.19.15.31.31l17.75,23.75a10.76,10.76,0,0,1,0-1.12V297.35c-.47,0-.93,0-1.32,0s-.7,0-.89,0h-.39c-.5,0-.77-.27-.77-.7v-.73h8.37Z"/>
      <path class="cls-8" d="M582.79,295.84v5.66h-1c-.54,0-.78-.31-.82-.93,0-.35-.07-1.4-.15-3.11H568.33v11.09h10.93v1.59H568.33v11.43h12.52c0-.35,0-.74.08-1.32s0-1,0-1.24,0-.42,0-.5c0-.62.28-1,.82-1h1v5.7H563.1v-.78c0-.42.23-.66.73-.69h.39c.2,0,.47,0,.85,0s.82,0,1.28,0V297.35c-.46,0-.89,0-1.28,0s-.65,0-.85,0h-.39c-.5,0-.77-.27-.77-.7v-.73h19.73Z"/>
      <path class="cls-8" d="M618.72,297.27c-.2,0-.51,0-.9,0s-.77,0-1.24,0v24.34c.47,0,.86,0,1.24,0s.7,0,.9,0h.34c.51,0,.78.27.78.69v.78h-8.37v-.78c0-.42.27-.66.77-.69h.39c.2,0,.51,0,.89,0s.86,0,1.32,0V299.87a10.3,10.3,0,0,1,0-1.09L604.11,318a.83.83,0,0,1-.78.5H603a.87.87,0,0,1-.78-.5l-11.08-19.19a10.3,10.3,0,0,1,0,1.09v21.82c.46,0,.93,0,1.32,0s.69,0,.89,0h.39c.5,0,.77.27.77.69v.78H586.2v-.78c0-.42.27-.66.77-.69h.39c.2,0,.47,0,.85,0s.82,0,1.28,0V297.35c-.46,0-.89,0-1.28,0s-.65,0-.85,0H587c-.5,0-.77-.27-.77-.7v-.73h4.65a1.33,1.33,0,0,1,.43,0c.11,0,.19.15.31.31l11.08,19.06a7.91,7.91,0,0,1,.5,1.17c.08-.2.16-.43.24-.62a2.76,2.76,0,0,1,.27-.58l10.77-19c.12-.16.2-.28.31-.31a1.33,1.33,0,0,1,.43,0h4.65v.73c0,.43-.27.66-.78.7Z"/>
      <path class="cls-8" d="M642.32,295.84v5.66h-1c-.54,0-.77-.31-.81-.93,0-.35-.08-1.4-.16-3.11H627.87v11.09H638.8v1.59H627.87v11.43h12.51c0-.35,0-.74.08-1.32s0-1,0-1.24,0-.42,0-.5c0-.62.27-1,.81-1h1v5.7H622.63v-.78c0-.42.24-.66.74-.69h.39c.19,0,.46,0,.85,0s.81,0,1.28,0V297.35c-.47,0-.89,0-1.28,0s-.66,0-.85,0h-.39c-.5,0-.78-.27-.78-.7v-.73h19.73Z"/>
      <path class="cls-8" d="M673.44,295.84v.73c0,.43-.27.66-.77.7h-.35c-.19,0-.5,0-.89,0s-.78,0-1.24,0v25.89h-1a.79.79,0,0,1-.7-.39l-17.83-23.8a11.05,11.05,0,0,1,0,1.13v21.51c.47,0,.89,0,1.28,0s.74,0,.93,0h.39c.5,0,.78.27.78.69v.78h-8.38v-.78c0-.42.27-.66.78-.69h.39c.19,0,.46,0,.85,0s.81,0,1.28,0V297.35c-.47,0-.89,0-1.28,0s-.66,0-.85,0h-.39c-.51,0-.78-.27-.78-.7v-.77H650a1.12,1.12,0,0,1,.42.08c.12,0,.2.15.31.31l17.75,23.75a10.76,10.76,0,0,1,0-1.12V297.35c-.46,0-.92,0-1.31,0s-.7,0-.89,0h-.39c-.51,0-.78-.27-.78-.7v-.73h8.37Z"/>
      <path class="cls-8" d="M696.43,295.84v5.66h-.93c-.54,0-.81-.31-.85-.93,0-.08,0-1.09-.16-3.07h-8v24.19c.46,0,.89,0,1.28,0s.66,0,.85,0H689c.5,0,.77.27.77.69v.78h-8.52v-.78c0-.42.27-.66.77-.69h.35c.19,0,.5,0,.89,0s.78,0,1.24,0V297.5h-8c-.08,1.79-.16,2.79-.16,3.07,0,.62-.27.93-.81.93h-1v-5.66h21.86Z"/>
    </g>
  </g>
  <g>
    <rect x="92.53" y="203.57" width="41.23" height="4"/>
    <rect x="92.53" y="213.48" width="41.23" height="4"/>
    <polygon points="79.73 215.44 74.58 210.68 77.3 207.74 79.29 209.59 85.73 201.51 88.85 204.01 79.73 215.44"/>
    <rect x="92.53" y="227.83" width="41.23" height="4"/>
    <rect x="92.53" y="237.74" width="41.23" height="4"/>
    <polygon points="79.73 239.71 74.58 234.94 77.29 232.01 79.29 233.85 85.73 225.78 88.85 228.27 79.73 239.71"/>
  </g>
  <g>
    <path class="cls-9" d="M272,407.2H99.69a13.85,13.85,0,1,1,0-27.69h57.37v4.13H99.69a9.72,9.72,0,1,0,0,19.43H272Z"/>
    <line class="cls-1" x1="270.74" y1="482.02" x2="260.85" y2="482.02"/>
    <path class="cls-1" d="M209.59,462.94V446.75a4.48,4.48,0,0,1,4.47-4.48h0a4.49,4.49,0,0,1,4.48,4.48v16.19"/>
    <path class="cls-1" d="M218.69,462.94V437a4.47,4.47,0,0,1,4.47-4.47h0a4.48,4.48,0,0,1,4.48,4.47v25.91"/>
    <path class="cls-1" d="M227.79,462.94V432.45a4.47,4.47,0,0,1,4.47-4.47h0a4.48,4.48,0,0,1,4.48,4.47v30.49"/>
    <path class="cls-1" d="M236.89,462.94V440.19a4.47,4.47,0,0,1,4.47-4.47h0a4.48,4.48,0,0,1,4.48,4.47v22.75"/>
    <path class="cls-9" d="M332,429h-6.28v-4.12H332a8.86,8.86,0,1,0,0-17.71H270.12v-4.13H332a13,13,0,1,1,0,26Z"/>
    <g>
      <rect class="cls-1" x="204.04" y="413.65" width="117.99" height="58.89" rx="2.1" ry="2.1"/>
      <path class="cls-1" d="M319.92,473H206.14a2.61,2.61,0,0,1-2.6-2.6V415.75a2.61,2.61,0,0,1,2.6-2.6H319.92a2.6,2.6,0,0,1,2.6,2.6v54.69A2.6,2.6,0,0,1,319.92,473ZM206.14,414.15a1.6,1.6,0,0,0-1.6,1.6v54.69a1.6,1.6,0,0,0,1.6,1.6H319.92a1.6,1.6,0,0,0,1.6-1.6V415.75a1.6,1.6,0,0,0-1.6-1.6Z"/>
    </g>
    <path d="M201.66,411.39a4.5,4.5,0,0,0-4.63,4.36v54.69a4.5,4.5,0,0,0,4.63,4.36H322.44a4.5,4.5,0,0,0,4.63-4.36V415.75a4.5,4.5,0,0,0-4.63-4.36Zm120.62,58.89H201.82V415.91H322.28Zm-119.66-.75H321.48V416.66H202.62Z"/>
    <polygon class="cls-1" points="202.2 470.5 322.2 470.5 322.2 416.51 202.2 415.91 202.2 470.5"/>
    <g>
      <g>
        <g>
          <line class="cls-7" x1="211.86" y1="424.34" x2="220.88" y2="424.34"/>
          <rect class="cls-7" x="211.86" y="421.7" width="9.02" height="5.27"/>
        </g>
        <g>
          <line class="cls-7" x1="224.91" y1="424.34" x2="233.93" y2="424.34"/>
          <rect class="cls-7" x="224.91" y="421.7" width="9.02" height="5.27"/>
        </g>
        <g>
          <line class="cls-7" x1="237.96" y1="424.34" x2="246.98" y2="424.34"/>
          <rect class="cls-7" x="237.96" y="421.7" width="9.02" height="5.27"/>
        </g>
        <g>
          <line class="cls-7" x1="251.01" y1="424.34" x2="260.03" y2="424.34"/>
          <rect class="cls-7" x="251.01" y="421.7" width="9.02" height="5.27"/>
        </g>
        <g>
          <line class="cls-7" x1="264.06" y1="424.34" x2="273.08" y2="424.34"/>
          <rect class="cls-7" x="264.06" y="421.7" width="9.02" height="5.27"/>
        </g>
        <g>
          <line class="cls-7" x1="277.11" y1="424.34" x2="286.13" y2="424.34"/>
          <rect class="cls-7" x="277.11" y="421.7" width="9.02" height="5.27"/>
        </g>
        <g>
          <line class="cls-7" x1="290.15" y1="424.34" x2="299.17" y2="424.34"/>
          <rect class="cls-7" x="290.15" y="421.7" width="9.02" height="5.27"/>
        </g>
        <g>
          <line class="cls-7" x1="303.2" y1="424.34" x2="312.22" y2="424.34"/>
          <rect class="cls-7" x="303.2" y="421.7" width="9.02" height="5.27"/>
        </g>
      </g>
      <g>
        <g>
          <line class="cls-7" x1="211.86" y1="436.41" x2="220.88" y2="436.41"/>
          <rect class="cls-7" x="211.86" y="433.78" width="9.02" height="5.27"/>
        </g>
        <g>
          <line class="cls-7" x1="224.91" y1="436.41" x2="233.93" y2="436.41"/>
          <rect class="cls-7" x="224.91" y="433.78" width="9.02" height="5.27"/>
        </g>
        <g>
          <line class="cls-7" x1="237.96" y1="436.41" x2="246.98" y2="436.41"/>
          <rect class="cls-7" x="237.96" y="433.78" width="9.02" height="5.27"/>
        </g>
        <g>
          <line class="cls-7" x1="251.01" y1="436.41" x2="260.03" y2="436.41"/>
          <rect class="cls-7" x="251.01" y="433.78" width="9.02" height="5.27"/>
        </g>
        <g>
          <line class="cls-7" x1="264.06" y1="436.41" x2="273.08" y2="436.41"/>
          <rect class="cls-7" x="264.06" y="433.78" width="9.02" height="5.27"/>
        </g>
        <g>
          <line class="cls-7" x1="277.11" y1="436.41" x2="286.13" y2="436.41"/>
          <rect class="cls-7" x="277.11" y="433.78" width="9.02" height="5.27"/>
        </g>
        <g>
          <line class="cls-7" x1="290.15" y1="436.41" x2="299.17" y2="436.41"/>
          <rect class="cls-7" x="290.15" y="433.78" width="9.02" height="5.27"/>
        </g>
        <g>
          <line class="cls-7" x1="303.2" y1="436.41" x2="312.22" y2="436.41"/>
          <rect class="cls-7" x="303.2" y="433.78" width="9.02" height="5.27"/>
        </g>
      </g>
      <g>
        <g>
          <line class="cls-7" x1="211.86" y1="448.48" x2="220.88" y2="448.48"/>
          <rect class="cls-7" x="211.86" y="445.84" width="9.02" height="5.27"/>
        </g>
        <g>
          <line class="cls-7" x1="224.91" y1="448.48" x2="233.93" y2="448.48"/>
          <rect class="cls-7" x="224.91" y="445.84" width="9.02" height="5.27"/>
        </g>
        <g>
          <line class="cls-7" x1="237.96" y1="448.48" x2="246.98" y2="448.48"/>
          <rect class="cls-7" x="237.96" y="445.84" width="9.02" height="5.27"/>
        </g>
        <g>
          <line class="cls-7" x1="251.01" y1="448.48" x2="260.03" y2="448.48"/>
          <rect class="cls-7" x="251.01" y="445.84" width="9.02" height="5.27"/>
        </g>
        <g>
          <line class="cls-7" x1="264.06" y1="448.48" x2="273.08" y2="448.48"/>
          <rect class="cls-7" x="264.06" y="445.84" width="9.02" height="5.27"/>
        </g>
        <g>
          <line class="cls-7" x1="277.11" y1="448.48" x2="286.13" y2="448.48"/>
          <rect class="cls-7" x="277.11" y="445.84" width="9.02" height="5.27"/>
        </g>
        <g>
          <line class="cls-7" x1="290.15" y1="448.48" x2="299.17" y2="448.48"/>
          <rect class="cls-7" x="290.15" y="445.84" width="9.02" height="5.27"/>
        </g>
        <g>
          <line class="cls-7" x1="303.2" y1="448.48" x2="312.22" y2="448.48"/>
          <rect class="cls-7" x="303.2" y="445.84" width="9.02" height="5.27"/>
        </g>
      </g>
      <g>
        <g>
          <line class="cls-7" x1="211.86" y1="460.54" x2="220.88" y2="460.54"/>
          <rect class="cls-7" x="211.86" y="457.91" width="9.02" height="5.27"/>
        </g>
        <g>
          <line class="cls-7" x1="224.91" y1="460.54" x2="233.93" y2="460.54"/>
          <rect class="cls-7" x="224.91" y="457.91" width="9.02" height="5.27"/>
        </g>
        <g>
          <line class="cls-7" x1="237.96" y1="460.54" x2="286.25" y2="460.54"/>
          <rect class="cls-7" x="237.96" y="457.91" width="48.29" height="5.27"/>
        </g>
        <g>
          <line class="cls-7" x1="290.15" y1="460.54" x2="299.17" y2="460.54"/>
          <rect class="cls-7" x="290.15" y="457.91" width="9.02" height="5.27"/>
        </g>
        <g>
          <line class="cls-7" x1="303.2" y1="460.54" x2="312.22" y2="460.54"/>
          <rect class="cls-7" x="303.2" y="457.91" width="9.02" height="5.27"/>
        </g>
      </g>
    </g>
    <g>
      <path class="cls-1" d="M319.29,464.57a4.47,4.47,0,0,0-4.46-4.47c-2.47,0-4.47.88-4.47,3.35v-1.12a4.46,4.46,0,0,0-8.92,0V460.1a4.46,4.46,0,1,0-8.92,0v2.51c0-6,0-25.71,0-25.71a4.62,4.62,0,0,0-9.24,0l0,45.11-.1-2.2v-9.22a6.81,6.81,0,0,0-6.81-6.82H274c-.1,0,.09,0,0,0v8.53s0,0,0,0v11.32l12.92,15a11.91,11.91,0,0,0,5.41,2.95v9.15h22.32V499.59a12,12,0,0,0,4.82-9.6V469.16Z"/>
      <path d="M316.69,512.78H290.37v-9.67a14,14,0,0,1-4.79-3l-.14-.14L272,484.39l.08-22.62h4.19a8.77,8.77,0,0,1,4.92,1.51V436.9a6.62,6.62,0,0,1,13.24,0h0s0,9.43,0,17.23a6.33,6.33,0,0,1,2.47-.49,6.46,6.46,0,0,1,5.56,3.17,6.41,6.41,0,0,1,3.36-.94,6.48,6.48,0,0,1,5.4,2.91,8.43,8.43,0,0,1,3.53-.68,6.47,6.47,0,0,1,6.46,6.47l.22,4.5V490a13.83,13.83,0,0,1-4.82,10.56Zm-22.32-4h18.32V498.59l.8-.6a9.89,9.89,0,0,0,4-8V469.16l-.22-4.5a2.49,2.49,0,0,0-2.46-2.56c-2.47,0-2.47.91-2.47,1.35h-4v-1.12a2.46,2.46,0,0,0-4.92,0h-4V460.1a2.46,2.46,0,1,0-4.92,0v2.5h-4c0-6.07,0-25.69,0-25.69a2.62,2.62,0,0,0-5.24,0l0,45.11-4,.08-.09-2.2v-9.3a4.82,4.82,0,0,0-4.81-4.82H276v17.14L288.4,497.3a10,10,0,0,0,4.44,2.39l1.53.37Z"/>
      <rect class="cls-2" x="282.65" y="506.13" width="45.42" height="18.37"/>
    </g>
    <g>
      <path class="cls-1" d="M206.59,445.06V490a12,12,0,0,0,4.82,9.6v11.19h22.32v-9.15a11.91,11.91,0,0,0,5.41-2.95l12.92-15V472.33s0,0,0,0v-8.53c-.09,0,.1,0,0,0H249.8a6.81,6.81,0,0,0-6.82,6.82v9.22l-.1,2.2,0-18.56,0-23.26-3.78-3.78h-5.17L232.14,429l-6.06-1L224,434l-5.87-1.13-1.88,5.63-.51,6-4.63-2.19Z"/>
      <path d="M235.73,512.78H209.41V500.55A13.83,13.83,0,0,1,204.59,490V462.78h4V490a9.91,9.91,0,0,0,4,8l.8.6v10.19h18.32v-8.72l1.53-.37a10,10,0,0,0,4.44-2.39l12.36-14.39V465.77h-.26a4.82,4.82,0,0,0-4.82,4.82v9.22l-.1,2.28-4-.08,0-19.22h4v.51a8.75,8.75,0,0,1,4.94-1.52H254l.11,22.62-13.54,15.74a14,14,0,0,1-4.79,3Z"/>
      <path d="M217.54,462.94h-4V446.75a2.48,2.48,0,1,0-4.95,0v16.19h-4V446.75a6.48,6.48,0,1,1,12.95,0Z"/>
      <path d="M226.64,462.94h-4V437a2.48,2.48,0,0,0-4.95,0v25.91h-4V437a6.48,6.48,0,0,1,12.95,0Z"/>
      <path d="M235.74,462.94h-4V432.45a2.48,2.48,0,0,0-5,0v30.49h-4V432.45a6.48,6.48,0,0,1,13,0Z"/>
      <path d="M244.84,462.94h-4V440.19a2.48,2.48,0,0,0-5,0v22.75h-4V440.19a6.48,6.48,0,0,1,13,0Z"/>
      <rect class="cls-2" x="198.03" y="506.13" width="45.42" height="18.37"/>
    </g>
  </g>
  <g>
    <polygon class="cls-10" points="452.2 396.5 452.2 377.5 432.88 377.5 452.2 396.5"/>
    <g>
      <polygon class="cls-6" points="377.75 460.41 453.57 460.41 453.57 404.71 453.57 376.8 433.56 356.79 377.75 356.79 377.75 377.46 377.75 404.71 377.75 460.41"/>
      <polygon points="432.88 377.58 453.57 377.58 432.88 356.79 432.88 377.58"/>
    </g>
    <line class="cls-11" x1="386.42" y1="381.15" x2="420.6" y2="381.15"/>
    <line class="cls-11" x1="385.98" y1="396.3" x2="442.83" y2="396.3"/>
    <line class="cls-11" x1="385.98" y1="403.87" x2="442.83" y2="403.87"/>
    <line class="cls-11" x1="385.98" y1="411.44" x2="442.83" y2="411.44"/>
    <line class="cls-11" x1="385.98" y1="419.15" x2="442.48" y2="419.15"/>
    <line class="cls-11" x1="426.14" y1="430.66" x2="442.48" y2="430.66"/>
  </g>
  <g>
    <g>
      <path class="cls-1" d="M469.24,456.39v3.26a.74.74,0,0,0,.75.73h5.27a.73.73,0,0,0,.74-.73v-3.26"/>
      <path d="M467.43,459.65v-3.26h3.63v2.17h3.12v-2.17h3.64v3.26a2.56,2.56,0,0,1-2.56,2.55H470A2.55,2.55,0,0,1,467.43,459.65Z"/>
    </g>
    <polygon points="467.43 379.55 467.43 377.74 472.62 366.28 477.81 377.74 477.81 379.55 474.17 379.55 474.17 378.52 472.62 375.09 471.06 378.52 471.06 379.55 467.43 379.55"/>
    <rect class="cls-5" x="467.36" y="378.34" width="10.53" height="67.99"/>
    <rect class="cls-2" x="467.35" y="448.92" width="10.53" height="7.48"/>
    <rect x="467.35" y="445.67" width="10.53" height="3.64"/>
  </g>
  <g>
    <g>
      <path class="cls-1" d="M633.91,453.33V443l-9.22-.76a27.91,27.91,0,0,0-3.64-9.42l6.16-7.28-7.33-7.34-7.06,6a28.28,28.28,0,0,0-9.24-4.09l-.79-9.5H592.42l-.77,9.22a28.08,28.08,0,0,0-9.42,3.64L575,417.24l-7.34,7.33,6,7.06a28.32,28.32,0,0,0-4.09,9.23l-9.5.8V452l9.22.77a27.93,27.93,0,0,0,3.63,9.41l-6.15,7.28,7.33,7.34,7.06-6a28.14,28.14,0,0,0,9.23,4.09l.79,9.5H601.5l.76-9.22a27.9,27.9,0,0,0,9.42-3.63l7.28,6.15,7.34-7.33-6-7.06a28,28,0,0,0,4.08-9.23Z"/>
      <path d="M603.34,486.44H589.28l-.82-9.93a29.88,29.88,0,0,1-7.2-3.17l-7.33,6.2L564,469.61l6.44-7.61a29.71,29.71,0,0,1-2.84-7.33l-9.58-.8V439.82l9.93-.83a30.23,30.23,0,0,1,3.17-7.2l-6.21-7.33,9.94-9.94,7.61,6.44a29.71,29.71,0,0,1,7.33-2.84l.8-9.58h14l.83,9.93a30,30,0,0,1,7.19,3.18l7.34-6.21,9.94,9.94-6.44,7.6a30,30,0,0,1,2.84,7.34l9.58.79v14.05L626,456a30.26,30.26,0,0,1-3.18,7.2l6.21,7.33-9.94,9.94-7.6-6.44a29.86,29.86,0,0,1-7.33,2.84Zm-10.38-4h6.7l.74-8.9,1.49-.28a26.23,26.23,0,0,0,8.75-3.38l1.23-.75,7,5.9,4.73-4.73-5.77-6.82.86-1.25a26.3,26.3,0,0,0,3.79-8.58l.34-1.41,9.11-.75v-6.7l-8.9-.74-.28-1.49a26.36,26.36,0,0,0-3.38-8.75l-.76-1.23,5.9-7-4.73-4.73L613,426.64l-1.26-.86a26.07,26.07,0,0,0-8.57-3.79l-1.41-.34-.76-9.11h-6.69l-.74,8.9-1.49.28a26.07,26.07,0,0,0-8.75,3.38l-1.23.76-7-5.91-4.73,4.73,5.76,6.82-.85,1.26a25.86,25.86,0,0,0-3.79,8.57l-.34,1.41-9.11.76v6.69l8.9.74.28,1.49a25.86,25.86,0,0,0,3.38,8.75l.75,1.23-5.9,7,4.73,4.73,6.82-5.77,1.25.86A26,26,0,0,0,590.8,473l1.4.34Z"/>
    </g>
    <path class="cls-3" d="M615.43,447.49A18.48,18.48,0,1,1,597,429,18.48,18.48,0,0,1,615.43,447.49Z"/>
    <g>
      <path d="M598.91,450.58l-6.26-2.44c-2.57-1.63-3.11-3.46-3.11-4.7v-2.63a5.87,5.87,0,0,1,5.87-5.86h3.1a5.87,5.87,0,0,1,5.86,5.86V442h-4v-1.23a1.86,1.86,0,0,0-1.86-1.86h-3.1a1.87,1.87,0,0,0-1.87,1.86v2.63c0,.23.3.68,1.1,1.22l5.7,2.18Z"/>
      <path d="M598.51,460.49h-3.1a5.87,5.87,0,0,1-5.87-5.86v-1.24h4v1.24a1.87,1.87,0,0,0,1.87,1.86h3.1a1.86,1.86,0,0,0,1.86-1.86V452c0-.21-.31-.71-1.16-1.29l-5.43-2.08,1.44-3.74,6,2.35c2.63,1.67,3.18,3.51,3.18,4.76v2.64A5.87,5.87,0,0,1,598.51,460.49Z"/>
      <g>
        <line class="cls-1" x1="597.19" y1="431.65" x2="597.19" y2="437.43"/>
        <rect x="595.19" y="431.65" width="4" height="5.77"/>
      </g>
      <g>
        <line class="cls-1" x1="597.19" y1="457.56" x2="597.19" y2="463.33"/>
        <rect x="595.19" y="457.56" width="4" height="5.77"/>
      </g>
    </g>
  </g>
  <path class="cls-2" d="M666.32,474.7a13,13,0,0,0-1.08-2.44l3.58-4.23-4.7-4.7-4.38,3.7a13,13,0,0,0-2.48-1l-.46-5.52h-6.65l-.48,5.71a13.32,13.32,0,0,0-2.44,1.08L643,463.75l-4.69,4.71,3.69,4.37a13.36,13.36,0,0,0-1,2.49l-5.52.46v6.64l5.71.48a13.32,13.32,0,0,0,1.08,2.44l-3.58,4.23,4.7,4.7,4.38-3.7a12.85,12.85,0,0,0,2.49,1l.45,5.52h6.65l.48-5.71a13.32,13.32,0,0,0,2.44-1.08l4.23,3.58,4.7-4.7-3.7-4.37a13.36,13.36,0,0,0,1-2.49l5.52-.46v-6.65Zm-6.19,4.1a6.36,6.36,0,1,1-6.35-6.36A6.35,6.35,0,0,1,660.13,478.8Z"/>
  <path d="M618.46,528.26a7.74,7.74,0,1,1,7.74-7.74A7.75,7.75,0,0,1,618.46,528.26Zm0-11.48a3.74,3.74,0,1,0,3.74,3.74A3.75,3.75,0,0,0,618.46,516.78Z"/>
  <g>
    <g>
      <g>
        <rect class="cls-1" x="638.83" y="174.11" width="105.06" height="71.57"/>
        <path d="M745.83,247.63h-109V172.16h109Zm-105.06-3.89H741.94V176.05H640.77Z"/>
      </g>
      <rect class="cls-10" x="646.2" y="181.48" width="90.31" height="56.83"/>
      <rect class="cls-3" x="684.9" y="176.11" width="12.9" height="67.57"/>
      <g>
        <path d="M682.53,212.27H654.34c-10.52,0-17.32-7.91-17.32-20.16V179.49h3.89v12.62c0,7.87,3.53,16.27,13.43,16.27h28.19Z"/>
        <path d="M728.36,212.27H701v-3.89h27.4c6.5,0,13.44-4.31,13.44-16.39V179.37h3.89V192C745.69,204.12,738.72,212.27,728.36,212.27Z"/>
      </g>
      <polygon points="717.1 172.76 713.21 172.76 713.21 162.38 669.49 162.38 669.49 172.76 665.6 172.76 665.6 158.48 717.1 158.48 717.1 172.76"/>
      <g>
        <path class="cls-1" d="M677.72,124.72v4.35a10.64,10.64,0,0,0-4.29,8.53v18.5l.2,4.09a4,4,0,0,0,4,4c2.19,0,4-.78,4-3v1a4,4,0,0,0,7.93,0v2a4,4,0,1,0,7.93,0v-2.23a4.17,4.17,0,0,0,4.13,3.82,4.1,4.1,0,0,0,4.1-4.1l0-16.95.08,1.95v8.2a6.05,6.05,0,0,0,6.06,6h2c.09,0-.08,0,0,0V153.3s0,0,0,0V143.23l-11.48-13.35a10.61,10.61,0,0,0-4.81-2.63v-2.53"/>
        <path d="M693.45,170.06a5.91,5.91,0,0,1-5-2.76,5.8,5.8,0,0,1-2.93.78,5.91,5.91,0,0,1-4.85-2.54,7.78,7.78,0,0,1-3.08.56,5.92,5.92,0,0,1-5.91-5.91l-.19-4V137.6a12.48,12.48,0,0,1,4.29-9.46v-6.42h3.89V130l-.78.59a8.62,8.62,0,0,0-3.51,7v18.5l.2,4a2.05,2.05,0,0,0,2,2.12c2,0,2-.7,2-1h3.89v1a2,2,0,0,0,4,0h3.89v2a2,2,0,1,0,4,0v-2.23h3.89a2.25,2.25,0,0,0,2.19,1.87,2.16,2.16,0,0,0,2.16-2.15l0-16.95,3.89-.08.08,1.95v8.28a4.12,4.12,0,0,0,4.12,4.11h.07v-5.5l-.22-1.55.22-.07V144L701,131.22a8.75,8.75,0,0,0-3.87-2.08l-1.48-.36v-7.06h3.89v4.11a12.72,12.72,0,0,1,4.2,2.63l.14.15,11.94,13.9.06,12.24h-.06v4.4l.12,0-.12,2.2v1.31h-.08v.13h-3.87a8,8,0,0,1-4.22-1.21h0a6,6,0,0,1-8.94,5.3A5.93,5.93,0,0,1,693.45,170.06Z"/>
      </g>
      <g>
        <g>
          <rect x="694.35" y="174.43" width="3.89" height="24.41"/>
          <rect x="684.47" y="174.43" width="3.89" height="24.41"/>
        </g>
        <g>
          <rect x="694.35" y="221.63" width="3.89" height="23.18"/>
          <rect x="684.47" y="221.63" width="3.89" height="23.18"/>
        </g>
        <path d="M697.27,224.13H685.44a4,4,0,0,1-3.94-3.94V201.43a3.94,3.94,0,0,1,3.94-3.93h11.83a3.94,3.94,0,0,1,3.94,3.93v18.76A4,4,0,0,1,697.27,224.13Zm-11.83-22.74-.05,18.8,11.88.05a0,0,0,0,0,.05-.05V201.43Z"/>
        <rect x="689.41" y="214.28" width="3.89" height="6.67"/>
      </g>
    </g>
    <path class="cls-5" d="M566.25,161.16h-38.9V90.88a90.84,90.84,0,1,1,181.67,0v32.64h-38.9V90.88a51.94,51.94,0,1,0-103.87,0Z"/>
  </g>
  <g>
    <polygon points="631.71 80.76 621.92 70.97 624.74 68.14 631.71 75.1 661.62 45.19 674.84 58.41 707.94 25.3 710.77 28.13 674.84 64.06 661.62 50.85 631.71 80.76"/>
    <polygon points="713.29 45.35 709.29 45.35 709.29 28.12 692.06 28.12 692.06 24.12 713.29 24.12 713.29 45.35"/>
  </g>
  <g>
    <path class="cls-5" d="M637,341.24c-.09,0-.24.06-.46.09l-.88.16v16l.88.15c.22,0,.37.09.46.09a1.06,1.06,0,0,1,.18,0,.88.88,0,0,1,.76.95v1.79h-8.64v-1.79a.89.89,0,0,1,.76-.95l2-.27v-11.2c0-.27,0-.54,0-.85s0-.64.06-1l-6.63,12.47a1.8,1.8,0,0,1-.61.67,1.58,1.58,0,0,1-.85.25h-.55a1.58,1.58,0,0,1-.85-.25,1.8,1.8,0,0,1-.61-.67l-6.72-12.5c0,.33,0,.67.06,1s0,.61,0,.88v11.2l2,.27a.89.89,0,0,1,.76.95v1.79h-8.64v-1.79a.88.88,0,0,1,.76-.95.53.53,0,0,0,.18,0,2.82,2.82,0,0,1,.46-.09l.91-.15v-16l-.91-.16c-.22,0-.37-.09-.46-.09a.53.53,0,0,0-.18,0,.87.87,0,0,1-.76-.94v-1.8h5.38c.18,0,.37,0,.49,0a1.28,1.28,0,0,1,.36.07c.13,0,.19.12.28.21a1.87,1.87,0,0,1,.27.36l6.57,12.2c.19.34.31.67.46,1s.3.7.46,1.06c.15-.36.27-.7.42-1.06a11,11,0,0,1,.49-1l6.51-12.17a1.87,1.87,0,0,1,.24-.36.72.72,0,0,1,.31-.21,1.53,1.53,0,0,1,.36-.07c.12,0,.28,0,.46,0h5.38v1.8a.87.87,0,0,1-.76.94A1.06,1.06,0,0,1,637,341.24Z"/>
    <path class="cls-5" d="M652.34,341.37a2.31,2.31,0,0,1-1.67.51h-6.09l-.79,4.6a12.78,12.78,0,0,1,2.74-.31,8.6,8.6,0,0,1,3,.52,6.16,6.16,0,0,1,2.22,1.43,5.78,5.78,0,0,1,1.37,2.13,7.41,7.41,0,0,1,.43,2.65,8,8,0,0,1-.61,3.19,7.28,7.28,0,0,1-1.71,2.47,7.76,7.76,0,0,1-2.58,1.58,9.54,9.54,0,0,1-3.26.58,7.86,7.86,0,0,1-2-.22,10,10,0,0,1-1.73-.58,9.55,9.55,0,0,1-1.52-.82,10.2,10.2,0,0,1-1.22-1l1.16-1.61a1.16,1.16,0,0,1,1-.52,1.48,1.48,0,0,1,.76.24c.25.16.55.37.89.55a7.7,7.7,0,0,0,1.21.52,5.32,5.32,0,0,0,1.65.24,4.86,4.86,0,0,0,1.82-.3,3.89,3.89,0,0,0,1.34-.95,3.69,3.69,0,0,0,.79-1.43,5.9,5.9,0,0,0,.24-1.82,3.69,3.69,0,0,0-1-2.8,4.28,4.28,0,0,0-3.07-1,9.24,9.24,0,0,0-3.2.57l-2.34-.67L642,338.47h10.87v1.62A1.74,1.74,0,0,1,652.34,341.37Z"/>
    <path class="cls-5" d="M670.29,354.48a10.59,10.59,0,0,1-1.71,3.5,7.37,7.37,0,0,1-2.58,2.07,8,8,0,0,1-6.39,0,7.12,7.12,0,0,1-2.53-2.07,9.86,9.86,0,0,1-1.7-3.5,18.59,18.59,0,0,1-.61-5,18.31,18.31,0,0,1,.61-5,9.77,9.77,0,0,1,1.7-3.5,7.12,7.12,0,0,1,2.53-2.07,7.36,7.36,0,0,1,9,2.07,10.49,10.49,0,0,1,1.71,3.5,17.56,17.56,0,0,1,.61,5A17.83,17.83,0,0,1,670.29,354.48Zm-3.62-9a8.15,8.15,0,0,0-.95-2.49,3.26,3.26,0,0,0-1.34-1.28,3.65,3.65,0,0,0-1.58-.36,3.46,3.46,0,0,0-1.55.36,3.51,3.51,0,0,0-1.34,1.28,8.2,8.2,0,0,0-.91,2.49,21.32,21.32,0,0,0,0,7.91,8.17,8.17,0,0,0,.91,2.5,3.69,3.69,0,0,0,1.34,1.31,3.49,3.49,0,0,0,1.55.39,3.68,3.68,0,0,0,1.58-.39,3.32,3.32,0,0,0,1.34-1.28,8.33,8.33,0,0,0,.95-2.53,23.87,23.87,0,0,0,0-7.91Z"/>
    <path class="cls-5" d="M687.62,354.48a10.39,10.39,0,0,1-1.7,3.5,7.31,7.31,0,0,1-2.59,2.07,7.47,7.47,0,0,1-3.19.67,7.55,7.55,0,0,1-3.2-.67,7.18,7.18,0,0,1-2.52-2.07,9.86,9.86,0,0,1-1.7-3.5,18.59,18.59,0,0,1-.61-5,18.31,18.31,0,0,1,.61-5,9.77,9.77,0,0,1,1.7-3.5,7.18,7.18,0,0,1,2.52-2.07,7.4,7.4,0,0,1,3.2-.67,7.1,7.1,0,0,1,5.78,2.74,10.3,10.3,0,0,1,1.7,3.5,17.21,17.21,0,0,1,.61,5A17.47,17.47,0,0,1,687.62,354.48Zm-3.62-9a7.91,7.91,0,0,0-.94-2.49,3.32,3.32,0,0,0-1.34-1.28,3.68,3.68,0,0,0-1.58-.36,3.43,3.43,0,0,0-1.55.36,3.51,3.51,0,0,0-1.34,1.28,7.94,7.94,0,0,0-.91,2.49,21.32,21.32,0,0,0,0,7.91,7.91,7.91,0,0,0,.91,2.5,3.69,3.69,0,0,0,1.34,1.31,3.46,3.46,0,0,0,1.55.39,3.72,3.72,0,0,0,1.58-.39,3.39,3.39,0,0,0,1.34-1.28,8.08,8.08,0,0,0,.94-2.53,23.17,23.17,0,0,0,0-7.91Z"/>
  </g>
  <g>
    <g>
      <g>
        <path class="cls-2" d="M843.68,313.85H823.16c-.14-1.94-.58-4.47-1.8-6.09-7.58-9.75-8.06-19-8.06-19.7a20.1,20.1,0,0,1,40.2,0c0,.66-.47,9.94-8,19.7C844.23,309.38,843.81,311.91,843.68,313.85Z"/>
        <path class="cls-1" d="M846.65,288h3.05a16.28,16.28,0,0,0-16.3-16.22v3.05A13.22,13.22,0,0,1,846.65,288Z"/>
        <g>
          <rect x="830.37" y="303.56" width="17.48" height="2.37" transform="translate(390.36 1076.5) rotate(-79.78)"/>
          <rect x="826.5" y="296.01" width="2.37" height="17.48" transform="translate(-40.95 151.73) rotate(-10.22)"/>
        </g>
        <polygon points="828.1 299.49 829.16 299.49 831.02 298.57 832.88 299.49 833.94 299.49 835.79 298.57 837.65 299.49 838.71 299.49 841.1 298.31 840.04 296.18 838.18 297.1 836.32 296.18 835.26 296.18 833.41 297.1 831.55 296.18 830.49 296.18 828.63 297.1 826.77 296.18 825.71 298.31 828.1 299.49"/>
        <g>
          <rect x="820.33" y="312.56" width="26.14" height="3.05"/>
          <rect x="820.33" y="317.64" width="26.14" height="3.05"/>
          <rect x="820.33" y="322.72" width="26.14" height="3.05"/>
          <rect x="823.89" y="327.8" width="19.03" height="3.05"/>
          <rect x="841.92" y="314.36" width="3.05" height="9.65"/>
        </g>
      </g>
      <g>
        <path class="cls-1" d="M826.25,353.23c.17-5.38,4.36-12,10.61-14.41"/>
        <path d="M827.77,353.28c.15-4.67,3.79-10.82,9.63-13l-1.08-2.85c-7,2.67-11.42,10.13-11.59,15.79Z"/>
      </g>
      <g>
        <polyline class="cls-1" points="850.05 342.55 851.87 344.24 834.57 359.89"/>
        <polygon points="835.6 361.02 854.12 344.26 851.09 341.43 849.01 343.66 849.62 344.23 833.55 358.76 835.6 361.02"/>
      </g>
      <g>
        <path class="cls-1" d="M811.75,361.84l0-32.49,5.79-13,12.89.19a1.22,1.22,0,0,1,0,.27l0,2.15a6.44,6.44,0,0,1-6.54,6.34l-1.41-.05-2,6c4.05,3,6.79,8.68,6.79,15.23a20.34,20.34,0,0,1-4.2,12.74"/>
        <path d="M824.2,360.16a21.67,21.67,0,0,0,4.54-13.69c0-6.34-2.47-12.26-6.52-15.76l1.29-3.9h.41a8,8,0,0,0,8-7.84l0-2.14c0-.08,0-.18,0-.28l0-1.47-1.46-.07-13.9-.21L810.19,329l0,32.84h3l0-32.19,5.25-11.78,10.38.15v.89a4.92,4.92,0,0,1-4.92,4.84h-.08l-2.52-.08-2.7,8.11.89.66c3.8,2.81,6.17,8.17,6.17,14a19,19,0,0,1-3.86,11.78Z"/>
      </g>
      <g>
        <g>
          <path class="cls-1" d="M849.11,340.05a3.73,3.73,0,0,1-2.11,4.81l-2.72,1.06a3.72,3.72,0,0,1-4.81-2.11h0a3.72,3.72,0,0,1,2.11-4.81l2.72-1.06a3.73,3.73,0,0,1,4.81,2.11Z"/>
          <path d="M838.05,344.36a5.14,5.14,0,0,1,.09-4,5.22,5.22,0,0,1,2.89-2.78l2.72-1.06a5.38,5.38,0,0,1,1.9-.36,5.24,5.24,0,0,1,1.9,10.12l-2.72,1.06a5.17,5.17,0,0,1-1.9.36h0A5.21,5.21,0,0,1,838.05,344.36Zm6.8-5-2.72,1.06a2.2,2.2,0,0,0-1.24,2.83,2.23,2.23,0,0,0,2.83,1.25l2.72-1.06a2.2,2.2,0,0,0,1.25-2.83,2.18,2.18,0,0,0-2-1.4A2.22,2.22,0,0,0,844.85,339.36Z"/>
        </g>
        <g>
          <path class="cls-1" d="M843.88,331.14a3.72,3.72,0,0,1-.31,5.24l-2.18,1.94a3.72,3.72,0,0,1-5.24-.31h0a3.71,3.71,0,0,1,.31-5.24l2.18-1.94a3.72,3.72,0,0,1,5.24.31Z"/>
          <path d="M835,339a5.25,5.25,0,0,1,.43-7.39l2.18-1.95a5.24,5.24,0,1,1,7,7.83l-2.18,1.94a5.23,5.23,0,0,1-3.47,1.32h0A5.26,5.26,0,0,1,835,339Zm4.64-7.06-2.18,1.94a2.19,2.19,0,0,0-.18,3.09,2.17,2.17,0,0,0,1.64.73h0a2.19,2.19,0,0,0,1.45-.55l2.17-1.93a2.19,2.19,0,1,0-2.9-3.28Z"/>
        </g>
        <g>
          <path class="cls-1" d="M853.45,341.13a3.72,3.72,0,0,1-3.71,3.72h-2.92a3.7,3.7,0,0,1-3.71-3.71h0a3.71,3.71,0,0,1,3.71-3.71h2.92a3.71,3.71,0,0,1,3.71,3.71Z"/>
          <path d="M846.82,346.37a5.24,5.24,0,1,1,0-10.47h2.92a5.24,5.24,0,0,1,0,10.47h-2.92Zm0-7.42a2.19,2.19,0,1,0,0,4.37h2.92a2.19,2.19,0,1,0,0-4.37Z"/>
        </g>
        <g>
          <path class="cls-1" d="M853.45,314.45a3.71,3.71,0,0,1-3.71,3.71h-2.92a3.71,3.71,0,0,1-3.71-3.71h0a3.71,3.71,0,0,1,3.71-3.71h2.92a3.71,3.71,0,0,1,3.71,3.71Z"/>
          <path d="M846.82,319.69a5.24,5.24,0,1,1,0-10.47h2.92a5.24,5.24,0,0,1,0,10.47h-2.92Zm0-7.43a2.19,2.19,0,0,0,0,4.38h2.92a2.19,2.19,0,0,0,0-4.38Z"/>
        </g>
        <g>
          <path class="cls-1" d="M855.05,332.63a3.71,3.71,0,0,1-3.72,3.71h-8.51a3.71,3.71,0,0,1-3.71-3.71h0a3.71,3.71,0,0,1,3.71-3.71h8.51a3.71,3.71,0,0,1,3.72,3.71Z"/>
          <path d="M837.58,332.63a5.25,5.25,0,0,1,5.24-5.24h8.52a5.24,5.24,0,1,1,0,10.47h-8.51A5.26,5.26,0,0,1,837.58,332.63Zm3,0a2.2,2.2,0,0,0,2.19,2.19h8.51a2.19,2.19,0,0,0,0-4.38h-8.51A2.19,2.19,0,0,0,840.63,332.63Z"/>
        </g>
        <g>
          <path class="cls-1" d="M855.05,324.12a3.71,3.71,0,0,1-3.72,3.71h-6.89a3.71,3.71,0,0,1-3.71-3.71h0a3.72,3.72,0,0,1,3.71-3.71h6.89a3.72,3.72,0,0,1,3.72,3.71Z"/>
          <path d="M840.73,327.82a5.23,5.23,0,0,1,3.71-8.93h6.89a5.24,5.24,0,1,1,0,10.47h-6.89A5.22,5.22,0,0,1,840.73,327.82Zm3.71-5.88a2.14,2.14,0,0,0-1.55.64,2.19,2.19,0,0,0,1.55,3.73h6.89a2.19,2.19,0,1,0,0-4.37Z"/>
        </g>
      </g>
    </g>
    <path class="cls-3" d="M806.59,361.84l0,20.15A50,50,0,0,1,708,393.5H670A87.38,87.38,0,0,0,844,382l0-20.15Z"/>
  </g>
  <rect class="cls-10" x="830.24" y="70.85" width="34.96" height="34.96"/>
  <path class="cls-12" d="M813.26,122.79H796.1a2.73,2.73,0,0,1-2.73-2.73V92.34a2.74,2.74,0,0,1,2.73-2.73h47.63a2.74,2.74,0,0,1,2.73,2.73v27.72a2.73,2.73,0,0,1-2.73,2.73H813.26Z"/>
  <line class="cls-13" x1="797.51" y1="108.11" x2="807.03" y2="108.11"/>
  <line class="cls-13" x1="797.51" y1="113.15" x2="813.65" y2="113.15"/>
  <line class="cls-13" x1="809.44" y1="108.11" x2="818.96" y2="108.11"/>
  <line class="cls-13" x1="821.36" y1="108.11" x2="830.89" y2="108.11"/>
  <line class="cls-13" x1="833.29" y1="108.11" x2="842.81" y2="108.11"/>
  <rect x="793.37" y="96.47" width="53.09" height="5.85"/>
  <g>
    <polyline points="774.72 150.58 765.48 141.34 774.72 132.09"/>
    <polyline points="774.72 132.09 777.36 134.74 770.77 141.34 777.36 147.94 774.72 150.58"/>
    <rect x="768.8" y="139.47" width="28.71" height="3.74"/>
  </g>
  <g>
    <polyline points="813.82 150.58 823.05 159.82 813.82 169.07"/>
    <polyline points="813.82 169.07 811.17 166.43 817.76 159.82 811.17 153.23 813.82 150.58"/>
    <rect x="791.02" y="157.96" width="28.71" height="3.74"/>
  </g>
</svg>
