<svg id="Layer_1" data-name="Layer 1" xmlns="http://www.w3.org/2000/svg" viewBox="0 0 890.59 255.74"><defs><style>.cls-1{fill:#f8c44f;}.cls-2{fill:#fff;}.cls-10,.cls-13,.cls-3,.cls-8,.cls-9{stroke:#000;}.cls-10,.cls-11,.cls-13,.cls-3,.cls-7,.cls-9{stroke-miterlimit:10;}.cls-3{stroke-width:0.88px;}.cls-4{fill:#84748b;}.cls-5{fill:#febf12;}.cls-11,.cls-6{fill:#ccc4d4;}.cls-7{stroke:#231f20;stroke-width:0.44px;}.cls-10,.cls-13,.cls-8,.cls-9{fill:none;}.cls-8{stroke-linejoin:round;}.cls-10,.cls-8,.cls-9{stroke-width:3.66px;}.cls-10{stroke-linecap:round;}.cls-11{stroke:#ccc4d4;stroke-width:6.19px;}.cls-12{fill:#282d33;}.cls-13{stroke-width:3.1px;}</style></defs><title>banner</title><path class="cls-1" d="M201.4,66.4V58.27c0-4.13-2.92-7.48-6.52-7.48s-6.51,3.35-6.51,7.48V66.4Z" transform="translate(-187.24 -1.26)"/><path class="cls-1" d="M187.24,58.27c0-4.84,3.43-8.77,7.64-8.77s7.64,3.93,7.64,8.77V67.7H187.24Zm13,0c0-3.41-2.42-6.18-5.39-6.18s-5.38,2.77-5.38,6.18V65.1h10.77Z" transform="translate(-187.24 -1.26)"/><path class="cls-2" d="M201.4,58.27v83.59h0l0,1.25c0,3.84,2.53,7,5.77,7.42H267.8c-3.24-.43-5.75-3.58-5.75-7.42v-1.7h0V58.27c0-3.84-2.51-7-5.75-7.42H195.64C198.88,51.28,201.4,54.43,201.4,58.27Z" transform="translate(-187.24 -1.26)"/><path d="M207,151.82c-3.84-.51-6.74-4.22-6.77-8.66V58.27c0-3.14-2.05-5.78-4.76-6.14l.13-2.58c2.5,0,44.49,0,57.11,0h3.65c3.85.51,6.75,4.25,6.75,8.71l0,84.84c0,3.14,2,5.78,4.75,6.14l-.13,2.58c-2.5,0-44.49,0-57.11,0H207Zm56-2.59a9.43,9.43,0,0,1-2.17-6.12v-.41h0V58.27c0-3.12-2-5.74-4.69-6.13H200.36a9.47,9.47,0,0,1,2.16,6.12v82.3h0l0,2.54c0,3.11,2,5.73,4.72,6.13h55.85Z" transform="translate(-187.24 -1.26)"/><path d="M187.24,67.43h2.26V58.27c0-3.41,2.41-6.18,5.38-6.18s5.39,2.77,5.39,6.18h2.25c0-4.84-3.42-8.77-7.64-8.77s-7.64,3.93-7.64,8.77Z" transform="translate(-187.24 -1.26)"/><path d="M207.29,151.83c3.8,0,7.26-4.15,7.26-8.72v-4.75h-2.26v4.75c0,3.15-2.43,6.13-5,6.13Z" transform="translate(-187.24 -1.26)"/><rect class="cls-2" x="68.93" y="44.37" width="15.04" height="111.51"/><path class="cls-2" d="M204,157.14c-1.24.21,75.22-.88,75.22-.88V145.64s-72.62-12.26-73.45-9.74S209.27,156.26,204,157.14Z" transform="translate(-187.24 -1.26)"/><rect class="cls-2" x="9.64" y="140.83" width="14.16" height="11.5"/><rect class="cls-3" x="25.91" y="69.15" width="29.78" height="2.91"/><rect class="cls-3" x="25.91" y="78.61" width="39.92" height="2.91"/><rect class="cls-3" x="25.91" y="88.06" width="39.92" height="2.91"/><rect class="cls-3" x="25.91" y="97.52" width="39.92" height="2.91"/><rect class="cls-3" x="75.86" y="78.61" width="6.53" height="2.91"/><rect class="cls-3" x="75.86" y="88.06" width="6.53" height="2.91"/><rect class="cls-3" x="75.86" y="97.52" width="6.53" height="2.91"/><path d="M917.87,209.27h15.25L914.32,257l-7.63-19.35Zm9.1,3.62h-9.73l-5.51,11.85-2.64,6.71,5.23,12.72Z" transform="translate(-187.24 -1.26)"/><path class="cls-4" d="M895.51,209.35h24.38l-12.39,31Z" transform="translate(-187.24 -1.26)"/><polygon class="cls-5" points="804.1 133.87 789.28 171.48 803.3 207.06 832.94 207.06 804.1 133.87"/><path class="cls-4" d="M826.35,200.08h-17.7V130.49a80.81,80.81,0,1,1,161.61,0v77.37h-17.7V130.49a63.11,63.11,0,1,0-126.21,0Z" transform="translate(-187.24 -1.26)"/><path d="M963.18,207.86h-3.54V130.49a70.19,70.19,0,1,0-140.37,0v66.2h-3.54v-66.2a73.73,73.73,0,1,1,147.45,0Z" transform="translate(-187.24 -1.26)"/><polygon class="cls-2" points="791.81 171.48 789.69 166.09 774.48 127.47 742.79 207.89 778.72 204.72 791.41 172.5 791.81 171.48"/><path d="M966.8,209.35l-39.29-.2,34.2-86.83,19.86,50.42Zm-33.63-4.42h30.09l13.26-32.19-14.81-37.6-29.15,74Z" transform="translate(-187.24 -1.26)"/><path d="M995.59,208.33H962.5l16.55-42Zm-27-3.4h20.35l-9.87-25.77Z" transform="translate(-187.24 -1.26)"/><rect class="cls-4" x="480.98" y="27.83" width="52.58" height="178.5"/><rect class="cls-4" x="479.51" y="24.02" width="55.5" height="9.4"/><polyline class="cls-2" points="440.09 206.32 440.09 109.69 491.21 109.69 491.21 206.32"/><polygon points="493.53 206.32 488.89 206.32 488.89 112.01 442.42 112.01 442.42 206.32 437.77 206.32 437.77 107.37 493.53 107.37 493.53 206.32"/><rect class="cls-2" x="438.63" y="100.15" width="54.04" height="11.39"/><path d="M682.23,115.12H623.55v-16h58.68Zm-54-4.64h49.4v-6.74h-49.4Z" transform="translate(-187.24 -1.26)"/><line class="cls-2" x1="448.43" y1="124.29" x2="455.28" y2="124.29"/><rect x="448.43" y="121.97" width="6.85" height="4.64"/><line class="cls-2" x1="462.12" y1="124.29" x2="468.97" y2="124.29"/><rect x="462.12" y="121.97" width="6.85" height="4.64"/><line class="cls-2" x1="475.8" y1="124.29" x2="482.66" y2="124.29"/><rect x="475.8" y="121.97" width="6.85" height="4.64"/><line class="cls-2" x1="448.43" y1="137.24" x2="455.28" y2="137.24"/><rect x="448.43" y="134.92" width="6.85" height="4.64"/><line class="cls-2" x1="462.12" y1="137.24" x2="468.97" y2="137.24"/><rect x="462.12" y="134.92" width="6.85" height="4.64"/><line class="cls-2" x1="475.8" y1="137.24" x2="482.66" y2="137.24"/><rect x="475.8" y="134.92" width="6.85" height="4.64"/><line class="cls-2" x1="448.43" y1="150.19" x2="455.28" y2="150.19"/><rect x="448.43" y="147.87" width="6.85" height="4.64"/><line class="cls-2" x1="462.12" y1="150.19" x2="468.97" y2="150.19"/><rect x="462.12" y="147.87" width="6.85" height="4.64"/><line class="cls-2" x1="475.8" y1="150.19" x2="482.66" y2="150.19"/><rect x="475.8" y="147.87" width="6.85" height="4.64"/><line class="cls-2" x1="448.43" y1="163.14" x2="455.28" y2="163.14"/><rect x="448.43" y="160.82" width="6.85" height="4.64"/><line class="cls-2" x1="462.12" y1="163.14" x2="468.97" y2="163.14"/><rect x="462.12" y="160.82" width="6.85" height="4.64"/><line class="cls-2" x1="475.8" y1="163.14" x2="482.66" y2="163.14"/><rect x="475.8" y="160.82" width="6.85" height="4.64"/><line class="cls-2" x1="448.43" y1="176.09" x2="455.28" y2="176.09"/><rect x="448.43" y="173.77" width="6.85" height="4.64"/><line class="cls-2" x1="462.12" y1="176.09" x2="468.97" y2="176.09"/><rect x="462.12" y="173.77" width="6.85" height="4.64"/><line class="cls-2" x1="475.8" y1="176.09" x2="482.66" y2="176.09"/><rect x="475.8" y="173.77" width="6.85" height="4.64"/><line class="cls-2" x1="448.43" y1="189.04" x2="455.28" y2="189.04"/><rect x="448.43" y="186.72" width="6.85" height="4.64"/><line class="cls-2" x1="462.12" y1="189.04" x2="468.97" y2="189.04"/><rect x="462.12" y="186.72" width="6.85" height="4.64"/><line class="cls-2" x1="475.8" y1="189.04" x2="482.66" y2="189.04"/><rect x="475.8" y="186.72" width="6.85" height="4.64"/><polyline class="cls-6" points="528.76 206.32 528.76 89.19 576.17 89.19 576.17 206.32"/><polygon points="578.49 206.32 573.85 206.32 573.85 91.52 531.08 91.52 531.08 206.32 526.43 206.32 526.43 86.87 578.49 86.87 578.49 206.32"/><rect class="cls-6" x="535.31" y="77.22" width="34.3" height="11.93"/><path d="M759.17,92.74H720.23V76.16h38.94Zm-34.3-4.65h29.66V80.8H724.87Z" transform="translate(-187.24 -1.26)"/><rect class="cls-2" x="536.51" y="99.54" width="31.91" height="4.64"/><rect class="cls-2" x="536.51" y="114.34" width="31.91" height="4.64"/><rect class="cls-2" x="536.51" y="129.14" width="31.91" height="4.64"/><rect class="cls-2" x="536.51" y="143.94" width="31.91" height="4.64"/><rect class="cls-2" x="536.51" y="158.74" width="31.91" height="4.64"/><rect class="cls-2" x="536.51" y="173.54" width="31.91" height="4.64"/><rect class="cls-2" x="536.51" y="188.34" width="31.91" height="4.64"/><line class="cls-6" x1="552.46" y1="75.57" x2="552.46" y2="58.31"/><rect x="550.14" y="58.31" width="4.64" height="17.26"/><line class="cls-2" x1="511.8" y1="44.12" x2="504.28" y2="44.12"/><rect x="504.28" y="41.8" width="7.52" height="4.64"/><polyline class="cls-2" points="560.87 206.32 560.87 166.55 638.01 166.55 638.01 206.32"/><polygon points="640.33 206.32 635.69 206.32 635.69 168.87 563.19 168.87 563.19 206.32 558.55 206.32 558.55 164.23 640.33 164.23 640.33 206.32"/><rect class="cls-5" x="572.23" y="185.77" width="54.41" height="20.55"/><rect x="569.9" y="185.19" width="59.35" height="4.64"/><rect x="597.25" y="186.1" width="4.64" height="20.23"/><rect x="560.9" y="172.53" width="77.08" height="4.64"/><path class="cls-6" d="M790.31,86.8h61.43c0-.06,0-.11,0-.17a12.32,12.32,0,0,0-15.69-11.88A18.12,18.12,0,0,0,800,77.23v.12A11.07,11.07,0,0,0,790.31,86.8Z" transform="translate(-187.24 -1.26)"/><rect x="849.68" y="106.6" width="40.91" height="3.54"/><rect x="849.68" y="115.37" width="29.46" height="3.54"/><polygon points="838.35 117.1 833.79 112.89 836.19 110.29 837.96 111.92 843.65 104.78 846.42 106.98 838.35 117.1"/><rect x="849.68" y="128.07" width="40.91" height="3.54"/><rect x="849.68" y="136.84" width="29.46" height="3.54"/><polygon points="838.35 138.58 833.79 134.36 836.19 131.76 837.96 133.39 843.65 126.25 846.42 128.46 838.35 138.58"/><path class="cls-7" d="M880.35,197.12a24.09,24.09,0,0,1-22.08-14.45,2.08,2.08,0,0,1,3.82-1.67,19.92,19.92,0,0,0,36.82-.74,2.08,2.08,0,0,1,3.88,1.52A23.93,23.93,0,0,1,880.35,197.12Z" transform="translate(-187.24 -1.26)"/><path class="cls-7" d="M921.35,195" transform="translate(-187.24 -1.26)"/><path class="cls-7" d="M921.35,197.12a23.93,23.93,0,0,1-22.44-15.34,2.08,2.08,0,1,1,3.88-1.52A19.79,19.79,0,0,0,921.35,193a2.09,2.09,0,0,1,0,4.17Z" transform="translate(-187.24 -1.26)"/><path class="cls-7" d="M840,197.12a2.09,2.09,0,1,1,0-4.17A19.92,19.92,0,0,0,858.27,181a2.08,2.08,0,0,1,3.82,1.67A24.08,24.08,0,0,1,840,197.12Z" transform="translate(-187.24 -1.26)"/><path class="cls-7" d="M840,195" transform="translate(-187.24 -1.26)"/><polyline class="cls-8" points="83.97 206.32 63.35 136.88 42.72 206.32"/><circle class="cls-9" cx="63.35" cy="133.94" r="7.75"/><line class="cls-9" x1="63.35" y1="116.94" x2="63.35" y2="126.19"/><path class="cls-10" d="M269.41,168.71a28.71,28.71,0,0,1-38.28-.12" transform="translate(-187.24 -1.26)"/><path d="M388.28,112H377.89l-.75-3.53c-1-.2-2-.44-2.95-.73l-2.5,2.77-9-5.2,1.11-3.45a28,28,0,0,1-2.11-2.11l-3.64,1.18-5.19-9,2.92-2.64a26.71,26.71,0,0,1-.66-2.6l-4.08-.87V75.44l4.29-.92c.18-.7.39-1.42.65-2.17l-3.45-3.12,5.19-9,4.69,1.51c.43-.44.86-.86,1.28-1.25l-1.58-4.89,9-5.2,3.57,3.94c.47-.13.93-.26,1.4-.37l1.15-5.38h10.39L388.77,54l1.24.32,3.81-4.22,9,5.2-1.68,5.21c.31.29.63.59.95.91l5.36-1.74,5.2,9-3.86,3.48c.17.5.33,1,.47,1.52l5.2,1.12V85.16l-4.64,1c-.12.68-.26,1.34-.42,2L413,91.37l-5.2,9-4-1.31c-.53.62-1.09,1.23-1.69,1.82l1.33,4.12-9,5.19-2.56-2.83a28.65,28.65,0,0,1-2.74.84ZM380,109.44h6.24l.72-3.39.81-.18a24.61,24.61,0,0,0,4-1.22l.83-.32,2.35,2.6,5.4-3.12-1.18-3.67.59-.56a25.85,25.85,0,0,0,2.58-2.8l.55-.71,3.75,1.22,3.12-5.41L406.49,89l.23-.77a25.91,25.91,0,0,0,.71-3.31l.13-.87,4.33-.93V76.85l-4.73-1-.19-.78a24.47,24.47,0,0,0-.88-2.84l-.31-.82,3.6-3.25-3.12-5.41-4.92,1.59-.55-.58a24.49,24.49,0,0,0-2-1.88l-.65-.56,1.57-4.85-5.4-3.12-3.52,3.9L390,57a24.76,24.76,0,0,0-2.6-.67l-.83-.17-1.07-5h-6.23l-1.07,5-.83.17a26.54,26.54,0,0,0-2.74.72l-.79.26-3.28-3.62-5.4,3.11,1.47,4.54-.66.55a25.81,25.81,0,0,0-2.26,2.21l-.56.61-4.27-1.38-3.12,5.4L359,71.6l-.3.81a25.11,25.11,0,0,0-1,3.46l-.18.81-3.87.83v6.24l3.73.8.15.86a25.92,25.92,0,0,0,1,3.88l.27.8-2.62,2.36,3.12,5.41,3.29-1.07.55.66a25.5,25.5,0,0,0,3,3l.66.55-1,3.11,5.39,3.12,2.25-2.48.8.28a25.66,25.66,0,0,0,4.19,1l.87.14Z" transform="translate(-187.24 -1.26)"/><path class="cls-1" d="M382.85,96.74A16.26,16.26,0,0,1,372,92.66L383.4,81.29h15.84a16.42,16.42,0,0,1-16.39,15.45Z" transform="translate(-187.24 -1.26)"/><path class="cls-2" d="M383.92,78.79V63.94A16.3,16.3,0,0,1,399.2,78.79Z" transform="translate(-187.24 -1.26)"/><path class="cls-1" d="M382.85,96.74A16.26,16.26,0,0,1,372,92.66L383.4,81.29h15.84a16.42,16.42,0,0,1-16.39,15.45Z" transform="translate(-187.24 -1.26)"/><path class="cls-4" d="M383.92,78.79V63.94A16.3,16.3,0,0,1,399.2,78.79Z" transform="translate(-187.24 -1.26)"/><path d="M382.79,101.45a21.08,21.08,0,0,1-14-5.32l1.7-1.92A18.55,18.55,0,1,0,383.68,61.8l.13-2.57a21.12,21.12,0,0,1-1,42.22Z" transform="translate(-187.24 -1.26)"/><path d="M378.76,62.49V78.67L367.42,90.24a18.29,18.29,0,0,1,11.34-27.75m2.56-3a20.86,20.86,0,0,0-14.15,34.63l14.15-14.45V59.53Z" transform="translate(-187.24 -1.26)"/><path class="cls-11" d="M550,150.81v26.77a47.75,47.75,0,1,1-95.49,0V129.14h-.18V76.84a72.43,72.43,0,1,0-144.86,0v28.54h24.68V76.84a47.75,47.75,0,1,1,95.5,0V178.38h.19a72.42,72.42,0,0,0,144.84-.8V150.81Z" transform="translate(-187.24 -1.26)"/><path class="cls-6" d="M322.07,180.15a38.27,38.27,0,1,0-38.27-38.27A38.26,38.26,0,0,0,322.07,180.15Z" transform="translate(-187.24 -1.26)"/><rect x="133.48" y="72.61" width="2.71" height="45.21"/><path d="M321,68.36c.25-1.87.6-3.75,1-5.58l2.69.63c-.4,1.75-.74,3.54-1,5.32Zm2.57-11c.6-1.79,1.29-3.57,2-5.29l2.53,1.12c-.72,1.64-1.38,3.34-1.95,5.05ZM328.12,47c.91-1.64,1.92-3.27,3-4.82l2.28,1.56c-1,1.49-2,3-2.84,4.61Zm6.39-9.35c1.2-1.45,2.49-2.86,3.81-4.2l2,2c-1.27,1.27-2.5,2.62-3.65,4Zm8-8c1.44-1.21,3-2.36,4.51-3.43l1.57,2.28c-1.48,1-2.93,2.12-4.31,3.28Zm9.32-6.43c1.65-.92,3.35-1.78,5.07-2.55L358,23.12c-1.64.73-3.27,1.55-4.84,2.43Zm10.35-4.61c1.79-.6,3.62-1.13,5.46-1.56l.63,2.69c-1.74.41-3.5.92-5.2,1.49Zm11-2.61c1.86-.27,3.76-.44,5.64-.53l.14,2.76c-1.8.09-3.62.26-5.39.51Zm11.19,2.22.12-2.77c1.89.08,3.79.25,5.65.51l-.37,2.74C388,18.38,386.21,18.22,384.4,18.14Zm10.72,1.46.63-2.7c1.83.43,3.67.94,5.46,1.54l-.88,2.63C398.63,20.5,396.87,20,395.12,19.6ZM405.39,23l1.11-2.53c1.72.75,3.43,1.6,5.08,2.52l-1.34,2.42C408.66,24.54,407,23.73,405.39,23Zm9.46,5.25L416.41,26c1.55,1.06,3.08,2.21,4.53,3.41l-1.76,2.14C417.79,30.37,416.33,29.27,414.85,28.26Zm8.35,6.89,1.95-2c1.34,1.33,2.63,2.73,3.83,4.18l-2.12,1.77C425.71,37.77,424.48,36.42,423.2,35.15Zm6.94,8.3,2.28-1.58c1.07,1.55,2.09,3.17,3,4.81L433,48C432.14,46.47,431.17,44.93,430.14,43.45Zm5.32,9.42L438,51.74c.77,1.72,1.46,3.49,2.07,5.28l-2.62.89C436.86,56.21,436.19,54.51,435.46,52.87ZM439,63.11l2.69-.64c.44,1.82.8,3.7,1.07,5.57l-2.75.39C439.71,66.65,439.37,64.86,439,63.11Zm1.54,10.71,2.76-.14c.05,1,.08,2.11.08,3.16v2.45h-2.77V76.84C440.56,75.83,440.54,74.82,440.49,73.82Zm.07,60.94v-5.55h2.77v5.55Zm0-11.09v-5.55h2.77v5.55Zm0-11.1V107h2.77v5.54Zm0-11.09V95.93h2.77v5.55Zm0-11.09V84.84h2.77v5.55Z" transform="translate(-187.24 -1.26)"/><polygon class="cls-5" points="373.62 77.27 373.62 89.37 373.62 101.47 420.04 101.47 427.62 89.37 420.04 77.27 373.62 77.27"/><rect class="cls-2" x="369.99" y="60.92" width="10.78" height="84.97"/><path d="M569.45,147.41H555.79V60.18h13.66Zm-10.79-2.26h7.91v-81h-7.91Z" transform="translate(-187.24 -1.26)"/><polygon class="cls-4" points="376.25 90.23 376.25 78.12 376.25 66.02 329.83 66.02 322.26 78.12 329.83 90.23 376.25 90.23"/><rect x="338.45" y="76.09" width="26.39" height="4.06"/><rect x="384" y="87.34" width="26.39" height="4.06"/><rect class="cls-2" x="360.7" y="139.68" width="28.85" height="5.84"/><path d="M575.29,142.45v2.83H549.45v-2.83h25.84m3-3H546.44v8.85H578.3v-8.85Z" transform="translate(-187.24 -1.26)"/><rect x="253.09" y="138.56" width="2.71" height="31.02"/><path class="cls-1" d="M523.43,179.32a21,21,0,1,1-21-21A21,21,0,0,1,523.43,179.32Z" transform="translate(-187.24 -1.26)"/><line class="cls-2" x1="307.85" y1="170.67" x2="322.62" y2="185.43"/><rect class="cls-12" x="500.47" y="168.88" width="4.01" height="20.87" transform="translate(-166.86 406.57) rotate(-45)"/><line class="cls-2" x1="322.62" y1="170.67" x2="307.85" y2="185.43"/><rect class="cls-12" x="492.04" y="177.31" width="20.87" height="4.01" transform="translate(-166.86 406.57) rotate(-45)"/><path class="cls-13" d="M320.77,118.2c.49,0,.83,0,1.33,0a23.46,23.46,0,1,1-23.45,23.45,23.69,23.69,0,0,1,7.08-16.37" transform="translate(-187.24 -1.26)"/><polyline class="cls-13" points="110.03 123.69 119.7 122.64 120.76 132.31"/></svg>