<svg id="Layer_1" data-name="Layer 1" xmlns="http://www.w3.org/2000/svg" viewBox="0 0 800.35 672.5"><defs><style>.cls-1,.cls-6{fill:#fff;}.cls-2{fill:#febf12;}.cls-3{fill:#84748b;}.cls-12,.cls-4{fill:#ccc4d4;}.cls-5{stroke:#231f20;stroke-width:0.5px;}.cls-10,.cls-11,.cls-12,.cls-14,.cls-15,.cls-5,.cls-6,.cls-8{stroke-miterlimit:10;}.cls-10,.cls-11,.cls-14,.cls-15,.cls-6,.cls-8,.cls-9{stroke:#000;}.cls-6{stroke-width:5px;}.cls-7{fill:#f8c44f;}.cls-8{stroke-width:0.77px;}.cls-10,.cls-11,.cls-14,.cls-9{fill:none;}.cls-9{stroke-linejoin:round;}.cls-10,.cls-11,.cls-9{stroke-width:3.48px;}.cls-11{stroke-linecap:round;}.cls-12{stroke:#ccc4d4;stroke-width:7px;}.cls-13{fill:#282d33;}.cls-14{stroke-width:3.5px;}.cls-15{stroke-width:1.15px;}</style></defs><title>M725_launch_page_fr</title><line class="cls-1" x1="145.43" y1="165.52" x2="135.53" y2="165.52"/><polygon class="cls-2" points="546.62 124.13 529.88 166.63 545.72 206.84 579.21 206.84 546.62 124.13"/><path class="cls-3" d="M375.06,189.75h-20V111.11a91.31,91.31,0,1,1,182.61,0v87.43h-20V111.11a71.31,71.31,0,1,0-142.61,0Z" transform="translate(-14.87 -0.23)"/><path d="M529.67,198.54h-4V111.11a79.31,79.31,0,1,0-158.61,0v74.8h-4v-74.8a83.31,83.31,0,1,1,166.61,0Z" transform="translate(-14.87 -0.23)"/><polygon class="cls-1" points="532.74 166.63 530.34 160.54 513.15 116.9 477.35 207.77 517.94 204.18 532.28 167.78 532.74 166.63"/><path d="M533.76,208.23l-44.4-.23L528,109.88l22.45,57Zm-38-5h34l15-36.37L528,124.37,495.07,208Z" transform="translate(-14.87 -0.23)"/><path d="M566.3,207.07H528.91l18.7-47.46Zm-30.54-3.84h23L547.6,174.1Z" transform="translate(-14.87 -0.23)"/><rect class="cls-3" x="181.5" y="4.3" width="59.41" height="201.7"/><rect class="cls-3" x="179.84" width="62.71" height="10.62"/><polyline class="cls-1" points="135.3 206 135.3 96.81 193.06 96.81 193.06 206"/><polygon points="195.68 206 190.44 206 190.44 99.43 137.92 99.43 137.92 206 132.68 206 132.68 94.19 195.68 94.19 195.68 206"/><rect class="cls-1" x="133.65" y="86.03" width="61.06" height="12.87"/><path d="M212.2,101.75H145.89V83.63H212.2ZM151.14,96.5H207V88.88H151.14Z" transform="translate(-14.87 -0.23)"/><line class="cls-1" x1="144.72" y1="113.31" x2="152.46" y2="113.31"/><rect x="144.72" y="110.68" width="7.74" height="5.25"/><line class="cls-1" x1="160.19" y1="113.31" x2="167.93" y2="113.31"/><rect x="160.19" y="110.68" width="7.74" height="5.25"/><line class="cls-1" x1="175.65" y1="113.31" x2="183.39" y2="113.31"/><rect x="175.65" y="110.68" width="7.75" height="5.25"/><line class="cls-1" x1="144.72" y1="127.94" x2="152.46" y2="127.94"/><rect x="144.72" y="125.32" width="7.74" height="5.25"/><line class="cls-1" x1="160.19" y1="127.94" x2="167.93" y2="127.94"/><rect x="160.19" y="125.32" width="7.74" height="5.25"/><line class="cls-1" x1="175.65" y1="127.94" x2="183.39" y2="127.94"/><rect x="175.65" y="125.32" width="7.75" height="5.25"/><line class="cls-1" x1="144.72" y1="142.57" x2="152.46" y2="142.57"/><rect x="144.72" y="139.95" width="7.74" height="5.25"/><line class="cls-1" x1="160.19" y1="142.57" x2="167.93" y2="142.57"/><rect x="160.19" y="139.95" width="7.74" height="5.25"/><line class="cls-1" x1="175.65" y1="142.57" x2="183.39" y2="142.57"/><rect x="175.65" y="139.95" width="7.75" height="5.25"/><line class="cls-1" x1="144.72" y1="157.21" x2="152.46" y2="157.21"/><rect x="144.72" y="154.59" width="7.74" height="5.25"/><line class="cls-1" x1="160.19" y1="157.21" x2="167.93" y2="157.21"/><rect x="160.19" y="154.59" width="7.74" height="5.25"/><line class="cls-1" x1="175.65" y1="157.21" x2="183.39" y2="157.21"/><rect x="175.65" y="154.59" width="7.75" height="5.25"/><line class="cls-1" x1="144.72" y1="171.84" x2="152.46" y2="171.84"/><rect x="144.72" y="169.22" width="7.74" height="5.25"/><line class="cls-1" x1="160.19" y1="171.84" x2="167.93" y2="171.84"/><rect x="160.19" y="169.22" width="7.74" height="5.25"/><line class="cls-1" x1="175.65" y1="171.84" x2="183.39" y2="171.84"/><rect x="175.65" y="169.22" width="7.75" height="5.25"/><line class="cls-1" x1="144.72" y1="186.48" x2="152.46" y2="186.48"/><rect x="144.72" y="183.85" width="7.74" height="5.25"/><line class="cls-1" x1="160.19" y1="186.48" x2="167.93" y2="186.48"/><rect x="160.19" y="183.85" width="7.74" height="5.25"/><line class="cls-1" x1="175.65" y1="186.48" x2="183.39" y2="186.48"/><rect x="175.65" y="183.85" width="7.75" height="5.25"/><polyline class="cls-4" points="235.49 206 235.49 73.65 289.07 73.65 289.07 206"/><polygon points="291.69 206 286.44 206 286.44 76.27 238.11 76.27 238.11 206 232.86 206 232.86 71.02 291.69 71.02 291.69 206"/><rect class="cls-4" x="242.9" y="60.12" width="38.76" height="13.48"/><path d="M299.15,76.45h-44V57.72h44ZM260.39,71.2H293.9V63H260.39Z" transform="translate(-14.87 -0.23)"/><rect class="cls-1" x="244.24" y="85.34" width="36.06" height="5.25"/><rect class="cls-1" x="244.24" y="102.06" width="36.06" height="5.25"/><rect class="cls-1" x="244.24" y="118.79" width="36.06" height="5.25"/><rect class="cls-1" x="244.24" y="135.51" width="36.06" height="5.25"/><rect class="cls-1" x="244.24" y="152.23" width="36.06" height="5.25"/><rect class="cls-1" x="244.24" y="168.96" width="36.06" height="5.25"/><rect class="cls-1" x="244.24" y="185.68" width="36.06" height="5.25"/><line class="cls-4" x1="262.28" y1="58.26" x2="262.28" y2="38.75"/><rect x="259.65" y="38.75" width="5.25" height="19.51"/><polyline class="cls-1" points="271.78 206 271.78 161.06 358.94 161.06 358.94 206"/><polygon points="361.57 206 356.32 206 356.32 163.68 274.4 163.68 274.4 206 269.15 206 269.15 158.44 361.57 158.44 361.57 206"/><rect class="cls-2" x="284.62" y="182.77" width="61.49" height="23.23"/><rect x="281.98" y="182.13" width="67.06" height="5.25"/><rect x="312.88" y="183.14" width="5.25" height="22.86"/><rect x="271.81" y="167.82" width="87.1" height="5.25"/><path class="cls-4" d="M334.34,69.74h69.41c0-.07,0-.13,0-.19A13.92,13.92,0,0,0,386,56.12a20.48,20.48,0,0,0-40.76,2.81v.13A12.49,12.49,0,0,0,334.34,69.74Z" transform="translate(-14.87 -0.23)"/><path class="cls-5" d="M436.07,194.4a27.24,27.24,0,0,1-24.94-16.32,2.36,2.36,0,0,1,4.32-1.89,22.5,22.5,0,0,0,41.59-.84,2.36,2.36,0,0,1,4.39,1.71A27,27,0,0,1,436.07,194.4Z" transform="translate(-14.87 -0.23)"/><path class="cls-5" d="M482.4,192.05" transform="translate(-14.87 -0.23)"/><path class="cls-5" d="M482.4,194.4A27,27,0,0,1,457,177.06a2.36,2.36,0,1,1,4.39-1.71,22.38,22.38,0,0,0,21,14.34,2.36,2.36,0,1,1,0,4.71Z" transform="translate(-14.87 -0.23)"/><path class="cls-5" d="M390.5,194.4a2.36,2.36,0,0,1,0-4.71,22.52,22.52,0,0,0,20.63-13.5,2.36,2.36,0,0,1,4.32,1.89A27.24,27.24,0,0,1,390.5,194.4Z" transform="translate(-14.87 -0.23)"/><path class="cls-5" d="M390.5,192.05" transform="translate(-14.87 -0.23)"/><line class="cls-1" x1="215.45" y1="21.72" x2="206.95" y2="21.72"/><rect x="206.95" y="19.09" width="8.49" height="5.25"/><rect class="cls-6" x="109.73" y="206.5" width="618" height="228"/><path class="cls-7" d="M27.22,339.35v-7.1c0-3.6-2.54-6.52-5.68-6.52s-5.69,2.92-5.69,6.52v7.1Z" transform="translate(-14.87 -0.23)"/><path class="cls-7" d="M14.87,332.25c0-4.22,3-7.65,6.67-7.65s6.67,3.43,6.67,7.65v8.23H14.87Zm11.37,0c0-3-2.11-5.39-4.7-5.39s-4.7,2.42-4.7,5.39v6h9.4Z" transform="translate(-14.87 -0.23)"/><path class="cls-1" d="M27.22,332.25V405.2h0l0,1.09c0,3.35,2.22,6.1,5,6.48H85.18c-2.83-.38-5-3.13-5-6.48V404.8h0V332.25c0-3.35-2.19-6.1-5-6.48-1.55,0-50.38,0-52.91,0C25,326.15,27.22,328.9,27.22,332.25Z" transform="translate(-14.87 -0.23)"/><path d="M32.15,413.89c-3.35-.44-5.89-3.68-5.91-7.56V332.25a5.18,5.18,0,0,0-4.15-5.35l.11-2.26h53c3.36.45,5.9,3.71,5.9,7.6l0,74a5.18,5.18,0,0,0,4.15,5.36l-.12,2.25h-53Zm48.91-2.26a8.21,8.21,0,0,1-1.89-5.34v-.35h0V332.25a5.18,5.18,0,0,0-4.1-5.34H26.32a8.28,8.28,0,0,1,1.89,5.34v71.82h0l0,2.22a5.19,5.19,0,0,0,4.11,5.35H81.06Z" transform="translate(-14.87 -0.23)"/><path d="M14.87,340.25h2v-8c0-3,2.11-5.39,4.7-5.39s4.7,2.42,4.7,5.39h2c0-4.22-3-7.65-6.67-7.65s-6.67,3.43-6.67,7.65Z" transform="translate(-14.87 -0.23)"/><path d="M32.37,413.9c3.31,0,6.33-3.63,6.33-7.61v-4.15h-2v4.15c0,2.75-2.12,5.35-4.36,5.35Z" transform="translate(-14.87 -0.23)"/><rect class="cls-1" x="60.15" y="321" width="13.13" height="97.31"/><path class="cls-1" d="M29.46,418.53c-1.08.18,65.64-.77,65.64-.77V408.5S31.73,397.8,31,400,34.09,417.76,29.46,418.53Z" transform="translate(-14.87 -0.23)"/><rect class="cls-1" x="8.41" y="405.18" width="12.36" height="10.04"/><rect class="cls-8" x="22.61" y="342.62" width="25.99" height="2.54"/><rect class="cls-8" x="22.61" y="350.88" width="34.84" height="2.54"/><rect class="cls-8" x="22.61" y="359.13" width="34.84" height="2.54"/><rect class="cls-8" x="22.61" y="367.38" width="34.84" height="2.54"/><rect class="cls-8" x="66.21" y="350.88" width="5.7" height="2.54"/><rect class="cls-8" x="66.21" y="359.13" width="5.7" height="2.54"/><rect class="cls-8" x="66.21" y="367.38" width="5.7" height="2.54"/><polyline class="cls-9" points="88.73 463.87 69.12 397.87 49.52 463.87"/><circle class="cls-10" cx="69.12" cy="395.08" r="7.37"/><line class="cls-10" x1="69.12" y1="378.92" x2="69.12" y2="387.71"/><path class="cls-11" d="M101.89,427.16A27.32,27.32,0,0,1,65.5,427" transform="translate(-14.87 -0.23)"/><path d="M485,513.23H473.22l-.86-4a32.21,32.21,0,0,1-3.32-.83l-2.84,3.14L456,505.67l1.26-3.9a31.44,31.44,0,0,1-2.38-2.38l-4.11,1.33-5.87-10.17,3.3-3c-.29-1-.54-1.94-.74-2.94l-4.61-1V471.9l4.85-1c.2-.78.44-1.6.72-2.45l-3.9-3.52,5.88-10.16,5.29,1.71c.49-.51,1-1,1.45-1.42l-1.79-5.52,10.17-5.87,4,4.45c.54-.16,1.06-.3,1.58-.42l1.31-6.09h11.74l1.3,6.09c.47.11.94.23,1.4.36l4.31-4.77,10.16,5.87-1.9,5.89c.36.33.72.67,1.07,1l6.07-2,5.87,10.16-4.36,3.94c.2.57.37,1.14.53,1.72l5.88,1.26v11.73L509.3,484c-.14.78-.3,1.52-.48,2.24l4,3.66L507,500.07l-4.56-1.47c-.59.7-1.23,1.39-1.9,2l1.5,4.65-10.16,5.87L489,508a31.36,31.36,0,0,1-3.1.95Zm-9.4-2.91h7.05l.82-3.84.92-.19a29.77,29.77,0,0,0,4.51-1.38l.93-.37,2.66,2.94,6.1-3.53-1.34-4.15.67-.63a28.59,28.59,0,0,0,2.91-3.16l.63-.8,4.23,1.37,3.53-6.1-3.64-3.3.25-.87a28.34,28.34,0,0,0,.8-3.73l.15-1,4.9-1.05V473.5l-5.35-1.14-.21-.89a28.83,28.83,0,0,0-1-3.2l-.35-.93,4.07-3.68-3.52-6.1-5.56,1.8-.63-.67a29,29,0,0,0-2.22-2.12l-.74-.63,1.77-5.48-6.1-3.52-4,4.39-.89-.27a28.13,28.13,0,0,0-2.94-.76l-.93-.19-1.21-5.64h-7.05l-1.2,5.64-.94.19a27,27,0,0,0-3.1.82l-.89.29-3.7-4.1-6.11,3.53,1.66,5.12-.74.63a29.52,29.52,0,0,0-2.56,2.49l-.63.69-4.83-1.56-3.52,6.1,3.6,3.26-.33.92a28.27,28.27,0,0,0-1.16,3.9l-.19.92-4.38.94v7.05l4.22.9.16,1a28.37,28.37,0,0,0,1.11,4.38l.31.9-3,2.68,3.52,6.11,3.71-1.2.63.74a29.85,29.85,0,0,0,3.42,3.42l.75.63-1.14,3.51,6.11,3.52,2.53-2.8.9.31a27.72,27.72,0,0,0,4.75,1.17l1,.16Z" transform="translate(-14.87 -0.23)"/><path class="cls-7" d="M478.82,496a18.38,18.38,0,0,1-12.23-4.6l12.85-12.86h17.9A18.54,18.54,0,0,1,478.82,496Z" transform="translate(-14.87 -0.23)"/><path class="cls-1" d="M480,475.69V458.91a18.41,18.41,0,0,1,17.26,16.78Z" transform="translate(-14.87 -0.23)"/><path class="cls-7" d="M478.82,496a18.38,18.38,0,0,1-12.23-4.6l12.85-12.86h17.9A18.54,18.54,0,0,1,478.82,496Z" transform="translate(-14.87 -0.23)"/><path class="cls-3" d="M480,475.69V458.91a18.41,18.41,0,0,1,17.26,16.78Z" transform="translate(-14.87 -0.23)"/><path d="M478.75,501.3a23.82,23.82,0,0,1-15.84-6l1.92-2.17a21,21,0,1,0,14.93-36.63l.14-2.9a23.87,23.87,0,0,1-1.15,47.71Z" transform="translate(-14.87 -0.23)"/><path d="M474.19,457.27v18.28l-12.81,13.08a20.67,20.67,0,0,1,12.81-31.36m2.9-3.34a23.57,23.57,0,0,0-16,39.13l16-16.32V453.93Z" transform="translate(-14.87 -0.23)"/><path class="cls-12" d="M667.65,557.07v30.26a54,54,0,1,1-107.91,0V532.59h-.2V473.48a81.85,81.85,0,1,0-163.69,0v32.26h27.89V473.48a54,54,0,1,1,107.91,0V588.23h.23a81.83,81.83,0,0,0,163.66-.9V557.07Z" transform="translate(-14.87 -0.23)"/><path class="cls-4" d="M410.14,590.23A43.25,43.25,0,1,0,366.89,547,43.24,43.24,0,0,0,410.14,590.23Z" transform="translate(-14.87 -0.23)"/><rect x="393.74" y="469.91" width="3.06" height="51.09"/><path d="M408.89,463.9c.29-2.11.68-4.23,1.17-6.3l3,.71c-.46,2-.83,4-1.11,6Zm2.91-12.47c.68-2,1.46-4,2.32-6l2.86,1.27c-.82,1.86-1.56,3.78-2.21,5.7ZM417,439.71c1-1.86,2.17-3.69,3.37-5.45l2.58,1.77c-1.14,1.68-2.23,3.43-3.22,5.21Zm7.23-10.56c1.36-1.64,2.8-3.24,4.31-4.75l2.21,2.21c-1.43,1.44-2.82,3-4.11,4.53Zm9-9.08c1.63-1.36,3.35-2.66,5.1-3.87l1.78,2.57c-1.67,1.16-3.31,2.4-4.87,3.71Zm10.54-7.26c1.86-1.05,3.78-2,5.73-2.88l1.27,2.86c-1.86.82-3.7,1.75-5.47,2.74Zm11.7-5.21c2-.68,4.09-1.28,6.16-1.77l.72,3.05c-2,.46-4,1-5.88,1.68Zm12.46-3c2.1-.29,4.24-.49,6.37-.59l.15,3.12c-2,.1-4.08.29-6.09.57Zm12.64,2.52.14-3.13c2.13.09,4.28.29,6.38.57l-.42,3.1C484.66,407.43,482.61,407.25,480.57,407.16Zm12.12,1.65.7-3.05c2.08.48,4.15,1.06,6.17,1.74l-1,3C496.65,409.82,494.67,409.27,492.69,408.81Zm11.6,3.85,1.26-2.86c1.94.85,3.87,1.81,5.74,2.85l-1.52,2.73C508,414.39,506.14,413.48,504.29,412.66ZM515,418.6l1.76-2.59c1.76,1.2,3.48,2.49,5.12,3.85l-2,2.41C518.3,421,516.66,419.74,515,418.6Zm9.43,7.78,2.2-2.22c1.52,1.51,3,3.09,4.34,4.72l-2.4,2C527.25,429.34,525.85,427.82,524.41,426.38Zm7.85,9.38,2.57-1.78c1.21,1.75,2.36,3.57,3.4,5.43l-2.72,1.53C534.51,439.17,533.42,437.43,532.26,435.76Zm6,10.65,2.85-1.28c.87,1.94,1.66,3.94,2.35,6l-3,1C539.85,450.17,539.1,448.26,538.27,446.41ZM542.21,458l3-.73c.5,2.06.9,4.18,1.2,6.29l-3.09.44C543.07,462,542.68,460,542.21,458Zm1.74,12.1,3.12-.16c.06,1.18.09,2.38.09,3.56v2.78H544v-2.78C544,472.35,544,471.2,544,470.08Zm.08,68.86v-6.27h3.13v6.27Zm0-12.54v-6.27h3.13v6.27Zm0-12.53V507.6h3.13v6.27Zm0-12.54v-6.27h3.13v6.27Zm0-12.53v-6.27h3.13v6.27Z" transform="translate(-14.87 -0.23)"/><polygon class="cls-2" points="665.1 475.17 665.1 488.85 665.1 502.52 717.55 502.52 726.11 488.85 717.55 475.17 665.1 475.17"/><rect class="cls-1" x="660.99" y="456.7" width="12.18" height="96.01"/><path d="M689.67,553.23H674.24V454.67h15.43Zm-12.18-2.55h8.93V459.19h-8.93Z" transform="translate(-14.87 -0.23)"/><polygon class="cls-3" points="668.07 489.81 668.07 476.14 668.07 462.46 615.62 462.46 607.06 476.14 615.62 489.81 668.07 489.81"/><rect x="625.35" y="473.84" width="29.82" height="4.59"/><rect x="676.82" y="486.55" width="29.82" height="4.59"/><rect class="cls-1" x="650.5" y="545.7" width="32.6" height="6.6"/><path d="M696.27,547.63v3.19h-29.2v-3.19h29.2m3.4-3.4h-36v10h36v-10Z" transform="translate(-14.87 -0.23)"/><rect x="528.89" y="544.43" width="3.06" height="35.05"/><path class="cls-7" d="M637.67,589.29A23.68,23.68,0,1,1,614,565.61,23.68,23.68,0,0,1,637.67,589.29Z" transform="translate(-14.87 -0.23)"/><line class="cls-1" x1="590.78" y1="580.72" x2="607.46" y2="597.4"/><rect class="cls-13" x="611.72" y="577.49" width="4.53" height="23.59" transform="translate(-251.72 606.54) rotate(-45)"/><line class="cls-1" x1="607.46" y1="580.72" x2="590.78" y2="597.4"/><rect class="cls-13" x="602.2" y="587.02" width="23.59" height="4.53" transform="translate(-251.72 606.54) rotate(-45)"/><path class="cls-14" d="M408.67,520.23c.56,0,.93,0,1.5,0a26.5,26.5,0,1,1-26.5,26.5,26.78,26.78,0,0,1,8-18.5" transform="translate(-14.87 -0.23)"/><polyline class="cls-14" points="367.24 527.63 378.17 526.44 379.36 537.37"/><rect x="754.12" y="223.31" width="46.23" height="4"/><rect x="754.12" y="233.22" width="33.29" height="4"/><polygon points="741.32 235.19 736.17 230.42 738.89 227.48 740.88 229.33 747.32 221.25 750.44 223.75 741.32 235.19"/><rect x="754.12" y="247.57" width="46.23" height="4"/><rect x="754.12" y="257.48" width="33.29" height="4"/><polygon points="741.32 259.45 736.17 254.69 738.88 251.75 740.88 253.59 747.32 245.52 750.44 248.01 741.32 259.45"/><path class="cls-3" d="M181.56,274.28v8.36H179a1,1,0,0,1-1-.84c0-.35-.17-1.27-.3-2.81H167.43v8.8h10.78v4.57H167.43v9h10.26c.13-1.54.26-2.46.3-2.82a1,1,0,0,1,1-.83h2.55v8.4H158.15V303.5a1.27,1.27,0,0,1,1.1-1.37,1.58,1.58,0,0,1,.26,0c.13,0,.35-.09.66-.13l1.32-.22V278.63l-1.32-.22c-.31,0-.53-.13-.66-.13a1.58,1.58,0,0,1-.26,0,1.27,1.27,0,0,1-1.1-1.37v-2.59h23.41Zm-7.79-2.86-.44.3a1.64,1.64,0,0,1-.44.18,1.72,1.72,0,0,1-.44.09h-4.8l4.32-4.45a4.9,4.9,0,0,1,.48-.44,1.34,1.34,0,0,1,.48-.26,1.24,1.24,0,0,1,.58-.13c.22,0,.44,0,.74,0h6Z" transform="translate(-14.87 -0.23)"/><path class="cls-3" d="M217.29,274.28v2.59a1.27,1.27,0,0,1-1.1,1.37c-.09,0-.13,0-.27,0s-.3.09-.61.13-.75.14-1.28.22l-11.09,27.46h-5.32l-11.14-27.46c-.52-.08-.92-.17-1.23-.22s-.53-.13-.66-.13a.68.68,0,0,0-.26,0,1.27,1.27,0,0,1-1.1-1.37v-2.59h11.88v2.59a1.27,1.27,0,0,1-1.1,1.37.51.51,0,0,0-.22,0,1.46,1.46,0,0,1-.44.13c-.22,0-.44.14-.71.18L199,295.05a17.21,17.21,0,0,1,.71,2.07c.22.74.44,1.54.66,2.37a30.2,30.2,0,0,1,1.27-4.44l6.29-16.46c-.26,0-.48-.13-.7-.18a1.72,1.72,0,0,1-.48-.13.53.53,0,0,0-.22,0,1.27,1.27,0,0,1-1.1-1.37v-2.59h11.88Z" transform="translate(-14.87 -0.23)"/><path class="cls-3" d="M245.1,303.85v2.24H234.36v-2.24a1.23,1.23,0,0,1,.88-1.14c.09,0,.39-.14.88-.36l-.18-.48-1.58-4.31H221.69l-1.63,4.53-.14.26c.49.22.8.31.88.36a1.23,1.23,0,0,1,.89,1.14v2.24H211v-2.24a1.23,1.23,0,0,1,.88-1.14l2.42-1L225,274.28h6.07l10.78,27.41,2.42,1A1.16,1.16,0,0,1,245.1,303.85Zm-21.87-10.47h9.63l-3.65-9.91c-.18-.48-.35-1-.57-1.62s-.4-1.37-.62-2.12c-.22.75-.44,1.46-.61,2.12s-.4,1.18-.58,1.67Z" transform="translate(-14.87 -0.23)"/><path class="cls-3" d="M269.87,298.48v7.61H246.81V303.5a1.27,1.27,0,0,1,1.1-1.37.83.83,0,0,0,.26,0,3.26,3.26,0,0,1,.66-.13l1.32-.22V278.63l-1.32-.22c-.31,0-.53-.13-.66-.13a.83.83,0,0,0-.26,0,1.27,1.27,0,0,1-1.1-1.37v-2.59h12.58v2.59a1.27,1.27,0,0,1-1.1,1.37.83.83,0,0,0-.26,0,3.26,3.26,0,0,1-.66.13l-1.32.22v22.58H266.3c.09-1.1.13-1.72.18-1.89a1,1,0,0,1,1-.84Z" transform="translate(-14.87 -0.23)"/><path class="cls-3" d="M304.5,274.28v2.59a1.28,1.28,0,0,1-1.1,1.37,2,2,0,0,1-.27,0c-.13,0-.35.09-.66.13l-1.32.22v14.7a14.57,14.57,0,0,1-.92,5.24,11.47,11.47,0,0,1-6.78,6.91,16.08,16.08,0,0,1-11,0,12.45,12.45,0,0,1-4.14-2.73,12.7,12.7,0,0,1-2.64-4.18,14.35,14.35,0,0,1-.88-5.24v-14.7l-1.32-.22c-.31,0-.53-.13-.66-.13a1.58,1.58,0,0,1-.26,0,1.27,1.27,0,0,1-1.1-1.37v-2.59h12.76v2.59a1.27,1.27,0,0,1-1.1,1.37,3.07,3.07,0,0,1-.31,0c-.13,0-.4.09-.75.13l-1.36.22v14.66a9.71,9.71,0,0,0,.48,3.3,7.35,7.35,0,0,0,1.45,2.55,6.33,6.33,0,0,0,2.25,1.58,8.47,8.47,0,0,0,6.16,0,6.48,6.48,0,0,0,2.29-1.58,8,8,0,0,0,1.41-2.51,11.08,11.08,0,0,0,.52-3.3v-14.7l-1.36-.22c-.35,0-.62-.13-.75-.13a3.07,3.07,0,0,1-.31,0,1.28,1.28,0,0,1-1.1-1.37v-2.59H304.5Z" transform="translate(-14.87 -0.23)"/><path class="cls-3" d="M338.38,303.85v2.24H327.64v-2.24a1.23,1.23,0,0,1,.88-1.14c.09,0,.39-.14.88-.36l-.18-.48-1.58-4.31H315l-1.62,4.53-.14.26c.49.22.8.31.88.36a1.22,1.22,0,0,1,.88,1.14v2.24H304.23v-2.24a1.22,1.22,0,0,1,.88-1.14l2.42-1,10.73-27.41h6.08l10.78,27.41,2.42,1A1.16,1.16,0,0,1,338.38,303.85ZM316.5,293.38h9.64l-3.65-9.91c-.18-.48-.35-1-.57-1.62s-.4-1.37-.62-2.12c-.22.75-.44,1.46-.62,2.12a16.06,16.06,0,0,1-.57,1.67Z" transform="translate(-14.87 -0.23)"/><path class="cls-3" d="M362.31,274.28v7.52H359.8a1,1,0,0,1-1.05-.83c-.05-.27-.14-.84-.22-1.81h-6.47v22.58l1.27.22c.31,0,.53.13.66.13a1.77,1.77,0,0,1,.27,0,1.31,1.31,0,0,1,1.14,1.37v2.59H342.82V303.5a1.27,1.27,0,0,1,1.1-1.37,1.58,1.58,0,0,1,.26,0c.13,0,.35-.09.66-.13l1.28-.22V279.12h-6.47c-.09,1-.18,1.58-.22,1.85a1,1,0,0,1-1,.83h-2.55v-7.52h26.45Z" transform="translate(-14.87 -0.23)"/><path class="cls-3" d="M375.11,278.28c-.13,0-.35.09-.66.13s-.75.14-1.27.22v23.11l1.27.22c.31,0,.53.13.66.13a2,2,0,0,1,.27,0,1.28,1.28,0,0,1,1.1,1.37v2.59H363.89V303.5a1.27,1.27,0,0,1,1.1-1.37,1.58,1.58,0,0,1,.26,0,3.6,3.6,0,0,1,.66-.13l1.32-.22V278.63l-1.32-.22c-.3,0-.52-.13-.66-.13a.83.83,0,0,0-.26,0,1.27,1.27,0,0,1-1.1-1.37v-2.59h12.59v2.59a1.28,1.28,0,0,1-1.1,1.37A2,2,0,0,1,375.11,278.28Z" transform="translate(-14.87 -0.23)"/><path class="cls-3" d="M409,296.68a15.59,15.59,0,0,1-3.26,5.15,14.58,14.58,0,0,1-5.1,3.38,17.27,17.27,0,0,1-6.56,1.24,17.47,17.47,0,0,1-6.6-1.24,14.63,14.63,0,0,1-5.11-3.38,16,16,0,0,1-3.3-5.15,17.53,17.53,0,0,1-1.14-6.52,17.3,17.3,0,0,1,1.14-6.47,15.86,15.86,0,0,1,3.3-5.14,14.51,14.51,0,0,1,5.11-3.39,17.67,17.67,0,0,1,6.6-1.23,16.53,16.53,0,0,1,6.56,1.23,15,15,0,0,1,5.1,3.39,15.44,15.44,0,0,1,3.26,5.14,17.32,17.32,0,0,1,1.19,6.47A17.54,17.54,0,0,1,409,296.68Zm-5.59-11.18a9.18,9.18,0,0,0-2-3.52,9.08,9.08,0,0,0-3.17-2.25,10.7,10.7,0,0,0-4.18-.74,10.91,10.91,0,0,0-4.22.74,9,9,0,0,0-3.17,2.25,10,10,0,0,0-2,3.52,14.13,14.13,0,0,0-.7,4.66,14.43,14.43,0,0,0,.7,4.71,10,10,0,0,0,2,3.52,9,9,0,0,0,3.17,2.25,10.91,10.91,0,0,0,4.22.74,10.7,10.7,0,0,0,4.18-.74,9.08,9.08,0,0,0,3.17-2.25,9.18,9.18,0,0,0,2-3.52,15.59,15.59,0,0,0,.7-4.71A15.26,15.26,0,0,0,403.45,285.5Z" transform="translate(-14.87 -0.23)"/><path class="cls-3" d="M445.25,274.28v2.59a1.27,1.27,0,0,1-1.1,1.37,1.58,1.58,0,0,1-.26,0c-.14,0-.36.09-.66.13s-.75.14-1.28.22v27.46h-3.08a2.63,2.63,0,0,1-1.14-.22,2.42,2.42,0,0,1-.93-.79l-16.63-21.17c0,.49.08.93.08,1.37s.05.88.05,1.27v15.19c1.85.26,2.77.39,2.86.39a1.27,1.27,0,0,1,1.1,1.37v2.59h-12.5V303.5a1.27,1.27,0,0,1,1.1-1.37.88.88,0,0,0,.27,0,3.26,3.26,0,0,1,.66-.13l1.32-.22V278.63l-1.32-.22c-.31,0-.53-.13-.66-.13a1.77,1.77,0,0,1-.27,0,1.27,1.27,0,0,1-1.1-1.37v-2.59h6.43c.26,0,.48,0,.66,0a1,1,0,0,1,.48.13,1.13,1.13,0,0,1,.4.27c.13.13.26.31.44.53l16.72,21.25c0-.53-.09-1-.13-1.5a13.48,13.48,0,0,1-.05-1.4v-15c-1.84-.26-2.77-.39-2.86-.39a1.27,1.27,0,0,1-1.1-1.37v-2.59h12.5Z" transform="translate(-14.87 -0.23)"/><path class="cls-3" d="M467.51,296.15a11,11,0,0,1-.74,4,8.77,8.77,0,0,1-2.16,3.3,9.82,9.82,0,0,1-3.48,2.2,12.71,12.71,0,0,1-4.66.8h-.66a28.61,28.61,0,0,1-9.11-1.68v-8.18h2.51a.92.92,0,0,1,1,.79c.09.4.22,1.63.39,3.65a22.2,22.2,0,0,0,6,.58,5.87,5.87,0,0,0,3.92-1.19,4.29,4.29,0,0,0,1.36-3.44,3.4,3.4,0,0,0-.61-2.06,4.67,4.67,0,0,0-1.67-1.32,14.44,14.44,0,0,0-2.34-.93c-.88-.26-1.8-.48-2.68-.79a26.2,26.2,0,0,1-2.68-1.06,8.43,8.43,0,0,1-2.38-1.62,6.54,6.54,0,0,1-1.63-2.47,9.6,9.6,0,0,1-.66-3.65,8.88,8.88,0,0,1,2.73-6.34,10.67,10.67,0,0,1,3.25-2,11.62,11.62,0,0,1,4.45-.79,24.17,24.17,0,0,1,9.11,1.8v8.14H464.3a1,1,0,0,1-1-.84c-.09-.39-.22-1.58-.4-3.56a13.92,13.92,0,0,0-5.15-.7,7.38,7.38,0,0,0-2.11.26,4.62,4.62,0,0,0-1.54.84,3.88,3.88,0,0,0-1,1.27,4,4,0,0,0-.31,1.63,2.86,2.86,0,0,0,.67,1.85,4.85,4.85,0,0,0,1.62,1.27,14.06,14.06,0,0,0,2.38,1c.88.27,1.76.58,2.68.88s1.81.71,2.69,1.1a8.65,8.65,0,0,1,2.37,1.59,6.89,6.89,0,0,1,1.68,2.33A7.91,7.91,0,0,1,467.51,296.15Z" transform="translate(-14.87 -0.23)"/><path class="cls-3" d="M510.28,290.16a16.73,16.73,0,0,1-1.19,6.43,15.32,15.32,0,0,1-3.25,5.06,15.07,15.07,0,0,1-5.11,3.26,17.4,17.4,0,0,1-6.55,1.18h-15V303.5a1.27,1.27,0,0,1,1.1-1.37,1.58,1.58,0,0,1,.26,0c.13,0,.36-.09.66-.13l1.32-.22V278.63l-1.32-.22c-.3,0-.53-.13-.66-.13a1.58,1.58,0,0,1-.26,0,1.27,1.27,0,0,1-1.1-1.37v-2.59h15a17.21,17.21,0,0,1,6.55,1.19,14.9,14.9,0,0,1,5.11,3.25,15,15,0,0,1,3.25,5A16.68,16.68,0,0,1,510.28,290.16Zm-6.07,0a13.86,13.86,0,0,0-.71-4.66,10.08,10.08,0,0,0-2-3.52,8.91,8.91,0,0,0-3.16-2.2,10.56,10.56,0,0,0-4.18-.79h-5.73v22.39h5.73a10.56,10.56,0,0,0,4.18-.79,8.91,8.91,0,0,0,3.16-2.2,9.73,9.73,0,0,0,2-3.52A14.17,14.17,0,0,0,504.21,290.16Z" transform="translate(-14.87 -0.23)"/><path class="cls-3" d="M516.88,274.85a8.09,8.09,0,0,1,.35,2.46,8.51,8.51,0,0,1-1.1,4.23,13.19,13.19,0,0,1-3.21,3.69l-1.68-1.05c-.13-.09-.3-.18-.35-.31a1.37,1.37,0,0,1-.09-.4,1.08,1.08,0,0,1,.31-.7l.62-.75a4.8,4.8,0,0,0,.57-.92,5,5,0,0,0,.44-1.15,5.77,5.77,0,0,0,.18-1.32,5.29,5.29,0,0,0-.27-1.58,6.64,6.64,0,0,0-.79-1.8,1,1,0,0,1-.22-.58,1.07,1.07,0,0,1,.84-1l3.25-1.28A10.53,10.53,0,0,1,516.88,274.85Z" transform="translate(-14.87 -0.23)"/><path class="cls-3" d="M542.4,274.28v8.36h-2.55a1,1,0,0,1-1-.84c0-.35-.17-1.27-.3-2.81H528.27v8.8h10.79v4.57H528.27v9h10.26c.13-1.54.26-2.46.3-2.82a1,1,0,0,1,1-.83h2.55v8.4H519V303.5a1.27,1.27,0,0,1,1.1-1.37,1.58,1.58,0,0,1,.26,0c.13,0,.35-.09.66-.13l1.32-.22V278.63l-1.32-.22c-.31,0-.53-.13-.66-.13a1.58,1.58,0,0,1-.26,0,1.27,1.27,0,0,1-1.1-1.37v-2.59H542.4Z" transform="translate(-14.87 -0.23)"/><path class="cls-3" d="M576.81,303.5v2.59H563.3V303.5a1.27,1.27,0,0,1,1.1-1.37l1.32-.26-5.41-9a2.2,2.2,0,0,1-.22.49c-.09.17-.14.3-.23.44l-5,7.92c.44.09,1.1.22,1.85.39a1.27,1.27,0,0,1,1.1,1.37v2.59H544.15V303.5a1.31,1.31,0,0,1,1.15-1.37q.33-.06,3.3-.39l7.79-12-7.31-11.09c-2-.22-3.16-.35-3.39-.39a1.27,1.27,0,0,1-1.09-1.37v-2.59h13.68v2.59a1.27,1.27,0,0,1-1.1,1.37c-.7.13-1.19.26-1.45.31l5,8.14c.08-.18.17-.4.26-.57a4.09,4.09,0,0,1,.31-.58l4.4-7c-.35-.09-.93-.18-1.67-.35a1.27,1.27,0,0,1-1.1-1.37v-2.59h13.42v2.59a1.27,1.27,0,0,1-1.1,1.37c-.27,0-1.37.17-3.35.39l-7.3,10.83,7.74,12.28c2,.22,3.08.35,3.35.39A1.27,1.27,0,0,1,576.81,303.5Z" transform="translate(-14.87 -0.23)"/><path class="cls-3" d="M604,284.4a11.16,11.16,0,0,1-.79,4.27A9.13,9.13,0,0,1,601,292a10.85,10.85,0,0,1-3.87,2.15,16.68,16.68,0,0,1-5.41.75h-3.92v6.87l1.32.22c.31,0,.53.13.66.13a2,2,0,0,1,.27,0,1.28,1.28,0,0,1,1.1,1.37v2.59H578.52V303.5a1.27,1.27,0,0,1,1.1-1.37,1.58,1.58,0,0,1,.26,0,3.6,3.6,0,0,1,.66-.13l1.32-.22V278.63l-1.32-.22c-.3,0-.52-.13-.66-.13a.83.83,0,0,0-.26,0,1.27,1.27,0,0,1-1.1-1.37v-2.59h13.16a18.56,18.56,0,0,1,5.54.75,10.61,10.61,0,0,1,3.83,2.11,8,8,0,0,1,2.24,3.17A11,11,0,0,1,604,284.4Zm-5.94,0a6.47,6.47,0,0,0-.39-2.29,4.51,4.51,0,0,0-1.19-1.76,5.42,5.42,0,0,0-2-1.1,9.26,9.26,0,0,0-2.86-.4h-3.92v11.4h3.92a9.28,9.28,0,0,0,2.86-.39,5,5,0,0,0,2-1.15,4.49,4.49,0,0,0,1.19-1.85A7.3,7.3,0,0,0,598.1,284.4Z" transform="translate(-14.87 -0.23)"/><path class="cls-3" d="M629,274.28v8.36h-2.55a1,1,0,0,1-1-.84c0-.35-.18-1.27-.31-2.81H614.86v8.8h10.79v4.57H614.86v9h10.26c.13-1.54.26-2.46.31-2.82a1,1,0,0,1,1-.83H629v8.4H605.58V303.5a1.27,1.27,0,0,1,1.1-1.37,1.58,1.58,0,0,1,.26,0c.13,0,.36-.09.66-.13l1.32-.22V278.63l-1.32-.22c-.3,0-.53-.13-.66-.13a1.58,1.58,0,0,1-.26,0,1.27,1.27,0,0,1-1.1-1.37v-2.59H629Z" transform="translate(-14.87 -0.23)"/><path class="cls-3" d="M659.31,303.5v2.59h-5.95a2.48,2.48,0,0,1-1.32-.3,3,3,0,0,1-.88-.88l-6.68-10.21a2.42,2.42,0,0,0-.84-.8,2.78,2.78,0,0,0-1.32-.26h-2.25v8.1l1.33.22c.3,0,.52.13.66.13a1.8,1.8,0,0,1,.26,0,1.27,1.27,0,0,1,1.1,1.37v2.59H630.83V303.5a1.28,1.28,0,0,1,1.1-1.37,2,2,0,0,1,.27,0,3.26,3.26,0,0,1,.66-.13l1.32-.22V278.63l-1.32-.22c-.31,0-.53-.13-.66-.13a2,2,0,0,1-.27,0,1.28,1.28,0,0,1-1.1-1.37v-2.59h12.72a20.7,20.7,0,0,1,5.59.66,10.6,10.6,0,0,1,3.79,1.89,7.45,7.45,0,0,1,2.2,2.9,9.35,9.35,0,0,1,.7,3.7,10.23,10.23,0,0,1-.48,3,9.17,9.17,0,0,1-1.37,2.59,7.94,7.94,0,0,1-2.2,2,12.88,12.88,0,0,1-3,1.41,5.83,5.83,0,0,1,1.93,1.84l5,7.4,1.37.22c.35,0,.57.13.74.13a2.83,2.83,0,0,1,.36,0A1.28,1.28,0,0,1,659.31,303.5Zm-10.87-15.67a4.79,4.79,0,0,0,1.18-1.76,5.82,5.82,0,0,0,.4-2.2,4.59,4.59,0,0,0-1.58-3.74c-1.06-.88-2.69-1.28-4.89-1.28h-3.48v10.56h3.39a9.8,9.8,0,0,0,2.91-.43A5.58,5.58,0,0,0,648.44,287.83Z" transform="translate(-14.87 -0.23)"/><path class="cls-3" d="M686,274.28v7.52h-2.5a1,1,0,0,1-1.06-.83c-.05-.27-.13-.84-.22-1.81h-6.47v22.58L677,302c.3,0,.52.13.66.13a1.58,1.58,0,0,1,.26,0,1.31,1.31,0,0,1,1.15,1.37v2.59H666.52V303.5a1.27,1.27,0,0,1,1.1-1.37,1.58,1.58,0,0,1,.26,0c.14,0,.35-.09.66-.13l1.28-.22V279.12h-6.47c-.09,1-.18,1.58-.22,1.85a1,1,0,0,1-1,.83h-2.55v-7.52H686Z" transform="translate(-14.87 -0.23)"/><path class="cls-3" d="M708.32,296.15a10.82,10.82,0,0,1-.75,4,8.75,8.75,0,0,1-2.15,3.3,9.91,9.91,0,0,1-3.48,2.2,12.77,12.77,0,0,1-4.67.8h-.66a28.61,28.61,0,0,1-9.1-1.68v-8.18H690a.93.93,0,0,1,1,.79c.08.4.22,1.63.39,3.65a22.2,22.2,0,0,0,6,.58,5.9,5.9,0,0,0,3.92-1.19,4.29,4.29,0,0,0,1.36-3.44,3.4,3.4,0,0,0-.61-2.06,4.62,4.62,0,0,0-1.68-1.32,14,14,0,0,0-2.33-.93c-.88-.26-1.8-.48-2.68-.79a27.32,27.32,0,0,1-2.69-1.06,8.53,8.53,0,0,1-2.37-1.62,6.43,6.43,0,0,1-1.63-2.47,9.6,9.6,0,0,1-.66-3.65,8.88,8.88,0,0,1,2.73-6.34,10.67,10.67,0,0,1,3.25-2,11.59,11.59,0,0,1,4.45-.79,24.17,24.17,0,0,1,9.11,1.8v8.14h-2.51a1,1,0,0,1-1-.84c-.09-.39-.22-1.58-.4-3.56a13.92,13.92,0,0,0-5.15-.7,7.38,7.38,0,0,0-2.11.26,4.43,4.43,0,0,0-1.54.84,3.88,3.88,0,0,0-1,1.27,4,4,0,0,0-.31,1.63,2.91,2.91,0,0,0,.66,1.85,5,5,0,0,0,1.63,1.27,13.73,13.73,0,0,0,2.38,1c.88.27,1.76.58,2.68.88s1.81.71,2.69,1.1a8.65,8.65,0,0,1,2.37,1.59,6.73,6.73,0,0,1,1.67,2.33A7.9,7.9,0,0,1,708.32,296.15Z" transform="translate(-14.87 -0.23)"/><path class="cls-15" d="M181.18,333.15a16.05,16.05,0,0,1-1,5.59,11.77,11.77,0,0,1-2.62,4.25,11.22,11.22,0,0,1-4,2.7,14.41,14.41,0,0,1-5.24.91H155.8v-.76c0-.41.27-.64.76-.68h.38c.19,0,.46,0,.84,0s.79,0,1.25,0V321.22c-.46,0-.87,0-1.25,0s-.65,0-.84,0h-.38c-.49,0-.76-.27-.76-.69v-.72h12.54a14.63,14.63,0,0,1,5.24.91,11.22,11.22,0,0,1,4,2.7,11.73,11.73,0,0,1,2.62,4.22A16.16,16.16,0,0,1,181.18,333.15Zm-2,0a14.79,14.79,0,0,0-.8-5,10.63,10.63,0,0,0-2.17-3.73,9.29,9.29,0,0,0-3.42-2.31,11.9,11.9,0,0,0-4.44-.8H161v23.75h7.37a11.9,11.9,0,0,0,4.44-.8,9.2,9.2,0,0,0,3.42-2.32,10.59,10.59,0,0,0,2.17-3.72A15,15,0,0,0,179.17,333.15Z" transform="translate(-14.87 -0.23)"/><path class="cls-15" d="M203.07,319.74v5.55h-.95c-.53,0-.76-.31-.8-.91,0-.34-.07-1.37-.15-3H188.9V332.2h10.71v1.56H188.9V345h12.27c0-.34,0-.72.08-1.29s0-.95,0-1.22a4.78,4.78,0,0,1,0-.49c0-.61.27-1,.8-1h.95v5.58h-19.3v-.76c0-.41.23-.64.72-.68h.38c.19,0,.46,0,.84,0s.79,0,1.25,0V321.22c-.46,0-.87,0-1.25,0s-.65,0-.84,0h-.38c-.49,0-.76-.27-.76-.69v-.72h19.34Z" transform="translate(-14.87 -0.23)"/><path class="cls-15" d="M232.1,341.59h.76v5H214.62v-.76c0-.41.27-.64.76-.68h.38c.19,0,.46,0,.84,0s.8,0,1.25,0V321.22c-.45,0-.87,0-1.25,0s-.65,0-.84,0h-.38c-.49,0-.76-.27-.76-.69v-.72H223v.72c0,.42-.26.65-.76.69h-.34c-.19,0-.49,0-.87,0s-.76,0-1.22,0v23.71h11.1c0-.53.07-1,.11-1.33s0-.61.08-.76a1.81,1.81,0,0,0,0-.34c0-.61.27-.91.8-.91Z" transform="translate(-14.87 -0.23)"/><path class="cls-15" d="M233.51,320a6.25,6.25,0,0,1,.19,1.44,5.91,5.91,0,0,1-.72,2.85,11.15,11.15,0,0,1-1.9,2.51l-.53-.34a.34.34,0,0,1-.12-.27.32.32,0,0,1,.12-.26,11.19,11.19,0,0,0,1.21-1.94,4.28,4.28,0,0,0-.23-4.26.48.48,0,0,1-.07-.3.4.4,0,0,1,.3-.38l1.14-.46A6,6,0,0,1,233.51,320Z" transform="translate(-14.87 -0.23)"/><path class="cls-15" d="M256.42,319.74v5.55h-1c-.53,0-.76-.31-.8-.91,0-.34-.07-1.37-.15-3H242.25V332.2H253v1.56H242.25V345h12.27c0-.34,0-.72.08-1.29s0-.95,0-1.22,0-.42,0-.49c0-.61.27-1,.8-1h1v5.58h-19.3v-.76c0-.41.23-.64.72-.68h.38c.19,0,.46,0,.84,0s.8,0,1.25,0V321.22c-.45,0-.87,0-1.25,0s-.65,0-.84,0h-.38c-.49,0-.76-.27-.76-.69v-.72h19.34Z" transform="translate(-14.87 -0.23)"/><path class="cls-15" d="M279.33,319.74v5.55h-.91c-.53,0-.79-.31-.83-.91,0-.19-.08-1.22-.16-3h-12.5v11.28h10v1.63h-10v10.83c.46,0,.88,0,1.26,0s.64,0,.83,0h.38c.5,0,.73.27.73.68v.76h-8.36v-.76c0-.41.26-.64.76-.68h.38c.19,0,.45,0,.83,0s.8,0,1.26,0V321.22c-.46,0-.88,0-1.26,0s-.64,0-.83,0h-.38c-.5,0-.76-.27-.76-.69v-.72h19.56Z" transform="translate(-14.87 -0.23)"/><path class="cls-15" d="M301,319.74v5.55h-.91c-.53,0-.8-.31-.83-.91,0-.19-.08-1.22-.16-3h-12.5v11.28h10v1.63h-10v10.83c.46,0,.88,0,1.26,0s.64,0,.83,0h.38c.5,0,.73.27.73.68v.76h-8.36v-.76c0-.41.26-.64.76-.68h.38c.19,0,.45,0,.83,0s.8,0,1.26,0V321.22c-.46,0-.88,0-1.26,0s-.64,0-.83,0h-.38c-.5,0-.76-.27-.76-.69v-.72H301Z" transform="translate(-14.87 -0.23)"/><path class="cls-15" d="M310.34,321.15c-.19,0-.45,0-.83,0s-.8,0-1.26,0v23.86c.46,0,.88,0,1.26,0s.64,0,.83,0h.38c.5,0,.72.27.72.68v.76h-8.35v-.76c0-.41.26-.64.76-.68h.38c.19,0,.45,0,.83,0s.8,0,1.26,0V321.22c-.46,0-.88,0-1.26,0s-.64,0-.83,0h-.38c-.5,0-.76-.27-.76-.69v-.76h8.35v.76c0,.42-.22.65-.72.69Z" transform="translate(-14.87 -0.23)"/><path class="cls-15" d="M335.88,343a14.56,14.56,0,0,1-1.83,1.6,12.84,12.84,0,0,1-2.12,1.21,13.25,13.25,0,0,1-2.59.8,15.7,15.7,0,0,1-3.08.27,13,13,0,0,1-5.09-1,11.19,11.19,0,0,1-4-2.77,12.77,12.77,0,0,1-2.58-4.34,16.63,16.63,0,0,1-1-5.66,15.27,15.27,0,0,1,1-5.58,12.65,12.65,0,0,1,2.7-4.33,12.13,12.13,0,0,1,4.18-2.81,13.41,13.41,0,0,1,5.32-1,23.24,23.24,0,0,1,8.58,1.9v6.08h-.91c-.53,0-.76-.31-.8-.92,0-.3-.11-1.71-.22-4.14a16.43,16.43,0,0,0-6.65-1.25,11.33,11.33,0,0,0-4.49.84,10.26,10.26,0,0,0-3.53,2.39,11.55,11.55,0,0,0-2.32,3.8,14.79,14.79,0,0,0-.8,5,15.21,15.21,0,0,0,.8,5.1,11,11,0,0,0,2.28,3.79,9.14,9.14,0,0,0,3.38,2.36,10.75,10.75,0,0,0,4.3.84,17.43,17.43,0,0,0,2.54-.19,9.41,9.41,0,0,0,2.09-.57,8.53,8.53,0,0,0,1.75-.92,15.31,15.31,0,0,0,1.63-1.29.63.63,0,0,0,.19-.15.34.34,0,0,1,.19,0,.51.51,0,0,1,.31.15Z" transform="translate(-14.87 -0.23)"/><path class="cls-15" d="M363.62,345.73v.87H357v-.87c0-.49.31-.72.88-.76a1.24,1.24,0,0,1,.23,0c.11,0,.3,0,.56,0s.57,0,1,0L357,338.28l-.19-.49H344l-.19.49-2.66,6.58c.38,0,.73,0,1,0s.42,0,.53,0a1.24,1.24,0,0,1,.23,0c.57,0,.88.27.88.76v.87h-6.54v-.87a.69.69,0,0,1,.72-.76l1.22-.11,10.29-25.16h1.94l10.26,25.16,1.25.11A.69.69,0,0,1,363.62,345.73Zm-19-9.39h11.67l-5.32-13.1c-.08-.23-.19-.46-.27-.73s-.19-.53-.27-.83c-.07.3-.19.57-.26.83s-.19.54-.27.77Z" transform="translate(-14.87 -0.23)"/><path class="cls-15" d="M387.75,343a14.56,14.56,0,0,1-1.83,1.6,12.84,12.84,0,0,1-2.12,1.21,13.25,13.25,0,0,1-2.59.8,15.7,15.7,0,0,1-3.08.27,13,13,0,0,1-5.09-1,11.19,11.19,0,0,1-4-2.77,12.77,12.77,0,0,1-2.58-4.34,16.63,16.63,0,0,1-1-5.66,15.27,15.27,0,0,1,1-5.58,12.65,12.65,0,0,1,2.7-4.33,12.13,12.13,0,0,1,4.18-2.81,13.41,13.41,0,0,1,5.32-1,23.24,23.24,0,0,1,8.58,1.9v6.08h-.91c-.53,0-.76-.31-.8-.92,0-.3-.11-1.71-.23-4.14a16.35,16.35,0,0,0-6.64-1.25,11.33,11.33,0,0,0-4.49.84,10.17,10.17,0,0,0-3.53,2.39,11.55,11.55,0,0,0-2.32,3.8,14.79,14.79,0,0,0-.8,5,15.21,15.21,0,0,0,.8,5.1,11,11,0,0,0,2.28,3.79A9.14,9.14,0,0,0,374,344.4a10.71,10.71,0,0,0,4.3.84,17.43,17.43,0,0,0,2.54-.19,9.41,9.41,0,0,0,2.09-.57,8.53,8.53,0,0,0,1.75-.92,15.31,15.31,0,0,0,1.63-1.29.63.63,0,0,0,.19-.15.34.34,0,0,1,.19,0,.51.51,0,0,1,.31.15Z" transform="translate(-14.87 -0.23)"/><path class="cls-15" d="M396.79,321.15c-.19,0-.45,0-.83,0s-.8,0-1.26,0v23.86c.46,0,.88,0,1.26,0s.64,0,.83,0h.38c.5,0,.72.27.72.68v.76h-8.35v-.76c0-.41.26-.64.76-.68h.38c.19,0,.45,0,.83,0s.8,0,1.26,0V321.22c-.46,0-.88,0-1.26,0s-.64,0-.83,0h-.38c-.5,0-.76-.27-.76-.69v-.76h8.35v.76c0,.42-.22.65-.72.69Z" transform="translate(-14.87 -0.23)"/><path class="cls-15" d="M421.26,319.74v5.55h-.91c-.53,0-.8-.31-.84-.91,0-.08,0-1.07-.15-3h-7.82v23.71c.45,0,.87,0,1.25,0s.65,0,.84,0H414c.49,0,.76.27.76.68v.76h-8.36v-.76c0-.41.26-.64.76-.68h.34c.19,0,.49,0,.87,0s.76,0,1.22,0V321.37h-7.87c-.07,1.75-.15,2.74-.15,3,0,.6-.26.91-.8.91h-.95v-5.55h21.43Z" transform="translate(-14.87 -0.23)"/><path class="cls-15" d="M442.62,319.74v5.55h-.91c-.54,0-.8-.31-.84-.91,0-.34-.08-1.37-.15-3H428.48V332.2h10.68v1.56H428.48V345h12.24c0-.34,0-.72.07-1.29s.08-.95.08-1.22V342c0-.61.3-1,.84-1h.91v5.58h-19.3v-.76c0-.41.26-.64.76-.68h.34c.19,0,.49,0,.87,0s.76,0,1.22,0V321.22c-.46,0-.84,0-1.22,0s-.68,0-.87,0h-.34c-.5,0-.76-.27-.76-.69v-.72h19.3Zm-7.94-2.66a1.68,1.68,0,0,1-.34.19,1.14,1.14,0,0,1-.38,0h-1.33l4.29-3.91a2.87,2.87,0,0,1,.49-.35,1.84,1.84,0,0,1,.69-.07h2.13Z" transform="translate(-14.87 -0.23)"/><path class="cls-15" d="M473.51,319.74v5.55h-.91c-.53,0-.8-.31-.84-.91,0-.34-.07-1.37-.15-3H459.38V332.2h10.67v1.56H459.38V345h12.23c0-.34,0-.72.08-1.29s.07-.95.07-1.22V342c0-.61.31-1,.84-1h.91v5.58h-19.3v-.76c0-.41.27-.64.76-.68h.34c.19,0,.5,0,.88,0s.76,0,1.21,0V321.22c-.45,0-.83,0-1.21,0s-.69,0-.88,0H455c-.49,0-.76-.27-.76-.69v-.72h19.3Zm-7.94-2.66a1.45,1.45,0,0,1-.34.19,1.11,1.11,0,0,1-.38,0h-1.33l4.29-3.91a2.56,2.56,0,0,1,.5-.35A1.8,1.8,0,0,1,469,313h2.13Z" transform="translate(-14.87 -0.23)"/><path class="cls-15" d="M504.06,319.74v.72c0,.42-.26.65-.76.69H503c-.19,0-.49,0-.87,0s-.76,0-1.22,0V346.6h-.95a.75.75,0,0,1-.68-.38L481.76,322.9a10.48,10.48,0,0,1,0,1.1v21.08c.45,0,.87,0,1.25,0s.72,0,.91,0h.38c.5,0,.76.27.76.68v.76h-8.2v-.76c0-.41.26-.64.76-.68H478c.19,0,.45,0,.83,0s.8,0,1.26,0V321.22c-.46,0-.88,0-1.26,0s-.64,0-.83,0h-.38c-.5,0-.76-.27-.76-.69v-.76h4.18a1.06,1.06,0,0,1,.41.08c.12,0,.19.15.31.3l17.4,23.29a10.48,10.48,0,0,1,0-1.1v-21c-.45,0-.91,0-1.29,0s-.68,0-.88,0h-.37c-.5,0-.76-.27-.76-.69v-.72h8.2Z" transform="translate(-14.87 -0.23)"/><path class="cls-15" d="M525.27,319.74v5.55h-.95c-.53,0-.76-.31-.8-.91,0-.34-.08-1.37-.15-3H511.1V332.2h10.71v1.56H511.1V345h12.27c0-.34,0-.72.07-1.29s0-.95,0-1.22a4.78,4.78,0,0,1,0-.49c0-.61.27-1,.8-1h.95v5.58H506v-.76c0-.41.22-.64.72-.68h.38c.19,0,.45,0,.83,0s.8,0,1.26,0V321.22c-.46,0-.88,0-1.26,0s-.64,0-.83,0h-.38c-.5,0-.76-.27-.76-.69v-.72h19.34Z" transform="translate(-14.87 -0.23)"/><path class="cls-15" d="M551,345.84v.76h-2.66a1.14,1.14,0,0,1-.53-.11,1.31,1.31,0,0,1-.42-.38l-8.62-10.9a2.36,2.36,0,0,0-.69-.61,2.72,2.72,0,0,0-1.14-.15h-3.19v10.63c.46,0,.84,0,1.22,0s.64,0,.83,0h.38c.5,0,.76.27.76.68v.76h-8.36v-.76c0-.41.27-.64.76-.68h.38c.19,0,.46,0,.84,0s.8,0,1.25,0V321.22c-.45,0-.87,0-1.25,0s-.65,0-.84,0h-.38c-.49,0-.72-.27-.72-.69v-.72h9.73c3.11,0,5.43.61,7,1.79a6.26,6.26,0,0,1,2.28,5.24,7.4,7.4,0,0,1-.53,2.81,6.69,6.69,0,0,1-1.52,2.24,8.14,8.14,0,0,1-2.39,1.6,10.51,10.51,0,0,1-3.2.8,3,3,0,0,1,.84.76l8.05,10.14c.23,0,.46,0,.69,0h.76C550.8,345.2,551,345.43,551,345.84Zm-9.73-13.26a6.52,6.52,0,0,0,2.4-1.25,5.29,5.29,0,0,0,1.52-1.9,6,6,0,0,0,.49-2.51,4.92,4.92,0,0,0-1.86-4.25,9.15,9.15,0,0,0-5.47-1.41h-4.6V333h4.33A11.62,11.62,0,0,0,541.3,332.58Z" transform="translate(-14.87 -0.23)"/><path class="cls-15" d="M575.24,334.41v9.53a23.65,23.65,0,0,1-2.09,1.26,15,15,0,0,1-2.32.95,24.36,24.36,0,0,1-2.66.57,26.81,26.81,0,0,1-3.12.19,13.87,13.87,0,0,1-5.28-1,11.69,11.69,0,0,1-4.14-2.77,12.94,12.94,0,0,1-2.66-4.34,17.34,17.34,0,0,1,0-11.32,11.77,11.77,0,0,1,6.95-7.1,15.36,15.36,0,0,1,5.59-.95,24.74,24.74,0,0,1,4.86.53,21.83,21.83,0,0,1,4.6,1.37v6.08h-.91c-.53,0-.8-.31-.84-.92,0-.26-.07-1.63-.19-4.1a18.28,18.28,0,0,0-7.6-1.29,12.23,12.23,0,0,0-4.71.84,10.22,10.22,0,0,0-3.61,2.39,10.77,10.77,0,0,0-2.28,3.8,14.78,14.78,0,0,0-.83,5,15.36,15.36,0,0,0,.83,5.1,10.64,10.64,0,0,0,2.28,3.83,10.38,10.38,0,0,0,3.54,2.4,11.69,11.69,0,0,0,4.56.83c.91,0,1.74,0,2.5-.11a12,12,0,0,0,2.13-.42,14.1,14.1,0,0,0,1.86-.72c.57-.27,1.18-.57,1.79-.91v-7.26h-5.17a.5.5,0,0,1-.34-.11.48.48,0,0,1-.15-.31v-1.06Z" transform="translate(-14.87 -0.23)"/><path class="cls-15" d="M597.39,319.74v5.55h-.91c-.53,0-.8-.31-.84-.91,0-.34-.07-1.37-.15-3H583.26V332.2h10.67v1.56H583.26V345h12.23c0-.34,0-.72.08-1.29s.07-.95.07-1.22V342c0-.61.31-1,.84-1h.91v5.58h-19.3v-.76c0-.41.27-.64.76-.68h.34c.19,0,.5,0,.87,0s.76,0,1.22,0V321.22c-.46,0-.83,0-1.22,0s-.68,0-.87,0h-.34c-.49,0-.76-.27-.76-.69v-.72h19.3Zm-7.94-2.66a1.45,1.45,0,0,1-.34.19,1.14,1.14,0,0,1-.38,0H587.4l4.29-3.91a2.56,2.56,0,0,1,.5-.35,1.78,1.78,0,0,1,.68-.07H595Z" transform="translate(-14.87 -0.23)"/><path class="cls-15" d="M621.44,319.74v5.55h-.91c-.53,0-.8-.31-.83-.91,0-.08,0-1.07-.15-3h-7.83v23.71c.45,0,.87,0,1.25,0s.65,0,.84,0h.38c.49,0,.76.27.76.68v.76h-8.36v-.76c0-.41.27-.64.76-.68h.34c.19,0,.49,0,.87,0s.76,0,1.22,0V321.37h-7.86c-.08,1.75-.16,2.74-.16,3,0,.6-.26.91-.79.91h-1v-5.55h21.42Z" transform="translate(-14.87 -0.23)"/><path class="cls-15" d="M630.76,321.15c-.19,0-.46,0-.84,0s-.8,0-1.25,0v23.86c.45,0,.87,0,1.25,0s.65,0,.84,0h.38c.49,0,.72.27.72.68v.76H623.5v-.76c0-.41.27-.64.76-.68h.38c.19,0,.46,0,.84,0s.79,0,1.25,0V321.22c-.46,0-.87,0-1.25,0s-.65,0-.84,0h-.38c-.49,0-.76-.27-.76-.69v-.76h8.36v.76c0,.42-.23.65-.72.69Z" transform="translate(-14.87 -0.23)"/><path class="cls-15" d="M659.25,337a13.58,13.58,0,0,1-1.14,3.31,12,12,0,0,1-1.86,2.69,11.61,11.61,0,0,1-2.47,2.06l7,7.48h-1.63a1.94,1.94,0,0,1-.68-.11,1.37,1.37,0,0,1-.54-.34l-5.73-6.2a13.93,13.93,0,0,1-2.51.72,13.22,13.22,0,0,1-2.81.31,13.47,13.47,0,0,1-5.21-1,11.65,11.65,0,0,1-4.06-2.77,12.37,12.37,0,0,1-2.62-4.34,17,17,0,0,1,0-11.28,12.32,12.32,0,0,1,2.62-4.33,11.49,11.49,0,0,1,4.06-2.81,14.18,14.18,0,0,1,10.41,0,11.52,11.52,0,0,1,4.07,2.81,12.38,12.38,0,0,1,2.58,4.33,16.39,16.39,0,0,1,.95,5.62A17.45,17.45,0,0,1,659.25,337Zm-2.35-8.89a11,11,0,0,0-2.21-3.8,9.49,9.49,0,0,0-3.42-2.39,11.5,11.5,0,0,0-4.4-.84,11.66,11.66,0,0,0-4.41.84A9.49,9.49,0,0,0,639,324.3a11,11,0,0,0-2.2,3.8,16.37,16.37,0,0,0,0,10.11A11,11,0,0,0,639,342a9.49,9.49,0,0,0,3.42,2.39,11.85,11.85,0,0,0,4.41.8,11.69,11.69,0,0,0,4.4-.8,9.49,9.49,0,0,0,3.42-2.39,11,11,0,0,0,2.21-3.8,17.19,17.19,0,0,0,0-10.11Z" transform="translate(-14.87 -0.23)"/><path class="cls-15" d="M687.45,319.74v.72c0,.42-.27.65-.76.69h-.34c-.19,0-.5,0-.88,0s-.76,0-1.21,0v15.12a12.51,12.51,0,0,1-.72,4.15,9.76,9.76,0,0,1-2,3.38,9.18,9.18,0,0,1-3.23,2.24,10.73,10.73,0,0,1-4.22.8,10.91,10.91,0,0,1-4.25-.8,9.27,9.27,0,0,1-3.23-2.24,9.74,9.74,0,0,1-2-3.38,12.25,12.25,0,0,1-.69-4.15V321.22c-.45,0-.87,0-1.25,0s-.65,0-.84,0h-.38c-.49,0-.72-.27-.72-.69v-.72h8.82v.72c0,.42-.27.65-.76.69h-.46c-.27,0-.65,0-1.1,0s-.91,0-1.37,0v15.12a10.36,10.36,0,0,0,.57,3.5,8.13,8.13,0,0,0,1.6,2.81,7.08,7.08,0,0,0,2.58,1.9,8.49,8.49,0,0,0,3.49.69,8.28,8.28,0,0,0,3.46-.69,7.46,7.46,0,0,0,2.59-1.86,8.17,8.17,0,0,0,1.63-2.85,10.53,10.53,0,0,0,.57-3.5V321.22c-.46,0-.91,0-1.37,0s-.83,0-1.1,0h-.46c-.49,0-.76-.27-.76-.69v-.72h8.82Z" transform="translate(-14.87 -0.23)"/><path class="cls-15" d="M708.62,319.74v5.55h-1c-.54,0-.76-.31-.8-.91,0-.34-.08-1.37-.15-3H694.44V332.2h10.72v1.56H694.44V345h12.28c0-.34,0-.72.07-1.29s0-.95,0-1.22a4.78,4.78,0,0,1,0-.49c0-.61.26-1,.8-1h1v5.58H689.31v-.76c0-.41.23-.64.73-.68h.38c.19,0,.45,0,.83,0s.8,0,1.26,0V321.22c-.46,0-.88,0-1.26,0s-.64,0-.83,0H690c-.5,0-.76-.27-.76-.69v-.72h19.34Z" transform="translate(-14.87 -0.23)"/><path class="cls-3" d="M648.94,365.35c-.11,0-.3.07-.56.11l-1.07.18v19.43c.44.07.81.15,1.07.18s.45.12.56.12a1.64,1.64,0,0,1,.22,0,1.07,1.07,0,0,1,.93,1.15v2.18H639.58v-2.18a1.06,1.06,0,0,1,.92-1.15c.08,0,.89-.11,2.41-.33V371.45c0-.33,0-.66,0-1s0-.78.08-1.19L635,384.4a2.18,2.18,0,0,1-.74.82,1.91,1.91,0,0,1-1,.29h-.67a2,2,0,0,1-1-.29,2.36,2.36,0,0,1-.74-.82l-8.17-15.2c0,.4,0,.81.07,1.18a9.93,9.93,0,0,1,0,1.07v13.62l2.4.33a1.07,1.07,0,0,1,.93,1.15v2.18H615.49v-2.18a1.06,1.06,0,0,1,.92-1.15.86.86,0,0,0,.23,0,3.18,3.18,0,0,1,.55-.12c.26,0,.67-.11,1.11-.18V365.64l-1.11-.18c-.26,0-.44-.11-.55-.11a.66.66,0,0,0-.23,0,1.06,1.06,0,0,1-.92-1.15V362H622c.22,0,.44,0,.59,0a1.45,1.45,0,0,1,.44.07.78.78,0,0,1,.34.26,2.39,2.39,0,0,1,.33.44l8,14.84c.22.41.37.82.56,1.22s.37.85.55,1.3c.19-.45.34-.85.52-1.3s.37-.85.59-1.26l7.92-14.8a2.39,2.39,0,0,1,.3-.44.86.86,0,0,1,.37-.26A1.68,1.68,0,0,1,643,362c.15,0,.33,0,.56,0h6.55v2.18a1.07,1.07,0,0,1-.93,1.15A1.26,1.26,0,0,1,648.94,365.35Z" transform="translate(-14.87 -0.23)"/><path class="cls-3" d="M670.06,362v2a5.11,5.11,0,0,1-.18,1.44,7.73,7.73,0,0,1-.41.93l-10.1,20.87a3.34,3.34,0,0,1-.89,1.11,2.46,2.46,0,0,1-1.55.44H653.6L664,368.31a11.23,11.23,0,0,1,1.44-2.19H654.63c-.11,1.19-.14,2-.22,2.34a.81.81,0,0,1-.89.66h-2V362Z" transform="translate(-14.87 -0.23)"/><path class="cls-3" d="M690.12,388.73H671.36v-1.52a3.22,3.22,0,0,1,.18-1,3,3,0,0,1,.63-.92l8.11-8.14c.66-.71,1.33-1.33,1.85-2a15.56,15.56,0,0,0,1.33-1.89,8.74,8.74,0,0,0,.85-1.89,7.21,7.21,0,0,0,.26-2,5,5,0,0,0-.26-1.7,3.5,3.5,0,0,0-.82-1.22,3,3,0,0,0-1.22-.74,5.24,5.24,0,0,0-1.59-.26,4.23,4.23,0,0,0-2.7.85,4.55,4.55,0,0,0-1.48,2.22,1.86,1.86,0,0,1-.63,1,1.6,1.6,0,0,1-1,.34,3.55,3.55,0,0,1-.6-.08l-2.4-.41a10.06,10.06,0,0,1,1.07-3.4,8,8,0,0,1,2-2.41,8.15,8.15,0,0,1,2.74-1.48,11,11,0,0,1,3.33-.48,10.16,10.16,0,0,1,3.41.56,7.7,7.7,0,0,1,2.59,1.55,7,7,0,0,1,1.7,2.41,7.58,7.58,0,0,1,.63,3.11,8.06,8.06,0,0,1-.45,2.73,11.54,11.54,0,0,1-1.14,2.41,13.71,13.71,0,0,1-1.71,2.22l-2.07,2.18-6,6.18c.59-.18,1.18-.29,1.74-.41a13.29,13.29,0,0,1,1.63-.14h5.92c.07-1,.11-1.52.15-1.67a.78.78,0,0,1,.85-.66h2v6.58Z" transform="translate(-14.87 -0.23)"/><path class="cls-3" d="M707.62,365.5a2.82,2.82,0,0,1-2,.62h-7.4l-1,5.59a16,16,0,0,1,3.33-.37,10.24,10.24,0,0,1,3.7.63,7.62,7.62,0,0,1,2.7,1.74,7.09,7.09,0,0,1,1.67,2.59,9.18,9.18,0,0,1,.52,3.22,9.69,9.69,0,0,1-.74,3.88,8.63,8.63,0,0,1-2.08,3,9.43,9.43,0,0,1-3.14,1.93,11.51,11.51,0,0,1-4,.7,10.3,10.3,0,0,1-2.41-.26,14.11,14.11,0,0,1-2.11-.7,12.83,12.83,0,0,1-1.84-1,12.14,12.14,0,0,1-1.49-1.19l1.41-2a1.42,1.42,0,0,1,1.19-.63,1.79,1.79,0,0,1,.92.3c.3.18.67.44,1.07.66a8.55,8.55,0,0,0,1.48.63,6.19,6.19,0,0,0,2,.3,5.81,5.81,0,0,0,2.22-.37,4.44,4.44,0,0,0,2.59-2.89,7.18,7.18,0,0,0,.3-2.22,4.49,4.49,0,0,0-1.26-3.4,5.25,5.25,0,0,0-3.74-1.22,11.05,11.05,0,0,0-3.88.7l-2.85-.81L695,362h13.21v2A2.06,2.06,0,0,1,707.62,365.5Z" transform="translate(-14.87 -0.23)"/></svg>