<svg id="Layer_1" data-name="Layer 1" xmlns="http://www.w3.org/2000/svg" viewBox="0 0 800.35 672.5"><defs><style>.cls-1,.cls-6{fill:#fff;}.cls-2{fill:#febf12;}.cls-3{fill:#84748b;}.cls-13,.cls-4{fill:#ccc4d4;}.cls-5{stroke:#231f20;stroke-width:0.5px;}.cls-11,.cls-12,.cls-13,.cls-15,.cls-5,.cls-6,.cls-7,.cls-9{stroke-miterlimit:10;}.cls-10,.cls-11,.cls-12,.cls-15,.cls-6,.cls-7,.cls-9{stroke:#000;}.cls-6{stroke-width:5px;}.cls-7{stroke-width:1.15px;}.cls-8{fill:#f8c44f;}.cls-9{stroke-width:0.77px;}.cls-10,.cls-11,.cls-12,.cls-15{fill:none;}.cls-10{stroke-linejoin:round;}.cls-10,.cls-11,.cls-12{stroke-width:3.48px;}.cls-12{stroke-linecap:round;}.cls-13{stroke:#ccc4d4;stroke-width:7px;}.cls-14{fill:#282d33;}.cls-15{stroke-width:3.5px;}</style></defs><title>M725_launch_page</title><line class="cls-1" x1="145.43" y1="165.52" x2="135.53" y2="165.52"/><polygon class="cls-2" points="546.62 124.13 529.88 166.63 545.72 206.84 579.21 206.84 546.62 124.13"/><path class="cls-3" d="M375.06,189.75h-20V111.11a91.31,91.31,0,1,1,182.61,0v87.43h-20V111.11a71.31,71.31,0,1,0-142.61,0Z" transform="translate(-14.87 -0.23)"/><path d="M529.67,198.54h-4V111.11a79.31,79.31,0,1,0-158.61,0v74.8h-4v-74.8a83.31,83.31,0,1,1,166.61,0Z" transform="translate(-14.87 -0.23)"/><polygon class="cls-1" points="532.74 166.63 530.34 160.54 513.15 116.9 477.35 207.77 517.94 204.18 532.28 167.78 532.74 166.63"/><path d="M533.76,208.23l-44.4-.23L528,109.88l22.45,57Zm-38-5h34l15-36.37L528,124.37,495.07,208Z" transform="translate(-14.87 -0.23)"/><path d="M566.3,207.07H528.91l18.7-47.46Zm-30.54-3.84h23L547.6,174.1Z" transform="translate(-14.87 -0.23)"/><rect class="cls-3" x="181.5" y="4.3" width="59.41" height="201.7"/><rect class="cls-3" x="179.84" width="62.71" height="10.62"/><polyline class="cls-1" points="135.3 206 135.3 96.81 193.06 96.81 193.06 206"/><polygon points="195.68 206 190.44 206 190.44 99.43 137.92 99.43 137.92 206 132.68 206 132.68 94.19 195.68 94.19 195.68 206"/><rect class="cls-1" x="133.65" y="86.03" width="61.06" height="12.87"/><path d="M212.2,101.75H145.89V83.63H212.2ZM151.14,96.5H207V88.88H151.14Z" transform="translate(-14.87 -0.23)"/><line class="cls-1" x1="144.72" y1="113.31" x2="152.46" y2="113.31"/><rect x="144.72" y="110.68" width="7.74" height="5.25"/><line class="cls-1" x1="160.19" y1="113.31" x2="167.93" y2="113.31"/><rect x="160.19" y="110.68" width="7.74" height="5.25"/><line class="cls-1" x1="175.65" y1="113.31" x2="183.39" y2="113.31"/><rect x="175.65" y="110.68" width="7.75" height="5.25"/><line class="cls-1" x1="144.72" y1="127.94" x2="152.46" y2="127.94"/><rect x="144.72" y="125.32" width="7.74" height="5.25"/><line class="cls-1" x1="160.19" y1="127.94" x2="167.93" y2="127.94"/><rect x="160.19" y="125.32" width="7.74" height="5.25"/><line class="cls-1" x1="175.65" y1="127.94" x2="183.39" y2="127.94"/><rect x="175.65" y="125.32" width="7.75" height="5.25"/><line class="cls-1" x1="144.72" y1="142.57" x2="152.46" y2="142.57"/><rect x="144.72" y="139.95" width="7.74" height="5.25"/><line class="cls-1" x1="160.19" y1="142.57" x2="167.93" y2="142.57"/><rect x="160.19" y="139.95" width="7.74" height="5.25"/><line class="cls-1" x1="175.65" y1="142.57" x2="183.39" y2="142.57"/><rect x="175.65" y="139.95" width="7.75" height="5.25"/><line class="cls-1" x1="144.72" y1="157.21" x2="152.46" y2="157.21"/><rect x="144.72" y="154.59" width="7.74" height="5.25"/><line class="cls-1" x1="160.19" y1="157.21" x2="167.93" y2="157.21"/><rect x="160.19" y="154.59" width="7.74" height="5.25"/><line class="cls-1" x1="175.65" y1="157.21" x2="183.39" y2="157.21"/><rect x="175.65" y="154.59" width="7.75" height="5.25"/><line class="cls-1" x1="144.72" y1="171.84" x2="152.46" y2="171.84"/><rect x="144.72" y="169.22" width="7.74" height="5.25"/><line class="cls-1" x1="160.19" y1="171.84" x2="167.93" y2="171.84"/><rect x="160.19" y="169.22" width="7.74" height="5.25"/><line class="cls-1" x1="175.65" y1="171.84" x2="183.39" y2="171.84"/><rect x="175.65" y="169.22" width="7.75" height="5.25"/><line class="cls-1" x1="144.72" y1="186.48" x2="152.46" y2="186.48"/><rect x="144.72" y="183.85" width="7.74" height="5.25"/><line class="cls-1" x1="160.19" y1="186.48" x2="167.93" y2="186.48"/><rect x="160.19" y="183.85" width="7.74" height="5.25"/><line class="cls-1" x1="175.65" y1="186.48" x2="183.39" y2="186.48"/><rect x="175.65" y="183.85" width="7.75" height="5.25"/><polyline class="cls-4" points="235.49 206 235.49 73.65 289.07 73.65 289.07 206"/><polygon points="291.69 206 286.44 206 286.44 76.27 238.11 76.27 238.11 206 232.86 206 232.86 71.02 291.69 71.02 291.69 206"/><rect class="cls-4" x="242.9" y="60.12" width="38.76" height="13.48"/><path d="M299.15,76.45h-44V57.72h44ZM260.39,71.2H293.9V63H260.39Z" transform="translate(-14.87 -0.23)"/><rect class="cls-1" x="244.24" y="85.34" width="36.06" height="5.25"/><rect class="cls-1" x="244.24" y="102.06" width="36.06" height="5.25"/><rect class="cls-1" x="244.24" y="118.79" width="36.06" height="5.25"/><rect class="cls-1" x="244.24" y="135.51" width="36.06" height="5.25"/><rect class="cls-1" x="244.24" y="152.23" width="36.06" height="5.25"/><rect class="cls-1" x="244.24" y="168.96" width="36.06" height="5.25"/><rect class="cls-1" x="244.24" y="185.68" width="36.06" height="5.25"/><line class="cls-4" x1="262.28" y1="58.26" x2="262.28" y2="38.75"/><rect x="259.65" y="38.75" width="5.25" height="19.51"/><polyline class="cls-1" points="271.78 206 271.78 161.06 358.94 161.06 358.94 206"/><polygon points="361.57 206 356.32 206 356.32 163.68 274.4 163.68 274.4 206 269.15 206 269.15 158.44 361.57 158.44 361.57 206"/><rect class="cls-2" x="284.62" y="182.77" width="61.49" height="23.23"/><rect x="281.98" y="182.13" width="67.06" height="5.25"/><rect x="312.88" y="183.14" width="5.25" height="22.86"/><rect x="271.81" y="167.82" width="87.1" height="5.25"/><path class="cls-4" d="M334.34,69.74h69.41c0-.07,0-.13,0-.19A13.92,13.92,0,0,0,386,56.12a20.48,20.48,0,0,0-40.76,2.81v.13A12.49,12.49,0,0,0,334.34,69.74Z" transform="translate(-14.87 -0.23)"/><path class="cls-5" d="M436.07,194.4a27.24,27.24,0,0,1-24.94-16.32,2.36,2.36,0,0,1,4.32-1.89,22.5,22.5,0,0,0,41.59-.84,2.36,2.36,0,0,1,4.39,1.71A27,27,0,0,1,436.07,194.4Z" transform="translate(-14.87 -0.23)"/><path class="cls-5" d="M482.4,192.05" transform="translate(-14.87 -0.23)"/><path class="cls-5" d="M482.4,194.4A27,27,0,0,1,457,177.06a2.36,2.36,0,1,1,4.39-1.71,22.38,22.38,0,0,0,21,14.34,2.36,2.36,0,1,1,0,4.71Z" transform="translate(-14.87 -0.23)"/><path class="cls-5" d="M390.5,194.4a2.36,2.36,0,0,1,0-4.71,22.52,22.52,0,0,0,20.63-13.5,2.36,2.36,0,0,1,4.32,1.89A27.24,27.24,0,0,1,390.5,194.4Z" transform="translate(-14.87 -0.23)"/><path class="cls-5" d="M390.5,192.05" transform="translate(-14.87 -0.23)"/><line class="cls-1" x1="215.45" y1="21.72" x2="206.95" y2="21.72"/><rect x="206.95" y="19.09" width="8.49" height="5.25"/><rect class="cls-6" x="109.73" y="206.5" width="618" height="228"/><path class="cls-3" d="M200.42,264.72v9.88h-3a1.14,1.14,0,0,1-1.2-1c-.05-.41-.21-1.5-.36-3.32H183.73v10.4h12.74v5.41H183.73v10.6h12.12c.15-1.82.31-2.91.36-3.32a1.14,1.14,0,0,1,1.2-1h3v9.93H172.76v-3.07a1.49,1.49,0,0,1,1.3-1.61,1.75,1.75,0,0,1,.31-.05c.15,0,.42-.11.78-.16l1.56-.26v-27.3l-1.56-.26c-.36-.05-.63-.16-.78-.16a1.75,1.75,0,0,1-.31-.05,1.49,1.49,0,0,1-1.3-1.61v-3.07h27.66Z" transform="translate(-14.87 -0.23)"/><path class="cls-3" d="M242.18,264.72v3.07a1.5,1.5,0,0,1-1.3,1.61,2,2,0,0,1-.31.05c-.16,0-.42.11-.78.16s-.89.16-1.51.26v32.45h-3.64a3.21,3.21,0,0,1-1.35-.26,3,3,0,0,1-1.1-.94l-19.65-25c.05.57.1,1.09.1,1.61s.05,1,.05,1.51v17.94c2.19.31,3.28.47,3.38.47a1.49,1.49,0,0,1,1.3,1.61v3.07H202.6v-3.07a1.5,1.5,0,0,1,1.3-1.61,1,1,0,0,0,.32-.05,4.59,4.59,0,0,1,.78-.16l1.56-.26v-27.3l-1.56-.26c-.37-.05-.63-.16-.78-.16a2.15,2.15,0,0,1-.32-.05,1.5,1.5,0,0,1-1.3-1.61v-3.07h7.6c.31,0,.57,0,.78,0a1.11,1.11,0,0,1,.57.16,1.27,1.27,0,0,1,.47.31c.15.16.31.37.52.63L232.3,291c-.05-.62-.11-1.19-.16-1.76s0-1.15,0-1.67V269.87c-2.18-.31-3.28-.47-3.38-.47a1.5,1.5,0,0,1-1.3-1.61v-3.07h14.77Z" transform="translate(-14.87 -0.23)"/><path class="cls-3" d="M271.66,264.72v9.88h-3a1.13,1.13,0,0,1-1.19-1c-.05-.41-.21-1.5-.37-3.32H255v10.4h12.74v5.41H255v10.6h12.11c.16-1.82.32-2.91.37-3.32a1.13,1.13,0,0,1,1.19-1h3v9.93H244v-3.07a1.49,1.49,0,0,1,1.3-1.61,1.75,1.75,0,0,1,.31-.05c.15,0,.41-.11.78-.16l1.56-.26v-27.3l-1.56-.26c-.37-.05-.63-.16-.78-.16a1.75,1.75,0,0,1-.31-.05,1.49,1.49,0,0,1-1.3-1.61v-3.07h27.66Z" transform="translate(-14.87 -0.23)"/><path class="cls-3" d="M307.49,299.25v3.07h-7a2.86,2.86,0,0,1-1.56-.36,3.33,3.33,0,0,1-1-1L290,288.85a2.67,2.67,0,0,0-1-.93,3.18,3.18,0,0,0-1.56-.32h-2.66v9.57l1.56.26c.37.05.63.16.78.16a2.15,2.15,0,0,1,.32.05,1.5,1.5,0,0,1,1.3,1.61v3.07H273.84v-3.07a1.5,1.5,0,0,1,1.3-1.61,2.15,2.15,0,0,1,.32-.05,4.59,4.59,0,0,1,.78-.16l1.56-.26v-27.3l-1.56-.26c-.37-.05-.63-.16-.78-.16a2.15,2.15,0,0,1-.32-.05,1.5,1.5,0,0,1-1.3-1.61v-3.07h15a24.51,24.51,0,0,1,6.61.78,12.41,12.41,0,0,1,4.47,2.24,8.74,8.74,0,0,1,2.6,3.43,11,11,0,0,1,.83,4.37,11.93,11.93,0,0,1-.57,3.59,11,11,0,0,1-1.61,3.06,9.67,9.67,0,0,1-2.6,2.4,14.79,14.79,0,0,1-3.54,1.66,7.11,7.11,0,0,1,2.29,2.19l5.93,8.73c.62.11,1.19.21,1.61.26s.67.16.88.16a2.91,2.91,0,0,1,.42.05A1.5,1.5,0,0,1,307.49,299.25Zm-12.85-18.51a5.57,5.57,0,0,0,1.41-2.08,7.07,7.07,0,0,0,.47-2.6,5.4,5.4,0,0,0-1.88-4.42c-1.24-1-3.17-1.51-5.77-1.51h-4.11v12.48h4a11.4,11.4,0,0,0,3.43-.52A6.43,6.43,0,0,0,294.64,280.74Z" transform="translate(-14.87 -0.23)"/><path class="cls-3" d="M341.13,283.5v15.18a20.79,20.79,0,0,1-3,1.82,17.49,17.49,0,0,1-3.28,1.25,26.56,26.56,0,0,1-3.79.73,38.59,38.59,0,0,1-4.32.26,19.6,19.6,0,0,1-7.54-1.46,17.48,17.48,0,0,1-6-3.95,18.67,18.67,0,0,1-3.95-6.09,22.35,22.35,0,0,1-.05-15.49,17.75,17.75,0,0,1,3.95-6.09,17.19,17.19,0,0,1,6.13-4,22.66,22.66,0,0,1,7.75-1.4h.37a39.12,39.12,0,0,1,13.31,2.7v9.57h-3a1.09,1.09,0,0,1-1.19-.94c-.11-.47-.26-1.82-.47-4.05a27.44,27.44,0,0,0-8.89-1.3,12.84,12.84,0,0,0-5,.93,10.78,10.78,0,0,0-3.84,2.65,12.28,12.28,0,0,0-2.45,4.16,16.38,16.38,0,0,0-.88,5.47,16.76,16.76,0,0,0,.93,5.82,12,12,0,0,0,2.55,4.26,11.27,11.27,0,0,0,3.9,2.66,12.93,12.93,0,0,0,4.94.93,19.3,19.3,0,0,0,4.11-.41,15,15,0,0,0,3.33-1.2v-6.81h-4.68a1.48,1.48,0,0,1-1.09-.42,1.14,1.14,0,0,1-.37-.88V283.5Z" transform="translate(-14.87 -0.23)"/><path class="cls-3" d="M379.09,264.72v3.07a1.49,1.49,0,0,1-1.3,1.61c-.1,0-.15.05-.31.05s-.42.11-.78.16-.88.16-1.51.26l-10.61,17.84v9.46c.63.11,1.15.21,1.51.26s.63.16.78.16a1.75,1.75,0,0,1,.31.05,1.49,1.49,0,0,1,1.3,1.61v3.07H353.61v-3.07a1.5,1.5,0,0,1,1.3-1.61,1.27,1.27,0,0,0,.37-.05,4.59,4.59,0,0,1,.78-.16c.36-.05.88-.15,1.5-.26v-9.46L347,269.87l-1.56-.26c-.37-.05-.63-.16-.78-.16a1,1,0,0,0-.32-.05,1.5,1.5,0,0,1-1.3-1.61v-3.07h14v3.07a1.49,1.49,0,0,1-1.3,1.61c-.05,0-.1.05-.2.05a2.71,2.71,0,0,1-.52.16l-.73.16,5,9.1c.42.73.73,1.4,1,2.08s.52,1.35.78,2a16.11,16.11,0,0,1,.78-2c.31-.68.62-1.35,1-2.08l4.94-9.1-.78-.16c-.21-.05-.36-.16-.47-.16a.58.58,0,0,0-.26-.05,1.5,1.5,0,0,1-1.3-1.61v-3.07h14Z" transform="translate(-14.87 -0.23)"/><path class="cls-3" d="M420.64,264.72v9.88h-3a1.13,1.13,0,0,1-1.19-1c-.05-.41-.21-1.5-.37-3.32H404v10.4h12.74v5.41H404v10.6h12.11c.16-1.82.32-2.91.37-3.32a1.13,1.13,0,0,1,1.19-1h3v9.93H393v-3.07a1.5,1.5,0,0,1,1.3-1.61,2.15,2.15,0,0,1,.32-.05c.15,0,.41-.11.78-.16l1.56-.26v-27.3l-1.56-.26c-.37-.05-.63-.16-.78-.16a2.15,2.15,0,0,1-.32-.05,1.5,1.5,0,0,1-1.3-1.61v-3.07h27.67Z" transform="translate(-14.87 -0.23)"/><path class="cls-3" d="M451.79,264.72v9.88h-3a1.13,1.13,0,0,1-1.19-1c-.06-.41-.21-1.5-.37-3.32H433.79v11.13H447V287H433.79v10.19l1.56.26c.37.05.63.16.78.16a2.15,2.15,0,0,1,.32.05,1.5,1.5,0,0,1,1.3,1.61v3.07H422.82v-3.07a1.5,1.5,0,0,1,1.3-1.61,2,2,0,0,1,.31-.05c.16,0,.42-.11.78-.16s.94-.15,1.56-.26v-27.3c-.62-.1-1.19-.21-1.56-.26s-.62-.16-.78-.16a.93.93,0,0,0-.31-.05,1.5,1.5,0,0,1-1.3-1.61v-3.07h29Z" transform="translate(-14.87 -0.23)"/><path class="cls-3" d="M482.62,264.72v9.88h-3a1.14,1.14,0,0,1-1.2-1c-.05-.41-.21-1.5-.36-3.32H464.63v11.13h13.16V287H464.63v10.19l1.56.26c.36.05.62.16.78.16a1.75,1.75,0,0,1,.31.05,1.49,1.49,0,0,1,1.3,1.61v3.07H453.66v-3.07a1.49,1.49,0,0,1,1.3-1.61,1.75,1.75,0,0,1,.31-.05c.16,0,.42-.11.78-.16l1.56-.26v-27.3l-1.56-.26c-.36-.05-.62-.16-.78-.16a1,1,0,0,0-.31-.05,1.49,1.49,0,0,1-1.3-1.61v-3.07h29Z" transform="translate(-14.87 -0.23)"/><path class="cls-3" d="M497.75,269.45c-.15,0-.41.11-.78.16s-.88.16-1.5.26v27.3c.62.11,1.14.21,1.5.26s.63.16.78.16a1.75,1.75,0,0,1,.31.05,1.49,1.49,0,0,1,1.3,1.61v3.07H484.49v-3.07a1.5,1.5,0,0,1,1.3-1.61,2.19,2.19,0,0,1,.31-.05,5.09,5.09,0,0,1,.78-.16c.37-.05.94-.15,1.56-.26v-27.3c-.62-.1-1.19-.21-1.56-.26s-.62-.16-.78-.16a.9.9,0,0,0-.31-.05,1.5,1.5,0,0,1-1.3-1.61v-3.07h14.87v3.07a1.49,1.49,0,0,1-1.3,1.61A1.75,1.75,0,0,1,497.75,269.45Z" transform="translate(-14.87 -0.23)"/><path class="cls-3" d="M528,275.64c-.11-.47-.26-1.87-.47-4.16a26,26,0,0,0-7.18-1.19,12.57,12.57,0,0,0-4.88.88,10.42,10.42,0,0,0-3.8,2.65,12.89,12.89,0,0,0-2.5,4.16,16,16,0,0,0-.93,5.57,15.75,15.75,0,0,0,.93,5.61,12.5,12.5,0,0,0,2.4,4.16,10.44,10.44,0,0,0,3.64,2.6,10.63,10.63,0,0,0,4.47.89,19,19,0,0,0,2.6-.16,11.18,11.18,0,0,0,2.13-.47,8.25,8.25,0,0,0,1.82-.88A13.32,13.32,0,0,0,528,294a2.08,2.08,0,0,1,.57-.37,1.35,1.35,0,0,1,.62-.1,1.21,1.21,0,0,1,1,.42l2.76,3a14.87,14.87,0,0,1-5.62,4.32,19.88,19.88,0,0,1-8.06,1.51,19,19,0,0,1-7.49-1.46,16.07,16.07,0,0,1-5.72-3.95,17.93,17.93,0,0,1-3.64-6.09,22.76,22.76,0,0,1-1.25-7.69,20.94,20.94,0,0,1,1.41-7.8,17.81,17.81,0,0,1,10-10,21.07,21.07,0,0,1,7.86-1.4,34.27,34.27,0,0,1,11.8,2.7v9.57h-3A1.09,1.09,0,0,1,528,275.64Z" transform="translate(-14.87 -0.23)"/><path class="cls-3" d="M547.83,269.45c-.16,0-.42.11-.78.16s-.89.16-1.51.26v27.3c.62.11,1.14.21,1.51.26s.62.16.78.16a2,2,0,0,1,.31.05,1.5,1.5,0,0,1,1.3,1.61v3.07H534.57v-3.07a1.49,1.49,0,0,1,1.3-1.61,1.75,1.75,0,0,1,.31-.05,5.09,5.09,0,0,1,.78-.16l1.56-.26v-27.3l-1.56-.26c-.36-.05-.62-.16-.78-.16a1,1,0,0,0-.31-.05,1.49,1.49,0,0,1-1.3-1.61v-3.07h14.87v3.07a1.5,1.5,0,0,1-1.3,1.61A2,2,0,0,1,547.83,269.45Z" transform="translate(-14.87 -0.23)"/><path class="cls-3" d="M579.18,264.72v9.88h-3a1.14,1.14,0,0,1-1.2-1c-.05-.41-.2-1.5-.36-3.32H562.49v10.4h12.74v5.41H562.49v10.6h12.12c.16-1.82.31-2.91.36-3.32a1.14,1.14,0,0,1,1.2-1h3v9.93H551.52v-3.07a1.5,1.5,0,0,1,1.3-1.61,2,2,0,0,1,.31-.05c.16,0,.42-.11.78-.16s.94-.15,1.56-.26v-27.3c-.62-.1-1.19-.21-1.56-.26s-.62-.16-.78-.16a2,2,0,0,1-.31-.05,1.5,1.5,0,0,1-1.3-1.61v-3.07h27.66Z" transform="translate(-14.87 -0.23)"/><path class="cls-3" d="M620.94,264.72v3.07a1.5,1.5,0,0,1-1.3,1.61,2,2,0,0,1-.31.05c-.16,0-.42.11-.78.16s-.89.16-1.51.26v32.45H613.4a3.21,3.21,0,0,1-1.35-.26,2.88,2.88,0,0,1-1.09-.94l-19.66-25c.05.57.1,1.09.1,1.61s.05,1,.05,1.51v17.94c2.19.31,3.28.47,3.39.47a1.5,1.5,0,0,1,1.3,1.61v3.07H581.37v-3.07a1.49,1.49,0,0,1,1.3-1.61,1,1,0,0,0,.31-.05,4.59,4.59,0,0,1,.78-.16l1.56-.26v-27.3l-1.56-.26c-.37-.05-.63-.16-.78-.16a1.75,1.75,0,0,1-.31-.05,1.49,1.49,0,0,1-1.3-1.61v-3.07H589c.31,0,.57,0,.78,0a1.08,1.08,0,0,1,.57.16,1.27,1.27,0,0,1,.47.31c.15.16.31.37.52.63L611.06,291c0-.62-.1-1.19-.16-1.76s0-1.15,0-1.67V269.87c-2.18-.31-3.27-.47-3.38-.47a1.5,1.5,0,0,1-1.3-1.61v-3.07h14.77Z" transform="translate(-14.87 -0.23)"/><path class="cls-3" d="M649.33,275.64c-.1-.47-.26-1.87-.47-4.16a26,26,0,0,0-7.17-1.19,12.66,12.66,0,0,0-4.89.88,10.42,10.42,0,0,0-3.8,2.65,12.69,12.69,0,0,0-2.49,4.16,15.73,15.73,0,0,0-.94,5.57,15.53,15.53,0,0,0,.94,5.61,12.31,12.31,0,0,0,2.39,4.16,10.44,10.44,0,0,0,3.64,2.6,10.63,10.63,0,0,0,4.47.89,18.89,18.89,0,0,0,2.6-.16,11.18,11.18,0,0,0,2.13-.47,8,8,0,0,0,1.82-.88,12.08,12.08,0,0,0,1.72-1.35,2.08,2.08,0,0,1,.57-.37,1.39,1.39,0,0,1,.63-.1,1.2,1.2,0,0,1,1,.42l2.76,3a14.87,14.87,0,0,1-5.62,4.32,19.85,19.85,0,0,1-8.06,1.51,19,19,0,0,1-7.49-1.46,16.07,16.07,0,0,1-5.72-3.95,18.09,18.09,0,0,1-3.64-6.09,22.76,22.76,0,0,1-1.24-7.69,20.94,20.94,0,0,1,1.4-7.8,17.83,17.83,0,0,1,3.95-6,17.59,17.59,0,0,1,6.09-4,21,21,0,0,1,7.85-1.4,34.27,34.27,0,0,1,11.8,2.7v9.57h-3A1.1,1.1,0,0,1,649.33,275.64Z" transform="translate(-14.87 -0.23)"/><path class="cls-3" d="M691.76,264.72v3.07a1.49,1.49,0,0,1-1.3,1.61c-.1,0-.15.05-.31.05s-.41.11-.78.16-.88.16-1.51.26l-10.6,17.84v9.46c.62.11,1.14.21,1.5.26s.63.16.78.16a1.75,1.75,0,0,1,.31.05,1.5,1.5,0,0,1,1.31,1.61v3.07H666.28v-3.07a1.5,1.5,0,0,1,1.3-1.61,1.27,1.27,0,0,0,.37-.05,4.59,4.59,0,0,1,.78-.16c.36-.05.88-.15,1.5-.26v-9.46l-10.6-17.84-1.56-.26c-.37-.05-.63-.16-.78-.16a1,1,0,0,0-.32-.05,1.5,1.5,0,0,1-1.3-1.61v-3.07h14v3.07a1.49,1.49,0,0,1-1.3,1.61s-.1.05-.2.05a2.71,2.71,0,0,1-.52.16l-.73.16,5,9.1c.42.73.73,1.4,1,2.08s.52,1.35.78,2a16.11,16.11,0,0,1,.78-2c.31-.68.63-1.35,1-2.08l4.94-9.1-.78-.16c-.21-.05-.36-.16-.47-.16a.56.56,0,0,0-.26-.05,1.5,1.5,0,0,1-1.3-1.61v-3.07h14Z" transform="translate(-14.87 -0.23)"/><path class="cls-7" d="M196.92,314.82v7.3h-1.25c-.7,0-1-.4-1-1.2,0-.45-.1-1.8-.2-4H178.27v14.3h14.1v2h-14.1V348h16.15c0-.46.05-1,.1-1.71s0-1.25,0-1.59.05-.55.05-.66c0-.79.35-1.25,1-1.25h1.25v7.36h-25.4v-1c0-.55.3-.86.95-.9h.5c.25,0,.6,0,1.1,0s1.05-.05,1.65-.05V316.77c-.6,0-1.15,0-1.65,0s-.85-.05-1.1-.05h-.5c-.65-.05-1-.35-1-.9v-.95h25.45Z" transform="translate(-14.87 -0.23)"/><path class="cls-7" d="M233.22,349.18v1h-9.6v-1c0-.55.35-.86,1-.9H225c.15,0,.5,0,.95,0s1-.05,1.5-.05l-10.2-14.91a2.3,2.3,0,0,1-.35.7l-10,14.21c.6,0,1.15.05,1.6.05s.85,0,1.05,0H210c.65,0,1,.35,1,.9v1H201v-1c0-.55.35-.86,1-.9h.35c.15,0,.4,0,.7,0s.6-.05,1-.05L215.42,332l-10.75-15.25c-.4,0-.7,0-1,0s-.55-.05-.7-.05h-.35c-.65-.05-1-.35-1-.9v-.95h9.7v.95c0,.55-.3.85-.95.9H210c-.15,0-.45.05-.9.05s-.9,0-1.45,0l9.7,14.05a3.44,3.44,0,0,1,.15-.4,1.5,1.5,0,0,1,.2-.4L227,316.77c-.6,0-1.1,0-1.6,0s-.85-.05-1-.05H224c-.65-.05-1-.35-1-.9v-.95h9.9v.95c0,.55-.35.85-1,.9h-.35c-.15,0-.4.05-.7.05s-.55,0-.95,0L219,331.87l11.35,16.31c.35,0,.65.05.9.05s.5,0,.65,0h.3C232.87,348.32,233.22,348.63,233.22,349.18Z" transform="translate(-14.87 -0.23)"/><path class="cls-7" d="M262.07,325.32a9.94,9.94,0,0,1-.85,4.25,9.08,9.08,0,0,1-2.5,3.35,12.08,12.08,0,0,1-4,2.2,17,17,0,0,1-5.25.8h-6.05v12.26c.6,0,1.1.05,1.6.05s.9,0,1.15,0h.45c.65,0,1,.35,1,.9v1h-11v-1c0-.55.35-.86,1-.9h.5c.25,0,.6,0,1.1,0s1-.05,1.65-.05V316.77c-.6,0-1.15,0-1.65,0s-.85-.05-1.1-.05h-.5c-.65-.05-1-.35-1-.9v-.95h12.85c4.15,0,7.3.9,9.4,2.7S262.07,322,262.07,325.32Zm-2.55-.05A7.92,7.92,0,0,0,257,319c-1.7-1.45-4.2-2.2-7.5-2.2h-6.05v17.05h6.05a12.35,12.35,0,0,0,4.2-.65,9.63,9.63,0,0,0,3.15-1.8,7.49,7.49,0,0,0,1.95-2.7A8.68,8.68,0,0,0,259.52,325.27Z" transform="translate(-14.87 -0.23)"/><path class="cls-7" d="M290.52,314.82v7.3h-1.25c-.7,0-1-.4-1-1.2,0-.45-.1-1.8-.2-4H271.87v14.3H286v2h-14.1V348H288c0-.46.05-1,.1-1.71s.05-1.25.05-1.59.05-.55.05-.66c0-.79.35-1.25,1-1.25h1.25v7.36h-25.4v-1c0-.55.3-.86.95-.9h.5c.25,0,.6,0,1.1,0s1.05-.05,1.65-.05V316.77c-.6,0-1.15,0-1.65,0s-.85-.05-1.1-.05h-.5c-.65-.05-1-.35-1-.9v-.95h25.45Z" transform="translate(-14.87 -0.23)"/><path class="cls-7" d="M324.42,349.18v1h-3.5a1.6,1.6,0,0,1-.7-.15,1.66,1.66,0,0,1-.55-.5l-11.35-14.36a3.24,3.24,0,0,0-.9-.8,3.7,3.7,0,0,0-1.5-.2h-4.2v14c.6,0,1.1.05,1.6.05s.85,0,1.1,0h.5c.65,0,1,.35,1,.9v1h-11v-1c0-.55.35-.86,1-.9h.5c.25,0,.6,0,1.1,0s1.05-.05,1.65-.05V316.77c-.6,0-1.15,0-1.65,0s-.85-.05-1.1-.05h-.5c-.65-.05-.95-.35-.95-.9v-.95h12.8c4.1,0,7.15.8,9.15,2.35a8.26,8.26,0,0,1,3,6.9,9.76,9.76,0,0,1-.7,3.7,9.07,9.07,0,0,1-2,3,10.84,10.84,0,0,1-3.15,2.1,13.63,13.63,0,0,1-4.2,1.05,4.17,4.17,0,0,1,1.1,1l10.6,13.36c.3,0,.6,0,.9,0h1C324.12,348.32,324.42,348.63,324.42,349.18Zm-12.8-17.46a8.58,8.58,0,0,0,3.15-1.65,6.93,6.93,0,0,0,2-2.5,7.78,7.78,0,0,0,.65-3.3c0-2.5-.8-4.4-2.45-5.6s-4.05-1.85-7.2-1.85h-6v15.45h5.7A15.54,15.54,0,0,0,311.62,331.72Z" transform="translate(-14.87 -0.23)"/><path class="cls-7" d="M353.57,314.82v7.3h-1.2c-.7,0-1.05-.4-1.1-1.2,0-.1,0-1.4-.2-3.95h-10.3v31.21c.6,0,1.15.05,1.65.05s.85,0,1.1,0h.5c.65,0,1,.35,1,.9v1H334v-1c0-.55.35-.86,1-.9h.45c.25,0,.65,0,1.15,0s1-.05,1.6-.05V317H327.87c-.1,2.3-.2,3.6-.2,3.95-.05.8-.35,1.2-1.05,1.2h-1.25v-7.3h28.2Z" transform="translate(-14.87 -0.23)"/><path class="cls-7" d="M392.52,314.82v7.3h-1.25c-.7,0-1-.4-1-1.2,0-.45-.1-1.8-.2-4H373.87v14.3H388v2h-14.1V348H390c0-.46.05-1,.1-1.71s.05-1.25.05-1.59.05-.55.05-.66c0-.79.35-1.25,1-1.25h1.25v7.36h-25.4v-1c0-.55.3-.86.95-.9h.5c.25,0,.6,0,1.1,0s1.05-.05,1.65-.05V316.77c-.6,0-1.15,0-1.65,0s-.85-.05-1.1-.05h-.5c-.65-.05-1-.35-1-.9v-.95h25.45Z" transform="translate(-14.87 -0.23)"/><path class="cls-7" d="M430.82,314.82v.95c0,.55-.35.85-1,.9h-.3c-.15,0-.4.05-.65.05s-.6,0-.95,0l-13.8,33.41h-2.25l-13.8-33.41c-.35,0-.7,0-.95,0s-.5-.05-.65-.05h-.35c-.65-.05-1-.35-1-.9v-.95h9.5v.95c0,.55-.35.85-1,.9h-.4c-.2,0-.5.05-1,.05s-1,0-1.55,0l11.55,28.05a17.68,17.68,0,0,1,.75,2.46,15.82,15.82,0,0,1,.75-2.46l11.45-28.05c-.55,0-1.05,0-1.5,0s-.75-.05-1-.05h-.45c-.65-.05-.95-.35-.95-.9v-.95h9.45Z" transform="translate(-14.87 -0.23)"/><path class="cls-7" d="M455,349v1.15h-8.65V349c0-.65.4-1,1.15-1a1.77,1.77,0,0,1,.3,0c.15,0,.4-.05.75-.05a11.78,11.78,0,0,0,1.25-.05l-3.5-8.65-.25-.66h-16.9l-.25.66-3.5,8.65a12.68,12.68,0,0,0,1.3.05c.35,0,.55.05.7.05a1.77,1.77,0,0,1,.3,0c.75,0,1.15.35,1.15,1v1.15h-8.6V349a.9.9,0,0,1,.95-1l1.6-.15,13.55-33.11h2.55l13.5,33.11L454,348A.9.9,0,0,1,455,349Zm-25.05-12.36h15.35l-7-17.25c-.1-.3-.25-.6-.35-.95s-.25-.7-.35-1.1c-.1.4-.25.75-.35,1.1s-.25.7-.35,1Z" transform="translate(-14.87 -0.23)"/><path class="cls-7" d="M481.12,343.57h1v6.61h-24v-1c0-.55.35-.86,1-.9h.5c.25,0,.6,0,1.1,0s1-.05,1.65-.05V316.77c-.6,0-1.15,0-1.65,0s-.85-.05-1.1-.05h-.5c-.65-.05-1-.35-1-.9v-.95h11v.95c0,.55-.35.85-1,.9h-.45c-.25,0-.65.05-1.15.05s-1,0-1.6,0V348h14.6c.05-.7.1-1.3.15-1.75s.05-.8.1-1a2,2,0,0,0,.05-.45c.05-.8.35-1.21,1.05-1.21Z" transform="translate(-14.87 -0.23)"/><path class="cls-7" d="M518.37,314.82v.95c0,.55-.35.85-1,.9h-.45c-.25,0-.65.05-1.15.05s-1,0-1.6,0v19.9a16.2,16.2,0,0,1-.95,5.45,12.85,12.85,0,0,1-2.65,4.45,12.27,12.27,0,0,1-4.25,3,14.08,14.08,0,0,1-5.55,1.05,14.33,14.33,0,0,1-5.6-1.05,12.27,12.27,0,0,1-4.25-3,12.85,12.85,0,0,1-2.65-4.45,16.19,16.19,0,0,1-.9-5.45v-19.9c-.6,0-1.15,0-1.65,0s-.85-.05-1.1-.05h-.5c-.65-.05-.95-.35-.95-.9v-.95h11.6v.95c0,.55-.35.85-1,.9h-.6c-.35,0-.85.05-1.45.05s-1.2,0-1.8,0v19.9a13.76,13.76,0,0,0,.75,4.61,10.8,10.8,0,0,0,2.1,3.7,9.55,9.55,0,0,0,3.4,2.5,11.44,11.44,0,0,0,4.6.9,11.19,11.19,0,0,0,4.55-.9,10,10,0,0,0,3.4-2.45,10.67,10.67,0,0,0,2.15-3.75,14,14,0,0,0,.75-4.61v-19.9c-.6,0-1.2,0-1.8,0s-1.1-.05-1.45-.05h-.6c-.65-.05-1-.35-1-.9v-.95h11.6Z" transform="translate(-14.87 -0.23)"/><path class="cls-7" d="M552.32,349v1.15h-8.65V349c0-.65.4-1,1.15-1a1.77,1.77,0,0,1,.3,0c.15,0,.4-.05.75-.05a11.78,11.78,0,0,0,1.25-.05l-3.5-8.65-.25-.66h-16.9l-.25.66-3.5,8.65a12.68,12.68,0,0,0,1.3.05c.35,0,.55.05.7.05a1.77,1.77,0,0,1,.3,0c.75,0,1.15.35,1.15,1v1.15h-8.6V349a.9.9,0,0,1,.95-1l1.6-.15,13.55-33.11h2.55l13.5,33.11,1.65.15A.9.9,0,0,1,552.32,349Zm-25.05-12.36h15.35l-7-17.25c-.1-.3-.25-.6-.35-.95s-.25-.7-.35-1.1c-.1.4-.25.75-.35,1.1s-.25.7-.35,1Z" transform="translate(-14.87 -0.23)"/><path class="cls-7" d="M582.67,314.82v7.3h-1.2c-.7,0-1.05-.4-1.1-1.2,0-.1,0-1.4-.2-3.95h-10.3v31.21c.6,0,1.15.05,1.65.05s.85,0,1.1,0h.5c.65,0,1,.35,1,.9v1h-11v-1c0-.55.35-.86,1-.9h.45c.25,0,.65,0,1.15,0s1-.05,1.6-.05V317H557c-.1,2.3-.2,3.6-.2,3.95,0,.8-.35,1.2-1,1.2h-1.25v-7.3h28.2Z" transform="translate(-14.87 -0.23)"/><path class="cls-7" d="M594.92,316.67c-.25,0-.6.05-1.1.05s-1.05,0-1.65,0v31.41c.6,0,1.15.05,1.65.05s.85,0,1.1,0h.5c.65,0,1,.35,1,.9v1h-11v-1c0-.55.35-.86,1-.9h.5c.25,0,.6,0,1.1,0s1-.05,1.65-.05V316.77c-.6,0-1.15,0-1.65,0s-.85-.05-1.1-.05h-.5c-.65-.05-1-.35-1-.9v-1h11v1c0,.55-.3.85-1,.9Z" transform="translate(-14.87 -0.23)"/><path class="cls-7" d="M631.77,339.92a16.48,16.48,0,0,1-3.45,5.71,15,15,0,0,1-5.3,3.65,18,18,0,0,1-6.9,1.3,17.53,17.53,0,0,1-6.8-1.3,15.22,15.22,0,0,1-5.35-3.65,16.48,16.48,0,0,1-3.45-5.71,22.68,22.68,0,0,1,0-14.85,16.44,16.44,0,0,1,3.45-5.7,15.34,15.34,0,0,1,5.35-3.7,17.53,17.53,0,0,1,6.8-1.3,18,18,0,0,1,6.9,1.3,15.15,15.15,0,0,1,5.3,3.7,16.44,16.44,0,0,1,3.45,5.7,22.68,22.68,0,0,1,0,14.85Zm-2.45-14.1a14.47,14.47,0,0,0-2.9-5,12.43,12.43,0,0,0-4.5-3.15,15.71,15.71,0,0,0-11.55,0,12.43,12.43,0,0,0-4.5,3.15,14.56,14.56,0,0,0-3,5,19.77,19.77,0,0,0-1,6.65,19.57,19.57,0,0,0,1,6.65,14.47,14.47,0,0,0,3,5,12.45,12.45,0,0,0,4.5,3.16,16.55,16.55,0,0,0,11.55,0,12.45,12.45,0,0,0,4.5-3.16,14.38,14.38,0,0,0,2.9-5,19.57,19.57,0,0,0,1-6.65A19.77,19.77,0,0,0,629.32,325.82Z" transform="translate(-14.87 -0.23)"/><path class="cls-7" d="M671.07,314.82v.95c0,.55-.35.85-1,.9h-.45c-.25,0-.65.05-1.15.05s-1,0-1.6,0v33.41h-1.25a1,1,0,0,1-.9-.5l-23-30.71c0,.5,0,1,0,1.45v27.76c.6,0,1.15.05,1.65.05s1,0,1.2,0h.5c.65,0,1,.35,1,.9v1h-10.8v-1c0-.55.35-.86,1-.9h.5c.25,0,.6,0,1.1,0s1.05-.05,1.65-.05V316.77c-.6,0-1.15,0-1.65,0s-.85-.05-1.1-.05h-.5c-.65-.05-1-.35-1-.9v-1h5.5a1.54,1.54,0,0,1,.55.1c.15.05.25.2.4.4l22.9,30.66c0-.5,0-1,0-1.45V316.77c-.6,0-1.2,0-1.7,0s-.9-.05-1.15-.05h-.5c-.65-.05-1-.35-1-.9v-.95h10.8Z" transform="translate(-14.87 -0.23)"/><path class="cls-7" d="M694.72,339.82A11.65,11.65,0,0,1,694,344a10,10,0,0,1-2.25,3.4,10.38,10.38,0,0,1-3.55,2.3,13,13,0,0,1-4.8.85,23.93,23.93,0,0,1-9.5-1.95v-7.9h1.2c.7,0,1,.39,1.1,1.19,0,.06,0,.36.05.9s0,1.21.1,2,0,1.56.1,2.25a16.26,16.26,0,0,0,7.05,1.36,9.66,9.66,0,0,0,3.75-.61,7.48,7.48,0,0,0,4.5-4.34,8.77,8.77,0,0,0,.6-3.25,5.85,5.85,0,0,0-.75-3.11,6.36,6.36,0,0,0-2-2,12.6,12.6,0,0,0-2.85-1.4l-3.25-1.05c-1.1-.35-2.25-.75-3.3-1.2a11.17,11.17,0,0,1-2.8-1.65,7.65,7.65,0,0,1-2-2.5,8.58,8.58,0,0,1-.75-3.8,9,9,0,0,1,.65-3.45,9,9,0,0,1,5.2-4.9,12.12,12.12,0,0,1,4.4-.75,23,23,0,0,1,9.1,2.05v7.25h-1.2c-.7,0-1-.45-1.05-1.25,0-.25-.1-1.85-.25-4.7a16.7,16.7,0,0,0-6.6-1.25,10.1,10.1,0,0,0-3.4.55,6.35,6.35,0,0,0-2.45,1.5,6.62,6.62,0,0,0-1.5,2.2,6.74,6.74,0,0,0-.55,2.6,5.57,5.57,0,0,0,.8,3,6.36,6.36,0,0,0,2,2,15.11,15.11,0,0,0,2.85,1.4c1,.35,2.15.75,3.25,1.1s2.25.75,3.3,1.2a12.9,12.9,0,0,1,2.8,1.65,7.25,7.25,0,0,1,2.8,6.1Z" transform="translate(-14.87 -0.23)"/><path class="cls-3" d="M634.58,365.57c-.11,0-.3.08-.55.11l-1.08.19V385.3l1.08.18c.25,0,.44.11.55.11a1.09,1.09,0,0,1,.22,0,1.07,1.07,0,0,1,.93,1.15V389H625.22v-2.18a1.07,1.07,0,0,1,.92-1.15c.08,0,.89-.11,2.41-.33V371.68c0-.33,0-.67,0-1s0-.78.07-1.18l-8.07,15.17a2.15,2.15,0,0,1-.74.81,1.84,1.84,0,0,1-1,.3h-.67a1.81,1.81,0,0,1-1-.3,2.15,2.15,0,0,1-.74-.81l-8.18-15.21c0,.41,0,.81.07,1.19a9.93,9.93,0,0,1,0,1.07V385.3l2.4.33a1.07,1.07,0,0,1,.93,1.15V389H601.13v-2.18a1.07,1.07,0,0,1,.93-1.15.62.62,0,0,0,.22,0,3.43,3.43,0,0,1,.55-.11l1.11-.18V365.87l-1.11-.19c-.26,0-.44-.11-.55-.11a.8.8,0,0,0-.22,0,1.07,1.07,0,0,1-.93-1.15v-2.18h6.55c.22,0,.44,0,.59,0a1.57,1.57,0,0,1,.45.08c.14,0,.22.14.33.26a2.09,2.09,0,0,1,.33.44l8,14.84c.23.41.37.81.56,1.22s.37.85.55,1.29c.19-.44.34-.85.52-1.29s.37-.85.59-1.26l7.92-14.8a2.09,2.09,0,0,1,.3-.44.72.72,0,0,1,.37-.26,1.78,1.78,0,0,1,.44-.08c.15,0,.34,0,.56,0h6.55v2.18a1.07,1.07,0,0,1-.93,1.15A1.41,1.41,0,0,1,634.58,365.57Z" transform="translate(-14.87 -0.23)"/><path class="cls-3" d="M655.71,362.21v2a5.07,5.07,0,0,1-.19,1.44,5.81,5.81,0,0,1-.41.92L645,387.4a3.15,3.15,0,0,1-.89,1.11,2.39,2.39,0,0,1-1.55.45h-3.33l10.36-20.43a10.85,10.85,0,0,1,1.44-2.18H640.28c-.12,1.18-.15,2-.23,2.33a.81.81,0,0,1-.88.67h-2v-7.14Z" transform="translate(-14.87 -0.23)"/><path class="cls-3" d="M675.76,389H657v-1.52a2.58,2.58,0,0,1,.81-1.89l8.11-8.14c.66-.7,1.33-1.33,1.85-2a15.16,15.16,0,0,0,1.33-1.88,8.29,8.29,0,0,0,.85-1.89,6.9,6.9,0,0,0,.26-2A4.71,4.71,0,0,0,670,368a3.48,3.48,0,0,0-.81-1.22,2.83,2.83,0,0,0-1.22-.74,5.31,5.31,0,0,0-1.6-.26,4.19,4.19,0,0,0-2.7.85,4.46,4.46,0,0,0-1.48,2.22,1.9,1.9,0,0,1-.63,1,1.55,1.55,0,0,1-1,.33,4.48,4.48,0,0,1-.59-.07l-2.41-.41a10.53,10.53,0,0,1,1.07-3.4,8,8,0,0,1,4.7-3.89,11,11,0,0,1,3.33-.48,10.16,10.16,0,0,1,3.41.55,7.57,7.57,0,0,1,2.59,1.56,7,7,0,0,1,1.7,2.4,7.64,7.64,0,0,1,.63,3.11,8.33,8.33,0,0,1-.44,2.74,12.38,12.38,0,0,1-1.15,2.41,14.56,14.56,0,0,1-1.7,2.22l-2.08,2.18-6,6.18a15.51,15.51,0,0,1,1.74-.41,13.53,13.53,0,0,1,1.63-.15h5.92c.07-1,.11-1.51.15-1.66a.78.78,0,0,1,.85-.67h2V389Z" transform="translate(-14.87 -0.23)"/><path class="cls-3" d="M693.26,365.72a2.77,2.77,0,0,1-2,.63h-7.41l-1,5.59a16,16,0,0,1,3.33-.37,10.24,10.24,0,0,1,3.7.63,7.4,7.4,0,0,1,2.7,1.74,7.09,7.09,0,0,1,1.67,2.59,9.16,9.16,0,0,1,.52,3.21,9.54,9.54,0,0,1-.74,3.89,8.93,8.93,0,0,1-2.07,3,9.39,9.39,0,0,1-3.15,1.92,11.28,11.28,0,0,1-4,.7,10.22,10.22,0,0,1-2.4-.25,12.75,12.75,0,0,1-2.11-.71,11.58,11.58,0,0,1-1.85-1,11.27,11.27,0,0,1-1.48-1.18l1.4-2a1.44,1.44,0,0,1,1.19-.63,1.76,1.76,0,0,1,.92.3c.3.18.67.44,1.07.66a9.4,9.4,0,0,0,1.48.63,6.24,6.24,0,0,0,2,.3,5.81,5.81,0,0,0,2.22-.37,4.64,4.64,0,0,0,1.63-1.15,4.54,4.54,0,0,0,1-1.74,6.93,6.93,0,0,0,.3-2.22,4.49,4.49,0,0,0-1.26-3.4,5.2,5.2,0,0,0-3.74-1.23,11.07,11.07,0,0,0-3.88.71l-2.85-.82,2.22-13h13.21v2A2.06,2.06,0,0,1,693.26,365.72Z" transform="translate(-14.87 -0.23)"/><path class="cls-8" d="M27.22,339.35v-7.1c0-3.6-2.54-6.52-5.68-6.52s-5.69,2.92-5.69,6.52v7.1Z" transform="translate(-14.87 -0.23)"/><path class="cls-8" d="M14.87,332.25c0-4.22,3-7.65,6.67-7.65s6.67,3.43,6.67,7.65v8.23H14.87Zm11.37,0c0-3-2.11-5.39-4.7-5.39s-4.7,2.42-4.7,5.39v6h9.4Z" transform="translate(-14.87 -0.23)"/><path class="cls-1" d="M27.22,332.25V405.2h0l0,1.09c0,3.35,2.22,6.1,5,6.48H85.18c-2.83-.38-5-3.13-5-6.48V404.8h0V332.25c0-3.35-2.19-6.1-5-6.48-1.55,0-50.38,0-52.91,0C25,326.15,27.22,328.9,27.22,332.25Z" transform="translate(-14.87 -0.23)"/><path d="M32.15,413.89c-3.35-.44-5.89-3.68-5.91-7.56V332.25a5.18,5.18,0,0,0-4.15-5.35l.11-2.26h53c3.36.45,5.9,3.71,5.9,7.6l0,74a5.18,5.18,0,0,0,4.15,5.36l-.12,2.25h-53Zm48.91-2.26a8.21,8.21,0,0,1-1.89-5.34v-.35h0V332.25a5.18,5.18,0,0,0-4.1-5.34H26.32a8.28,8.28,0,0,1,1.89,5.34v71.82h0l0,2.22a5.19,5.19,0,0,0,4.11,5.35H81.06Z" transform="translate(-14.87 -0.23)"/><path d="M14.87,340.25h2v-8c0-3,2.11-5.39,4.7-5.39s4.7,2.42,4.7,5.39h2c0-4.22-3-7.65-6.67-7.65s-6.67,3.43-6.67,7.65Z" transform="translate(-14.87 -0.23)"/><path d="M32.37,413.9c3.31,0,6.33-3.63,6.33-7.61v-4.15h-2v4.15c0,2.75-2.12,5.35-4.36,5.35Z" transform="translate(-14.87 -0.23)"/><rect class="cls-1" x="60.15" y="321" width="13.13" height="97.31"/><path class="cls-1" d="M29.46,418.53c-1.08.18,65.64-.77,65.64-.77V408.5S31.73,397.8,31,400,34.09,417.76,29.46,418.53Z" transform="translate(-14.87 -0.23)"/><rect class="cls-1" x="8.41" y="405.18" width="12.36" height="10.04"/><rect class="cls-9" x="22.61" y="342.62" width="25.99" height="2.54"/><rect class="cls-9" x="22.61" y="350.88" width="34.84" height="2.54"/><rect class="cls-9" x="22.61" y="359.13" width="34.84" height="2.54"/><rect class="cls-9" x="22.61" y="367.38" width="34.84" height="2.54"/><rect class="cls-9" x="66.21" y="350.88" width="5.7" height="2.54"/><rect class="cls-9" x="66.21" y="359.13" width="5.7" height="2.54"/><rect class="cls-9" x="66.21" y="367.38" width="5.7" height="2.54"/><polyline class="cls-10" points="88.73 463.87 69.12 397.87 49.52 463.87"/><circle class="cls-11" cx="69.12" cy="395.08" r="7.37"/><line class="cls-11" x1="69.12" y1="378.92" x2="69.12" y2="387.71"/><path class="cls-12" d="M101.89,427.16A27.32,27.32,0,0,1,65.5,427" transform="translate(-14.87 -0.23)"/><path d="M485,513.23H473.22l-.86-4a32.21,32.21,0,0,1-3.32-.83l-2.84,3.14L456,505.67l1.26-3.9a31.44,31.44,0,0,1-2.38-2.38l-4.11,1.33-5.87-10.17,3.3-3c-.29-1-.54-1.94-.74-2.94l-4.61-1V471.9l4.85-1c.2-.78.44-1.6.72-2.45l-3.9-3.52,5.88-10.16,5.29,1.71c.49-.51,1-1,1.45-1.42l-1.79-5.52,10.17-5.87,4,4.45c.54-.16,1.06-.3,1.58-.42l1.31-6.09h11.74l1.3,6.09c.47.11.94.23,1.4.36l4.31-4.77,10.16,5.87-1.9,5.89c.36.33.72.67,1.07,1l6.07-2,5.87,10.16-4.36,3.94c.2.57.37,1.14.53,1.72l5.88,1.26v11.73L509.3,484c-.14.78-.3,1.52-.48,2.24l4,3.66L507,500.07l-4.56-1.47c-.59.7-1.23,1.39-1.9,2l1.5,4.65-10.16,5.87L489,508a31.36,31.36,0,0,1-3.1.95Zm-9.4-2.91h7.05l.82-3.84.92-.19a29.77,29.77,0,0,0,4.51-1.38l.93-.37,2.66,2.94,6.1-3.53-1.34-4.15.67-.63a28.59,28.59,0,0,0,2.91-3.16l.63-.8,4.23,1.37,3.53-6.1-3.64-3.3.25-.87a28.34,28.34,0,0,0,.8-3.73l.15-1,4.9-1.05V473.5l-5.35-1.14-.21-.89a28.83,28.83,0,0,0-1-3.2l-.35-.93,4.07-3.68-3.52-6.1-5.56,1.8-.63-.67a29,29,0,0,0-2.22-2.12l-.74-.63,1.77-5.48-6.1-3.52-4,4.39-.89-.27a28.13,28.13,0,0,0-2.94-.76l-.93-.19-1.21-5.64h-7.05l-1.2,5.64-.94.19a27,27,0,0,0-3.1.82l-.89.29-3.7-4.1-6.11,3.53,1.66,5.12-.74.63a29.52,29.52,0,0,0-2.56,2.49l-.63.69-4.83-1.56-3.52,6.1,3.6,3.26-.33.92a28.27,28.27,0,0,0-1.16,3.9l-.19.92-4.38.94v7.05l4.22.9.16,1a28.37,28.37,0,0,0,1.11,4.38l.31.9-3,2.68,3.52,6.11,3.71-1.2.63.74a29.85,29.85,0,0,0,3.42,3.42l.75.63-1.14,3.51,6.11,3.52,2.53-2.8.9.31a27.72,27.72,0,0,0,4.75,1.17l1,.16Z" transform="translate(-14.87 -0.23)"/><path class="cls-8" d="M478.82,496a18.38,18.38,0,0,1-12.23-4.6l12.85-12.86h17.9A18.54,18.54,0,0,1,478.82,496Z" transform="translate(-14.87 -0.23)"/><path class="cls-1" d="M480,475.69V458.91a18.41,18.41,0,0,1,17.26,16.78Z" transform="translate(-14.87 -0.23)"/><path class="cls-8" d="M478.82,496a18.38,18.38,0,0,1-12.23-4.6l12.85-12.86h17.9A18.54,18.54,0,0,1,478.82,496Z" transform="translate(-14.87 -0.23)"/><path class="cls-3" d="M480,475.69V458.91a18.41,18.41,0,0,1,17.26,16.78Z" transform="translate(-14.87 -0.23)"/><path d="M478.75,501.3a23.82,23.82,0,0,1-15.84-6l1.92-2.17a21,21,0,1,0,14.93-36.63l.14-2.9a23.87,23.87,0,0,1-1.15,47.71Z" transform="translate(-14.87 -0.23)"/><path d="M474.19,457.27v18.28l-12.81,13.08a20.67,20.67,0,0,1,12.81-31.36m2.9-3.34a23.57,23.57,0,0,0-16,39.13l16-16.32V453.93Z" transform="translate(-14.87 -0.23)"/><path class="cls-13" d="M667.65,557.07v30.26a54,54,0,1,1-107.91,0V532.59h-.2V473.48a81.85,81.85,0,1,0-163.69,0v32.26h27.89V473.48a54,54,0,1,1,107.91,0V588.23h.23a81.83,81.83,0,0,0,163.66-.9V557.07Z" transform="translate(-14.87 -0.23)"/><path class="cls-4" d="M410.14,590.23A43.25,43.25,0,1,0,366.89,547,43.24,43.24,0,0,0,410.14,590.23Z" transform="translate(-14.87 -0.23)"/><rect x="393.74" y="469.91" width="3.06" height="51.09"/><path d="M408.89,463.9c.29-2.11.68-4.23,1.17-6.3l3,.71c-.46,2-.83,4-1.11,6Zm2.91-12.47c.68-2,1.46-4,2.32-6l2.86,1.27c-.82,1.86-1.56,3.78-2.21,5.7ZM417,439.71c1-1.86,2.17-3.69,3.37-5.45l2.58,1.77c-1.14,1.68-2.23,3.43-3.22,5.21Zm7.23-10.56c1.36-1.64,2.8-3.24,4.31-4.75l2.21,2.21c-1.43,1.44-2.82,3-4.11,4.53Zm9-9.08c1.63-1.36,3.35-2.66,5.1-3.87l1.78,2.57c-1.67,1.16-3.31,2.4-4.87,3.71Zm10.54-7.26c1.86-1.05,3.78-2,5.73-2.88l1.27,2.86c-1.86.82-3.7,1.75-5.47,2.74Zm11.7-5.21c2-.68,4.09-1.28,6.16-1.77l.72,3.05c-2,.46-4,1-5.88,1.68Zm12.46-3c2.1-.29,4.24-.49,6.37-.59l.15,3.12c-2,.1-4.08.29-6.09.57Zm12.64,2.52.14-3.13c2.13.09,4.28.29,6.38.57l-.42,3.1C484.66,407.43,482.61,407.25,480.57,407.16Zm12.12,1.65.7-3.05c2.08.48,4.15,1.06,6.17,1.74l-1,3C496.65,409.82,494.67,409.27,492.69,408.81Zm11.6,3.85,1.26-2.86c1.94.85,3.87,1.81,5.74,2.85l-1.52,2.73C508,414.39,506.14,413.48,504.29,412.66ZM515,418.6l1.76-2.59c1.76,1.2,3.48,2.49,5.12,3.85l-2,2.41C518.3,421,516.66,419.74,515,418.6Zm9.43,7.78,2.2-2.22c1.52,1.51,3,3.09,4.34,4.72l-2.4,2C527.25,429.34,525.85,427.82,524.41,426.38Zm7.85,9.38,2.57-1.78c1.21,1.75,2.36,3.57,3.4,5.43l-2.72,1.53C534.51,439.17,533.42,437.43,532.26,435.76Zm6,10.65,2.85-1.28c.87,1.94,1.66,3.94,2.35,6l-3,1C539.85,450.17,539.1,448.26,538.27,446.41ZM542.21,458l3-.73c.5,2.06.9,4.18,1.2,6.29l-3.09.44C543.07,462,542.68,460,542.21,458Zm1.74,12.1,3.12-.16c.06,1.18.09,2.38.09,3.56v2.78H544v-2.78C544,472.35,544,471.2,544,470.08Zm.08,68.86v-6.27h3.13v6.27Zm0-12.54v-6.27h3.13v6.27Zm0-12.53V507.6h3.13v6.27Zm0-12.54v-6.27h3.13v6.27Zm0-12.53v-6.27h3.13v6.27Z" transform="translate(-14.87 -0.23)"/><polygon class="cls-2" points="665.1 475.17 665.1 488.85 665.1 502.52 717.55 502.52 726.11 488.85 717.55 475.17 665.1 475.17"/><rect class="cls-1" x="660.99" y="456.7" width="12.18" height="96.01"/><path d="M689.67,553.23H674.24V454.67h15.43Zm-12.18-2.55h8.93V459.19h-8.93Z" transform="translate(-14.87 -0.23)"/><polygon class="cls-3" points="668.07 489.81 668.07 476.14 668.07 462.46 615.62 462.46 607.06 476.14 615.62 489.81 668.07 489.81"/><rect x="625.35" y="473.84" width="29.82" height="4.59"/><rect x="676.82" y="486.55" width="29.82" height="4.59"/><rect class="cls-1" x="650.5" y="545.7" width="32.6" height="6.6"/><path d="M696.27,547.63v3.19h-29.2v-3.19h29.2m3.4-3.4h-36v10h36v-10Z" transform="translate(-14.87 -0.23)"/><rect x="528.89" y="544.43" width="3.06" height="35.05"/><path class="cls-8" d="M637.67,589.29A23.68,23.68,0,1,1,614,565.61,23.68,23.68,0,0,1,637.67,589.29Z" transform="translate(-14.87 -0.23)"/><line class="cls-1" x1="590.78" y1="580.72" x2="607.46" y2="597.4"/><rect class="cls-14" x="611.72" y="577.49" width="4.53" height="23.59" transform="translate(-251.72 606.54) rotate(-45)"/><line class="cls-1" x1="607.46" y1="580.72" x2="590.78" y2="597.4"/><rect class="cls-14" x="602.2" y="587.02" width="23.59" height="4.53" transform="translate(-251.72 606.54) rotate(-45)"/><path class="cls-15" d="M408.67,520.23c.56,0,.93,0,1.5,0a26.5,26.5,0,1,1-26.5,26.5,26.78,26.78,0,0,1,8-18.5" transform="translate(-14.87 -0.23)"/><polyline class="cls-15" points="367.24 527.63 378.17 526.44 379.36 537.37"/><rect x="754.12" y="223.31" width="46.23" height="4"/><rect x="754.12" y="233.22" width="33.29" height="4"/><polygon points="741.32 235.19 736.17 230.42 738.89 227.48 740.88 229.33 747.32 221.25 750.44 223.75 741.32 235.19"/><rect x="754.12" y="247.57" width="46.23" height="4"/><rect x="754.12" y="257.48" width="33.29" height="4"/><polygon points="741.32 259.45 736.17 254.69 738.88 251.75 740.88 253.59 747.32 245.52 750.44 248.01 741.32 259.45"/></svg>